<mxfile host="app.diagrams.net" modified="2021-06-28T13:32:39.170Z" agent="5.0 (Windows NT 10.0; WOW64) AppleWebKit/537.36 (KHTML, like Gecko) Chrome/91.0.4472.114 Safari/537.36" etag="UUoNhJKKlgwtx4E32VlZ" version="14.8.2" type="github">
  <diagram id="qHCethnXvMq3omv4qlmi" name="Page-1">
    <mxGraphModel dx="1108" dy="482" grid="1" gridSize="10" guides="1" tooltips="1" connect="1" arrows="1" fold="1" page="1" pageScale="1" pageWidth="850" pageHeight="1100" math="0" shadow="0">
      <root>
        <mxCell id="0" />
        <mxCell id="1" parent="0" />
        <mxCell id="d3yam9JhyoNh6LadO4L2-1" value="" style="shape=image;verticalLabelPosition=bottom;labelBackgroundColor=#ffffff;verticalAlign=top;aspect=fixed;imageAspect=0;image=data:image/png,iVBORw0KGgoAAAANSUhEUgAAAnQAAAFoCAYAAADelWayAAAgAElEQVR4AeydB5wdVdn/N5ueEBJIgSRUpUqRqoAgSEcUlCpWBBFFKSoWqoiIWF9EfAURQfCVkmRv3ZJsejaF1E3vvW623Tp9zu//+T3nnpvJSrex/O+Fydwy58yZZ+bufO/vKacKlUfFAhULVCxQsUDFAhULVCxQsUC3tkBVtx59ZfAVC1QsULFAxQIVC1QsULFAxQKoAF3lIqhYoGKBigUqFqhYoGKBigW6uQUqQNfNT2Bl+BULVCxQsUDFAhULVCxQsUAF6CrXQMUCFQtULFCxQMUCFQtULNDNLVABum5+AivDr1igYoGKBSoWqFigYoGKBSpAV7kGKhaoWKBigYoFKhaoWKBigW5ugQrQdfMTWBl+xQIVC1QsULFAxQIVC1QsUAG6yjVQsUDFAhULVCxQsUDFAhULdHMLVICum5/AyvDfKxZQAKJL13GZz7q+351em2Mw67c79ne6/dvtd4/FX7+F2S/X78eHOb69j02Vr8O936+8qligYoH3twX+q0CnlEJ0eX+bunJ07wcL8BYaAvBLSyAYx39tAMXSmp+GekN+FIZQcKDgQqnS++xE8X/+x881nLxnbMSxKR6CQiD/+jJ+HqOChQAeAvlMHwNUCP4n9uA/8oRHEwKBC4SOfMo+9zYee2HfsjPdLtKe29OaAZ8oH1CBjIvdqpAWDWDBhx9qu8pmYkz26CKErcdaOh5taH0G35N2f0cXgAvF647HHgAhbaUCuHDgw4NfOh9yzGLE99pF9o4OtrJxxQIVC7yFBSpA9xYGqnxcscAeCxj48ktAQ9QhWZAWCBS8qwppaFAz9MePBVp8+QHDJrKwncDSew/ohIlK938NSTwuHp8vixKw4g+yoARanuADD01gzphF7ONChY4ghqBu6fj5Yy5UAQLQnuzLtKUt9f7YP+ExhAsou7QvITzZJlA+XLYXoKOhA9KfXpQHKEI07W5gRiMqz4cBHn7UPR+e/FAQkuNpINeJvZyyTQl5cq0Rkmn37nuw3fMUVUZdscB/0AIVoPsPGruyq+5uAUNivJHaJdWNqlHkpskbK3mC/ylfgIXQQu1KFCF+KN2UIJB3YVneW3dajob4KmtzfBy3Uc9ICgJdhCZHQMsodPr4qBjxiA2YEbyoHlHx02DMzwhVZgmNLQSMaVcqd/zURkj1UxHqNPxqaAsFKPkO1To9HgKnggr4Hj8nHApR6xMje2ef+oyUtNRuemFq1TSq+hKSeZK0+liCZLFrifj4ceVRsUDFAu9LC1SA7n15WisH9W+zQBnGSDae9h+W2EzcXqKS0E1IXcmCiyw8FEQx2ePi6wpzBhTfK3dbo0TSvVmCITPEMtARYglrJV+eIqgBnsCs1h2JTQRbE1bBLWkxATBBKsE9wQ9uF4oSR1jeAyRaT6M1qfKF2q3Ik2sATqCtBNQyBgKikv1wXxTryDNlMjWKoih6kc/+bRfMv6tjXiu0MF3Z3p7zVLqEuJJFTh/tqX+A6Hf/XWOq9FuxQMUC/00LVIDuv2n9f8O+zc3TrN9sF29nmzdr///dZ7xDEg5KDKOVH94sNbSQMYwWR5DwlAsbBXiiMBF+NIdoRy3dgCU5T6CpBE7vCaNGDrQEQHRbUkHT3sxS7KtAGTW0PXxFHNsDVFqDE/XMCES0H8nPrPmchy4qJuO+dOyXXxIyaRrNkFTcuB/CGt2l3JNeNAzqfzVIe7INPxVxjocjGMl3tEao91na93vC5u90EGI0gWraTq4lgdSS61+MZRRVni9ebzxTlUfFAhULvF8t8L4DOkIKH28GK123ib7u7ieaxxJSyRDlQtvijY7pzWzUtc072TbaNtqOz9/qEd0m2vat2v3HPjeEQY+guP8Y30WXoC/xSyFjtggaIc8Dg9R5Lko3Vh8IQqpU1FT4r3QicMNu34Z5/kOHaRQ67faUODToGDi3xLOK8WmwtKrGgQtMWFDIizZJIPMl6al00GQJvkkDyCIblEVOttdxbYG0kyQIcb3SnctFu06VKsJHJ1w6cEsgw7WvaH8NnTwHvnL2SkAx54rxelo53OOY/A8Z9V++G7qVeQkRcqkHC7SFGtwEwIMQEkboKYQB1U3tQv+XD6TSYcUCFQu8JyzwvgQ6wkwQlNxFb2Jms42BiPckQLzJ+F/vIx6DATrf97Fr1y6sXbsWGzZskGX9+vXYuHEjdu/eDc/zyuBHW7S2tpa3MduvW7cObW1tYF/v5hG1KZ9zP9w3++VYuHBfXO/YsUPGZI4h2vbd7Ptf30ZDh8QsCYARDZhjyaxCqlcBQlUAwg7A7wSCAhDYgMfFAzwG7+tYMrYw7kiqVeJBZJ//+kG/4x4NzolDVECNkFBSzvhjKXQAazOQWwiVnQuVWwJ0LgAyswBrPpTXgjDwEYgAWUq/FFWOgGhDKQtCGgQ7XlbiG9VA6wvvhVBBHrA2ALnXSssyoHMpVHYO/MICBGFR8jMEWCQPgtd9APA6ZWJAqJMhtGE1UNPGwpUlZ6VxztIV3i0fjBUMmS7iw5Z/XegfFNrVHYQeVOBDBQReoiyv38qjYoGKBd6vFnhfAZ0BAQM0ruti8+bNWL58eXlZunQpuOTzeTmnbGMeBiCi75nPusuawMTj5yObzeKxxx7Dueeei4svvhiXXHIJLrzwQlk/8sgjAnDmuAhzv/rVr3DppZfK59z+oosuku1//etfI5PJmE3f0dqcE9Ooo6MDv/zlL6VfMybuh88fffRRtLe3y6amnTkW0/6/u6azlDFLdCpSWNPqnKd8eOQW/ojwtiPINMFvr4ffXguvvQ5+23gEu2dA5VYiDDrgKg+OQEVJMaFwVXIt/nePT++dx0b+EoQXdZEuu1I8HCzAXQt34zPIz7sZ+dlXID/nKuRmXYvs7BuQXfI9BB1TgCAnopoojwRWyf0gOtFZasNHESHdgNpPLSqluEe5P1KatQ7W2r8g+9qtsGZdB2/GNXCnfRbFps8iu/j7CHPLZZD0CJMHizwzqggVtAJqN4AWQO0Awp1AmNWZuaUEWB6XxDMKDRIAuynQlVz41EUZrRkgA6XaANUOyHo3EOyGCnI6prOi0L0Xvl6VMVQs8G+zwPsK6GglAg0XPqj8fOELX8CQIUOw//77Y9iwYbI+4IAD8Ic//KG8HaHBQBzX5vm/zer/5o7N+AlPn/vc51BVVfUPyxVXXIFt27aVR9LS0oIvf/nL/7Ad237lK1/5p4DOjIc7owr3pS996XX3c/XVV5ch00B5tG15sP+1JwQ61jbTSgfhRKBOsipJeBa81inYNecubB1/ObY2nINNjWdie+N52D3pOhRX/BZwl0uAP6vWabDgtcqbsa7r9l87tC475tjoXi0FsGmPpwSeFUWFsxd+B9nUIbCSPeCkqmEl+iETH4L2SWfCb/m7Vilpl4gqRnzlUdryX0HqpQnSlpRJ8ciKkmcBhXnIL7gL7cnDYCd6QcWroGJVsBPVyE8/G0qgUQMhz0gBWRSKi+BsewXB5j8j2PZH+Nsfh7f9f+HtjCEsrJbzQ7cjcVygnDFlokB2Ofju8lL/qhBYc91tsFsmwN/0LMJN/wt/69Pwtz4Df9PfELbNhvLy7yGXfncxcGWcFQt0Lwu874COrkFCAJdEIoHDDz/8deGBahVdj3xwW6MEmbbd6zTuPVoDtJ2dnfj85z8vx9+jRw9wMXB3zTXXCFyZ4yfQ3Xjjjaiuri5vY7a96aabysrZ3nt681fGllybx5sBHcdKpZAPHoNpb9r+99dMgOD1pYP69fgCXR6D7kN3C+wNT2Jn45loT41AvnYgsvV9kKvti87ESBRm3wBk6xEipxW6ktsWihoLa4fpHyL/7eMkZDHSjP8ZqY7cQ8CjWxn5FXDm3g07dghUTQ8gzqUnvNgAFCeejnD3q0BIdzNdydrFzHQEfYwEOSaK6OLEcm2I0sR0BcAVmxSBwixYC29BsXY/BLVVsoSpKji1VShM/yjCjsnanc26eKxPh81wtv0F2cYrkU+eglzdkeiccAhaJh6HrdOuhrXl/4BgpwA4La1d3jpRpdv6ISksSvZIHkHnDGReux25+pNgpQ9Ftu6D6Kj7EHbXngu7+VEgv74kk/63r67K/isWqFjg32WB9x3QGTCjS/XBBx/EgAED9gIaAzUjRoxAOp0u25U3FtNWbjLlT7rXEx6DATq6L2+44Yby8RtA4/raa6/F9u3bywfHuDYqcf9KoONYuETtSVXQKHQGMs054VgZ8xd9sG20ffSz//xzajuM/6LvruSpk0K7jnbr5WYit/A2tKVGw0v2QpioQpCoQhivghfrC2fS2Qi3PwuonaISMfBfkgtMAL8hiz38WzrEf3jjLd43lnmjdubzrmu9PdGLZULoXhZfcKgkucMS1c6HsleACp2dOkhUM8SrwMWN9UZx0qka6FQBIRNDmKAgCSOsDadj3FRYCgsQdysJTuemErSIZgQ/FOaiuPCbyKeGwUv3gJfuhTDZA266FwozPg6VnSXBd1Ljj0kT2Ax/4xOwa09B8Or+8Gv6wk1VoTPdDy3jPwp38zNAsF0SB6ir0vErde/ExdvVDv+a16I+lrva+1yY63rvtf6u6Pf2PJdkhtL3QD6T2LlS7T3+kAizCDonIjf9ejjj9kMwtgp+vBp2sg/aE6PhLP4W4C7Vmuvew9Cje7335BN+8IYflo/s7T95s77ezr7ebJs363vPCOXHWHnT8pM9G1SeVSzQjS3wvgI688eR52PlypUSC2ZggRDD5wZY+vTpI8BnYumi8GH64ZqPrlDS9TW3ibYxz6Vxl8+ibc12fM88zD6jr6PvmTZd12Z79mX6I9AR3KIgZ55/5jOf+QeXK4Euai+z7de+9jVQ7ePj9cZi3jdjMq/NWKJtokBnzonZD93DBMs3epj+o/1G+2Y7c+xmDG/V1xt9/nrvU7cKJPbLKytXhBOZ8svfgnDbX5GbchEKiUFQiSpgHBeqV/oGW0gdDnvJdwF3vkALgacc2c9LwCzidhSpqkSNBEk6K+liLG0nlyY3ZEatmR1BJxZI+DvjwwibDIoPWeR4T/fGjmIj9se+pGOiDmPlStm5fMYXQQhfecjDhQULym6Gs/DbcJIjBVapnIXpKriJnrAnn4qwdSyAjMBcGPpyTjhEDokBb+RhCXyjJMfCdYpxiZaUGuFbPFYUFiK38E601R6GQnof2PGBAsWF2EDkpl4E1TETCF2EAX+IUTXdBn/z4/DHHw2M6Q/U9BE3rZPohVzD6Qi2/AkIt4uzVQ6JR8rvt34hqisd6QJhtEfJLnxa2kSKROtSM9pmcgrEiNpG7M6cHmkuLl0myhAg9XwXPA80NW0gC33bPuCHxFjaipDPNn5pGi/JmUbAjGoWS6a9SpmtBGVek2DsYPskWFOvQjhusL7u4j2gUlUopIfCW3Iz4C6QbGw5Qg6OByXXX8n3X/qBYmI5JaigdKLkfJiDk8uStuNYqaLvueZ05nNE9RQ70ii8/gjQHHhpv8ZSbC/X3J5SM/KdNgORcZbayHgY9sAfHLor/T1lpzqAQc6X9Fk6GSWDy7nl+2zITQnCclZKtQpf7wtfea9igW5mgfcV0EVt/9JLL2H06NF7wUxXWGECwIoVK6RZ1MVHKDA3va7wEH1tnnMdbd+1rRkX3zfbct11u+h75jO2Nc+7rs32XEefG4WOEHbHHXdg1KhRYouDDz64vP7Wt74FulnNw7hcjY0M+BK2vv71r5dj6DgGsz/T1ozRjKHrOKPbURU0Cl1XoKNCFx2T6df0Z16b/Zv3o6/53Gxnzkn08+j4zefS4G38Y0L6xTXKGwO5jgIJVTtnOcIVD8Ku+xC8ZF8NdDENdX6yCk66ClZyX1gzL4PKvAqgXcelyXVQSg4oKVZKgsnkxOvSKAQXud27UNxhKfTLV3y/CMVsRvoqyW8KUmAkYPkUvu85UAFVMqps5j5OaCiBhZiLN2He5ZjkwZuv0gWC+TY/D5md68CCI+VCUFwCb8G34dWMRBirgp+qQpCugpeshjvpZIS7x0LJ8RUFQNi13FfJHsx0ZrkRprNy4gefSpMNXzFbmDdr3mwDoLACuZWPYte0T6Jz8sdQaDwDduNpyEz8KLJzv46wfS6U5+qyHLRhuA3elt/CmXAEgpqeUIleQKIKfqwPig0fQbDtTwDochUEKtmCKbUcC69pnsdSnTqOjyU/SskcHLuYgQciiRQaWmhD/QFhS8Mw7ewyTk+ojVCtgc5RPmyl4LJPAxUEXLGBLvHC4je8BLhjKWyj5MoS1VL64wl0lZxrPyQgslQJL8ICVOsE2NOuQFizj6imKl4NlayCnRoGf9EtgL2wlNDDsWq7y0A4GH3q5RIgL7LwjmC9lIFh+RdXn0C60Im8VFRDFwGBju/JJcmSMbzmWCLFZG2XVMTQh6ccqcvIC4HbSBmZElASyD1lC9LbPHZemzxWwr9cMzSJ3q9WfPU5lPMiJ05P8Ua7GaCTDG3uSxiy5PbnCaPNHR4kz43OTveofv5Llci38ceksknFAv8GC7wvgc62bRBYDJQQUgyoGDWI60MPPRQEP1OSgzf+KCTIzedtxHJFIeHtnCOzj+g6uu/o+2/VX3Rb89zEEbIsyapVqzB58mRMmzYNM2bMwPTp02XN9x2Hf6z5JxACUoyhM3aK2uyWW24pA50Z5xuNi/1FtzH9m+3fDdCZ/tiXgTC+F11M/2+05ra0CxfTn1m/UZuu71MX0MUfCAL6l76GpDxUZhr8OTfCS45CmOwlN1MqcyrWQ1x/TorA0wfW+BMRbP4VoDaKziDqmuKNuZxiIUCltRfeZkgA+o4rrkgp++HBU0Q8VzJGpfyJ3Nj4jOBlw6HKI4oOk4So7vE2Tf2LduM5otvTQahyzIcGWG6FrkuWJAktuYmHBMmwCNZ+47aECslKza+Cu+A7cGIHIYz3QJCsRpjsCS/RE+7kDyNorRHI5fyqckMlGID956DQgQBtkpHpsRQKOVQF4HP+RyVK33QzCLNz4bW9imDX/yHc8SrClpcQtL0IL1eP0NtdcukSAhmDuAn+lifgNByHINYLKtUDVA6ZUJEdfyr87U+Vsl71uaO5qBopZWswkZ0y8z0rKixhWRRRATNCnwvlF0R5pPpIG2maJ1xo3BbXMlsJ8BDSNXyLDQKCLF3QxlVK9ZNQQYWVUFZSWmV/PE9FrcqyHaGG4OtplY7n1RMIov3YrgOqPY5i0yVwEv3Fze+lesCp7YVsahS8JbcB7sJyn6L2hp5kW/MKkoLDonLy+uF/vN44Btb2ozqrwUhgTJQ5XjcsCyMnT1zpUgdPgJiqHXGKSFiCtzCArVy4panbtGJZUkjZRwnyeU273J9cd7r+oMCjfE5IpA1NcWuCJGnNBsJi6XzYUHK9WqLeItA/apjI5CqOIURAMJQvLamTx6Cz1v+1ruWufzkqrysW+M9Y4H0JdIsXL8bpp59eVucM2EVhjs/79euHu+66S+qs0dwGEMxzrg2gEAQIisViEZZllRe+F21n2nA7xoOxbAqzbZkMUCgUygBl+jVrAxdd+yLAMFt169atksSxadMmiX3jexxT9GHask+2iy6mf37Gh9nWtO+q0EVtdeutt0oJFLMt2+ZyOTkmJpbwGJnMwDIx5mH6N/sz778boDM24vF0PQ72SzClGkl709YcE/dDl3N0TMYepg++7jo+M87XW2ugY60vDQWEG8JIGLYg2PYCrMbzEMQHQSW1OqIS1QgS/eCmeiJIVUHFe8CKHwin+ZuAPVcH84ucwRsLOYbIpcFO1qoIeNsAZy1gr5YMWXhLoII18FW73rdob6x7txaqOB9h4TX47moEIcuGaDVGboSShpEDwk7A3QllrYLKzYbKjgcydVCZyVC5uUBhJeBsAfx2SWwIQ2ZHEvwp65RcVbkVsBbegUJqJIJ4FcIEFbF+8OP94Uw+CWFrjXYp85YecH8roIrTobKToHINCAv1CJ3pCIJ1CGRatFAUQY1QfgnoPMDeArhzAHs6YM0FvHlAOBNhuBABcgh4M1YtCP0VgDcVav1DCNLHQsX6ClD76SoU01XITToawdaHAHcmYK8HitsBNwsVWvCZmVzKMlasGRiwWLIt/Su0AsFGwFoMlZsFlZ2CoNAAv1gPlW8CrGVQwRb4yEoPFB3FLUqFj8dOqYlfUS7inmQxZKqs9LFyyQBqM+AvAfJzgPZZQNtMqOw0qMJUKB6zsw7w2gC/iCDwwX0Iu/sEdgfKbwPcZqDlSTjTz4ITY6whVdNq2Km+yKZHw1/yFaCQkvMAZwPgbkMYMDFHgyghG+4GKHc1lLcGcNcA9grAXYcw6CwDHVXLkADJq5RwxsQXZweUsxbKXQ7lrYByVkK5a6CYgKJsKWhMNdZjQeiwBXA3QnlrofyVssBdD/gdEhYgZX/CLJS/GcpeAlWcjcBuhhfuKMG3PnYKuOIupzIe7gK81XLtqzxLA02W88QYS1VcAPirodQuhGFBvi9OKTVHu3+N4spfZ/rv4ut97yvvVSzQXSzwvgM63qCfeOIJDBo0SIDOwNzAgQNx0EEHoW/fvmXQI7R8/OMfx6JFi+R8sa2Bh+hzfkiAeuGFF/CjH/0IDzzwAO6//37cd999eO6558puQgICa969+OKLsh1diIxVu/LKK3HdddfJ9g0NDWW1K7oPQoYBFu6P6tqCBQvwu9/9TtRGZqV+6lOfkoV9ffOb38T//M//iPoWdVOaPtkH4wNfeeUV3HvvvXjooYdk4diZLML3o7Xl3gzo6HJlTTs+CEpjxozB3Xffjeuvv16Ojcd48803y3jmz59fBs3oWKRxqf07dblGbcM+zYPHN2vWLPzmN7/BbbfdJhm9n/70p8GSLLQRlcWf//znmDBhwl7JFgbozNr091ZrcUcSjEpAJ3FOnCPTXQl32f2wU0dAxTTMMYA/rB8Cr+EgOClCno6lk0zQaRch3P1yqV6YVuB4WKLgiEuLPyQC+NZaFDc9h8LSB2Ev/iGKS76PzJK7kV/zO4SZ+bpwsbsDQSYFa/2PkZ9/E3Lzvg1703MaBEK6WwmtXDKAuwxhSxr22t+j0Px9FF/7MqzZV8GaeQXyTVcjO/urKDbfA2/d/yJsaQCcNaJISXvjfqXcVFiIYvOtyKdHSAydItDFB8CPD4I35VSotr9LkgLd0GpXDO7qnyA3/yYUZnwexaarpW5dcfHX4W/8HZBpggp2i56jNUTtxlP5Nlgb08gsvQ+Fxd+Cu+R7KCy/G5mVP0B+45MIWIaESl9hNrLrfoPCstsRzLoUKjESqOkr8XNhbSkrdvz+cBZeDGf5bbCX3ItC829gbRkP5e6EH9pgVUCJUaM7TmLUOgF7Cfy2OKyNv0F+6V3Iz/8yCnOuRXbuZ5GZfzUK876M4tLvwNryBPzcJITedihPZwXTXqJPiRpX+lEotfcKUn+PIAm7RQDO3/EMiut+gOL8L8Kbdg28adeiOOsaZOddi8yiG2GtuR/h9ueAfBNUuEPi+ESwpcrktsDelkZ+2YMI5l8NNeGDCOlupjKc6IEg0QfF+GA4006Fu/hrcJfcD6v5MdirX0DYuVwrtITX/Hzk1v0OuRX3IL/sHlhL7oO1+B7kVz0Gp22iLvLM3zAhdV7OwkFYdaBYK3Ddi8gteRCFZd+DteRuFBb/ANllj8DaFoNytgMeXetUKnfD2d2I/IpfobD8HhSX34HiijuRW/YQitupuO4E/O1AZgbCTc/IecrMvRnty+9DMTsJIdpFEeXlp6gm+ruB/EI4O15Ffs0vkW3+NnLzPo/C7GthNV2PwqwvIrPwGyisexjBzr8DWf4g2CHqK+c8oSIsSTriS3+rb37l84oFuocF3ndAR+Ag+BDW6DY0QHfKKafgu9/9Lg455JC9gI416Z555pny2TLwQHDgcy58bNmyBVdddZX0x4SK3r17y8J9cdYDwhH7ueCCC7DffvvJZz179txrX2x33HHHCaQREA2cGOWIahLf475YzPeMM86QLN2u/fC4evXqJQrjEUccIXA3adIkUQ05VjNm7sPUlqMaSZjluDkOJiBQ9TOPtwI6Ht+8efPw1a9+VeLw2I9xz9LWHCOhmWP+05/+VC5zYo7R7OfdKnRR2KUyOWfOHHzve9/DMcccg/79+8v+o25iPueY+NlRRx0Fll5pbGwUldXYqOvYzBjfeE3lhS4u7Uqky47TUIW5KbBmXgsvNhSI8WZKhaQf/BknwJv7CTi1BwPx3pIcEcR7Ipc+Eu7qhwF/nY7JkvggfeM30znRBee3T0Xn7K8gkz4axeSByKUOwu7U4eiccg3CHTVAYQ68LX9EdsHVyE38IAqJ/ZBNfAhW8wNQxTUlNx4Vj+1QbQ3wV9yN/KxL0d54HLL1I1FM7w87OQR2bDCKscHIxvdDPj0S1sRjkZ37aeQ2PIowPwUI20RtkpglKnXWIhQXMwN1pM5yjfVAGO8DNz4IweRTgJbfQnW+DG/NT1Cc9ink645GPj4C9tjhcMYNgZsYDCtxIAp1H4E39w5gdz3gt8ILmUNMt2QIlV+F/KJ70VZ3JPJ1Q5BPD0U+PRyd6YOQbboOYWuTZAt7rTXYPflT6IgfAiexP4J4f4BQzfOQ1FnGLl3dtUNRSI1AITka7YmTkW1+EMpdUUrGsLWrl/GJ1g6oXXVwlz2AzumXo33CSeioOxSF5Aj4saHwY8PhxEbAio1AZ2IUWiaego65X4G7+vdA2yzA267dyYxHLKlpdGK6EtnIeEeCyCKo9c/DmXMrOqacgbbxhyHPsY8bDL9mCOz4EOSS+6EzNRz5hg/Cmv4xWM23wN/xV8BdCUX3NV3E1hJ0LrwbO5InoJgcBpViMoj+4YBEj5IbvAeKqT7IpYaikBiFzpoPIDPlKoTb41B+JxQVsbYxaJ95KdoaDkZn/SgUag9GPnEw2iacjsKaXwDONomhY9yeo6hnMhTAkcSU/PSb0Z44GqXEbiQAACAASURBVPnkgZIkU0gejN11pyG/9D7AWand0jL9xya4a/8HnQ0fQz41GoXUUOTSB6ItfRIKyx+AcidDdb4Cd/F3YE08H4X0McjED0D75Atgt7wMhc1QDA+ge7WwCsHW56WsTefk85GpPxHZ5MEoJPaHG98PQWwY3JrhyCVGorP+SBSmnA1v7k1QG/4AzmQSogMefzBRmCslp7zxd77yScUC3ccC3RboeDOOLsbk9fX1ZWgzMMeb+5133onZs2fLrAkG9rjmEi2cyz4JRNE1+yZkXX755XsBGttyhgPCFJU7owqaft9ozdp4r776ajkejPsisPBB9yXVpn322ecf9vVG/fF9QstTTz1VngGDfRHCompYtP1nP/vZvcqWvBnQfeMb38DEiRNB9SvaB58bG0ffZxFnqpfRzFgeIx+ESAOZbBOFwjdKioiCNV3ZVECjLvXovt/s+ZFHHilqHkGXD47JjCv6OvqebFj+h9cFg8gVQ58QistvC7wdf0FhwkcQjOtXAjrGL42Et/g6+OvvgD3hVIQxBqtTNalCITYE1pwvArnpOj6NQfcSIM7gc+2mYm21MDMRxdmfhpfcB2FNlbg3rWRvOJPPBjY9DrX6ARQnn41MaogkJhAk7dQIWEu/B8Vps3wPcJYi2PkCCq99AZnaUSik+8Gp7Qm/tkpccyypImVHEtWSREB1h0kcmdp+aJl8PHKLvoFwd0rUExYVYTQe7GWwmm+HnRgN1FRJuyBVDT/RD2ri0cDKr8BpvgHZ8cfDie+LgNtwP7FqSaLgPglbbqw/iunjECz6DtBBBYrzHZAdAqC4EIWFtyCXGgiP8Yd0WTObNlENf8r5QNs0iYkLWl+CPfVMBInegABcNZgQgJqeQLwvmO2KeH+oeN9yiZVCbH8piQKnGRInKG7EnACIv/lZWDM/j0LyKFhUtxJ94Cd76ySLmmrg1SpgTBVQUw0qk1aqH/LpUbAbzoD32q0IW/4OFa6CB7r4qCZRzWJsIH8IdEJ1TIW79AEUp1wAq/YQFJP9Yad0DCJtz2OQhcWUY30Q1vSBHe8vINsx9WLY6x8TN7TCTsCejeLcm5CJjYQf31N8mbbltUAXP/sSsBXVrgpOrAoFQveuvwFBFvCKQNsryE77KAo8h7QxXbYs4lw7Gv6q+wFnqwAd4y4d5cKRWEAHaJ+EYNqVCGr20ddBjS7+nEsOR3HJ1ySzVo6ff9uCdfBX/xh28uA9sJ3sCSsxAv6iG4CdP4G94Fpka4+GHRsKLzEAAYtWTzwNwda/ScwpsB0ozoW/+jEUp56LQmo/OT9hrBcQ4w+mavn+8UcVr0vF70ysB7yaXnBjQ2FPOBP+igekxmGIrJ5nWdTrisu1/Ceu8qRbW6DbA130Zs/Ytp/+9Kfl2nPm5j58+HCMHTtWYIfuw66K10knnYS5c+fKiTTqFl9Eb+yvB3SEkdNOO01moxg6dKjADgHHQA4/53OzPwMvXBNezEwNZj+MsSMIRWHOtOGxsB/TN1/zM9M3X7MwLxUw84gCHbeNtmU5E8b1mQeB7vXKlrAdoZUwR5XP7Jdr85z9msW8T3vQFRotC8N98ZjfKdARdmkjKnPPP/88jj322DJYcr9RG5n9m3X0mPnegQceKFOP8Xj5MLY3z/k6+p5sVPqHSEoulXAyBqlTKfEWoLD0bhTThyIc11NuKF6yN4qNJyPc/BOozj/DbboK7rgD4MV6S6C+G+uDwoQzEGz9CxC26IxLiU8q6oB8iYsrIsg3ojDr0/AT+5SVPwa7uxM/BCz6KtTkj8GrGYSAN265gVch3zAc+RW3Q9lrJA7O3/4s8nM+g2zdSDi8uROMEtUIE/pmr+GhBFwEFvaV0uDpJHshn/4grFk3QrWMhVKbtMvQWQan+XY4iQP0uAgAaYJANVA3DOGUY+GMPwhUxuTmSlBhPT4uqV4IUr0lplAKBccHwJlwFrDhKSnMTGcl/1P2IhSab0MxPQxeohpeabYI3rj9yedDtc8AsBth26uwp3wMfqynwAthhAkaiPeBSlCxItT1g6rpIzDJmL98YgQKi+8AnGU625KZou5KBNv+F/kZl6EQGyGuS7FpkkkffeAl9hFl0Rk3AG5NHwRUAWlzgaceEj9opQ6H9doXELSNRRhuE9WPdfIk0STIAZnX4C++B0UW/00MQpDqKa54jpnw4nFfJdBGTW9g3ECghopjL/gsv5LYF+2Np8NZ+zDgzgasqSjO/io6x46GV9NXoH/PmLS9eQyiGsd6I4j1RDHeG51TTkfYytk8Chr6W+PITTsHVqKPwJyoewkm84yCv+LHgLVLK1lMXpH/GHHmAh2NwIxPAjH9Q0YgKsa4xaFwlt0MeFTDmEjDH0Eb4a9+CE5qtHaHMzM6xVqNQ4GZZyOYdwHytQfAifVDGO+LMKmvEW/i6VBbXgL8zYC1EM7aR5CZ9FFYqQHSj/xQiPPHTl948UHyXXET/eHGeY70scs246rhjh2MQt3JcFbdD2XPQaA64DNGVOJL94RyRL/zlecVC3QnC3R7oOPN10DY6tWrQeWp6w2eblAzK8Qf//hHmQKMN3ezHV2FnMfUqGTmhm7WPKEEOqNQmXZcE7723Xdf6cu8b2CCawIX3+cShQu6SqnsRR+M9aLSFm3P5yw3Qlhj3B5j1zhFFttHt+M2f/nLXyRBwPRJheyLX/ziXuBl2rwV0EXHzOMzBZpN+65rA1bRY6R7OZVKle3Kcb1TlyvbmPPADN2TTz65fNxRm3KMdPcyU5fHfNZZZ70hGFMhpZrJHwDv6sG//RLI1AbVOhaZqZfBSeyn3V0JToM1GNnpVyJsHwv4sxAsuw/F5HFSSy0kLMV6wE5/AO7yH0E5i6XwLgPow5AuXJZYYARWDkG+DkUCXWxwGZyYXOE07A9v0gkIE8OBcYSwXkDNQFG8WutGo3M5gW4WVPtE5F/7IvJ1utCxwFqM2/dFIC7SXvASfeEQWFJ94CYILn0QJHsDBKQxPaSuWS5+Ijrn3QmPiQ3oFNXPWXQbvMQwgRopWZImlGhYVKm+8NN94cf7wH91APyaAXBj1aL8qVQfqGR/+LyZp7QS5CQOQth8N1BYoLNj6dYm0C26E8XEIQhreJMnHPZAGGPixYVQnRrovLY6dEy9Dpn4YXCShKRqeCyhUtcDfrpaZ+HGeXxDYaUORCZ5MLalTkfL0ocRemskBYVB+eGOsSjMvAbF5Ghd9iSm3bVOsh8K9aNRmHIarNcuRvG1y2E1fQL5xiNRSA+ER2DicUv5lkHI1h4Dm7BYmCbAr4uZ5CSxwlvxE9j1JyGID4CK9URYirckZEs2bmoIsql9YSUHwYvtg6CmP8JYb4nLFDCLV6NQMwwdE6+As+F5IFOP/NzbsCt+EvLxUfDi/QXUfbr8Cc9yPngcPeElD0A+dgRaYsdjx/Sr4LbH9mQ3t41DYco5cOL9dBueF9awqxsFZ/XDUN5unTPAjFxFtZEvHSDTiGDWJQK8AralrG47eSC8xd+AKKD8gcQG3nb4Kx+BlTpYfoAwvpEQq2IDgYaD4dcfAN+oxTU8z31gJfoj03gO/G1/BwpL4a99Btnp5yOf3kePc1wPKUtTSA5GtuEI2NM/AXfOZ2DP/jTy085CtuEAWCkmJvUEagYANYPg1gxCZ+MpsDb/DGFAhZYZ3roMzbv6W1BpVLHAe8gC3RLoDMQR5MzNnjblVF8f/OAHyzd8QgfjxX784x+XoYJB9FEoMGBy2WWXibuT/Zg+zZrvEehMbB7bECZM2+iaM1Ccc845Mvk8lSTGukU/N+0IkYQKsw/CJJMXjOJmwIhuXCY0MIOT2ZxUvOiWra2tFdcsQY79M0mi6ywL/wzQsc8oMJnXH/jAByQZgmDJeLrjjz++bAuOOaoi8jWLEkdj9fg86gY29mD/r+dyNd8V2j9aJJl9c2F7QvDPfvYzMLuZyhsXPmfSyNFHH122f3RfBD6jypp9RM999L3oc8kYZXCU1OZaD2/NI8imj4FHlx6VgkRvZBMHITf/Dih7Pq8cqG1/Q67xYlip/QRieHN2E8NQnHkVwvY4VNiulSJ6phg/ztgrtCPMxWHP/CSCmn010InCxWmwesFJ94dD9yvjwxLD4MSOQD59MtonXYbCmkeBzpgEwWfTrIs3AKB6+GpvYGxf+InBEidVnHIm/LnXwp//JXizP4NC4ynIpkagmOwLP9Yf3qv7ojhuODrSp2HXrG/Bam9kqg1QXAV70V1wkyMF6KjOEaJ4g0ayGkGyF4rJ/VCoPQZewzkIGs+FN+EEuPXDEYpqRrWst1ZYaqrg1OwLu+kGqI4JTD/SBXDtBbAXfRtu7GA9dtZVi1dJWQ4WFg4zdLl2ICiuhLXlRdhr74e74HLY9fvBTlfBrtdj8pM9EaQPRjjvanhrH4S97rfIr/sziq0zEKo2KJZsyS6AtfD7yKaOgk83bcklbKX7IDfxcLhLvgB/2+8Q5mIIrUkI2mKw1z6AzMyPI187RJRJjk2l+8BJDkBx0ikINv5CMmQ5I0WgtsPb+TyyU86FHesraiVVMCbKEAitVB/YjR+CM+ta2Atuhjfvi3Cmnoti7UGwY/0RxHsjrOkLf8wgWPEPoG38Z5Fb/EeozjnwdiVRXPs43CVfgz3xaLi1veDz2Ot6wK3lzBoD4U87DcHKu+Gu/h2KK59EcfNfEFiLdKkaZiHvfhXW5HPlBwEVPgIq4TxbfwCsdQ8iCKjklzJCpa4egc6Gyk6A89qFsOt6yfkXdTTeAwR0f+HtgL20lEAUAC6B7lEBOp8gR0VX3PBaSSV0sTi1n+gJp2Yg7NTByNSdhNamr8JrGQO1+1V0TvscOtMHirIprv5YL9jx/ZGZeBqsFXeI6qhyUxFmp8BreQH2ypvQOfWDyKX7SWwlVVomi+RS+6J95iXwWl/WbmdmIVcEuuifucrzbmqBbgl0tDVByCx8TXclszcZBE84MAuVLMKPeZgprqI3d27LIsSxGH+17nkY2OI7XV2upr1ZE2QIcnQJMkmC7kzWfmPGJaGO25ltuT++x/EaVZDwxaxRM26z7ciRI/9hXGaEzDwdN26clF5hrbmuj38l0BGMGUOYTCZlNgeWa6FLt6mpSVy1Xd3EZvwEKiqP5vFOXa6mHdVHE6NobMn1sGHDRF1lGZWuD9r22WefxWGHHSZ2Ne1oY14nTDyJljVh++g11bU/YlbA+l2sGcbw/dxrsOd8BW5iOELOZSpKSx/ka0+Es+Y3QLBZZ4lmmpCfcyMK6WHioiPQMdvVajwdwcbHxR0lRYB5z6SHjvF02A2Vq4HT9GkEsSFlyKCqRUWHN8VC/RBkJ30YhdnXwVt8N4L1v5WMPpVJQ21+Etbky2DXDAGoUIyrhhrTG0F8XxTqj4K96AaELU+DpR5QXAxkpyPc8nsUX7sO7eNPQGf9h1Gc+klY82+Eu/ZR+LvjCFxmljIofSWsRXejmDxEu1F5cxZXbg+JVSvGhyI76Ww4y3+AcNeLQNsYYOfvECy6Hn7twVA1vaGYjVmKrbMT/dA59UJ4u0oFl+lyLi6EvehW+PFhZbctoanI6axmXIgww+s9D4Q5mdIL/hyEWx6G1Xgk3GQvuIQS2inRF3b9KQg3/RoIlgA+3YcsF8LQftZ/245wy1+RmXQB8onBQCkbOUhUI98wAlbz1UAnldatCFVnuZ4evOXwtz+OwtSz4MYHIqSqROBOVyGfGoT87Gugsk2i0il7MXKL70BHcqRWzrgdVbQkYW4fWNM+hnD9w0B2ImAvBoqvQe1+Ae7SbyAz+Sxk6o9DcfzZ8GZcj2Dxj+Bveh5B21woh9PkUWHaBnS8jOLMC2S6L7ptCXNWmvAyAv7Cm4HiLEk8gcNs0k0I0CmJAUoR6F6BPek8uFT4qOrRHZqsQr52pIByINcx6715On5UFDpbStA4cy6EVdsbLoGe8XecAi5OoKNLe4kGP5WH8jYhWPEI3NRoiSM1ih7jKoOaariJfig2HITClI/AnXsNglV3I9j4e/i7EggLE2Cv+S7a649AIT5AhwWMow37ojj+OLjLvwNYvB6oJPK7yR9cbYDdCHftt5CZcCiclE5KIqx7qV7obDgS1op7AXczv9YVoPvHP3aVd7qhBbol0JmbbhS4WC7kkksuKQORASOqaqxNZh5U9ZiFSRcdtzHgQSD7wQ9+UI754vbR/rsCnemfa7ZlaRIqPtE27IOqoXGjRoGCbZiladx+VNeoEpp+zbgYt8akhIULF0qSgQFAczxcE9yYLGBcz+Yzvv+FL3yhfJxUtEz/b+VyNduZcVx00UWSWWr6jq7XrFkjMGrUSKOcsQ+On0qZGTddru8kho77YRID4/vMmKJrusGNOz06JvOc9fGoCDIrl+1od9Oe7nmeVz66njfTfu81I7zoFmVMXwf8XeNQmHg+gkR/+eXv1vJmPhDW5AtE9aDahMABvHVwV94Hp+EgUbR4Uwni/VBMfQBu812ge5GzJUhsnsx/SsmgBWE2CXvG1fDjI7T6RxciixbHWdduMJyZ58Nb93OozkmAtwJQPJZtgL8A9sp7kKs/WmKvxCWYqhLIydUfgOLC66E6XgTUmnIdOFYkI4B6uxLIrfoViht/h7CtRtd/CzbJDZKqodQss+ejuPh25FMHi4tP4vIYzC8B6Psi3/BRuGseAqyZCLEbPnJQaiPC3X+F3XQBnMRAEJhY2oUQUKjtjbbpZ8NloL4U7aV4tBxW8zdhp/cvJ1Qwg9OO90PntPMQZiboQsVSPJY10bYi3PwHuONLhYWpNBGc49XINpwAd9sTADaVKv1JjL+4uAmzzpLvoz39ATi1Wj2jO9Sv6Y/ixOMRbmK82io9ewULLxMUFKenY/23JgSLvwE/fhAwlokT+niKqd7oHH8m/E1/0yDY0oDc1MtRjO8j4OsxIYQwF+8Pu/FMhOsel3i+kNOlicOdx9OGMNOEwob/RW7NL+FtfxHINgHOeoCKriTPcPZbhg1kgI7xcGZ+BgGTb5gQEO8JuveZTeo33wp4ywR0mNgQqKKkt7BlqDqA1pdhT/44nES/cmwjFTM7dSj8VQ9BCdCxkLKuEUgPJajQZSbAm3Up/MRAuQ60i1crdF7ztyUpwkdGCkmrYC38VT+BkxqlS92UAFBU7Vh/uA3Hwl30dfg7n5XYQPiMAWUdwN0IsrXIvHYprFrGizJeT2fy2umBsOdcAdXGpIm1ou7q4tgsH8NC1luAjlfgzLwYbpqlg2gXhgX0RDE5FPlZV4GKHiRrWFcz2Pv7XnlVsUD3skC3BTrCSxRgmDVKNYs3awMhhAnGnRloMtuzVlo0sN7c4AktS5dyEmv94PbmRv9mQMfEiGg8HNuYdpyRIQpqZl8cI2ezoLLIB4GMpTXM51H4GjJkCM477zzZ/sknn5TZHqgAslZd9NHVJlGFjv1G+3wroOP4jB1Zv4/2NQ9zfOYY+X48Hi/H9UXbcr+33357GZTfTQwdYTaa1WrGRThj3yy2TDfrzp07JUaPtuF++JqKIK8B2pBjiY7tmKOPwYwmxmKVlLlS+RBxv1Akk8xc/qEvFWGTmRIY5u1DBSthrfsx8uOPkMxLKg2cED2fGgFn4VcAa5pWs6QKajvCbc/An3qK3lZuKn0km6/Y9CmE7TVQKlvaHa855nruBpU2a8ZVWgGUMhS9JNuS7l1v6onAjt8A7hKZnJ1TgLEgbshixIUlKMz7OgrJ/UUJksQHxt6leiAz8Th42x4DFNvlxcXL0muOIqo6CILdUO4GINygZ1aQGQt0KREfLLqbAZz5sBZ/G4XUwQIxBDqIOlONXOJQFBd9Fyo3XaY3Y6EXzkomMVfOYtjNX0MhPlhsRZWKShABKDPtbHhU8xijR9MXl8Na9E0pNyJuQCZrxJgZ2w/5qeciZEFkgiJrkoXMDt6JYPPTMlOEF+slKhABgy7N3MRj4W5/XGrjseQMPeYsj6Z4bJ31UosvmxwKlwkbLAYd6wUvNhDe1FOgtjyIMFeHIDcHQW46wkw9wkwtwkIjwvwrCJd/HUHt4VAS51ctCp1dW41M7RFwlzGhYCaCjc+g0HCGxBTSVkxICRO9kY8fDHvurUBulkAFM2FZLFlm2OBlF1hQ3hYQhjhtmZ49gudCh3Dy+y5AxxqDbZNgT/scgpqhMn8wM6pp32JyEPzmmySDV0I/SzNksIgz/3rwukPrWFhTPgGbSRFUWplYEu8NO3U4vFUPAv4GbasS0ElDFjXOTIAzm0C3D+hClh8O4nIdDY/Fs715AvPMKFX+evirHoadHiXfAbGDqLo94dd/AMHibwKEdP4gEdWxNCWZ3wl35/PITTlV4jxDAh3V5ngVrLoB8JuvhGr7I8JsLcJsPcLcJASZJgTZaQjzjVCtf0Iw79Nw0kNF1aabm22pkBcmnImQNeoE0HWVAbn4Kv9ULNBNLdBtgc5ABe3OuDLOWWpgyKxZo+z1XJHMluTsB0atMYBAtyuLBxvw43bm+RsBHfsgmJnCu9w+OjaqR0xiMGOKrqm8GdjkcbAcB0t+mG2iShffowLG2Du6kakI/uIXv5BpvOj6NA/u34z5nwE6Yxvul67grvF55hgN1BGiOCYzdq6NXamE8XM+3o1Cx8QKxu6Zvk2/tA8TLwjMnJeXC93Cn/zkJ/d6zSxm44o3bdnX4MGD8X8vURXSATRMTJD4aN5M/wHoxBeqVTSCTb4RuQXXIl83SNxUSPRCOKYvvPHHQG25F1CvicrGOVvlZpwbg2DepfBTDHTXN3QvPgCZ8cfB2fAoEGzTrh8BDd5q26A6a1FougJWYoiGACnP0BNOYh/4Cy4H7CmcJ0OuN8IY0ylkKqTWBShOvx5WvE8J6LSi4Y/rh+K0ixF0jJH+6doV3gxZyd8T1Ybqo36TLklOA6ZrdQkEySRXRcBuhtN8F+zkIaI4mpszpzbLN54Cf9vzkr1Ll6Y0F/NyZoQtcJZ8F8XE/giZdFFyPTqJ3ihMPgf+Dp4LlpRRUNZiWAu/iWKKcXc6C5dlODgbhT31PKgcb/45PdmnTP+0Hf7Wp2GNPw5enFmhGpy8WA8Ux38IPhU6pctvsDitJxNf5BHsfgXFaZ+AE99HMlfpOufMF5IsUj8azoxzkJnzGXTMuQ6ZmdciP/1q5Kd/Fpk5VyA37xIUJp8AOzkYYaIPFEuHMOOX7srkcLgLbgFyr8JZ/RCKtcfBZxZx6VgYE+c0fBj+xsegwrWizHGeNLryWbBaVDAaT+aYs6XunLk29Zo/GmlfzpZAlW08rGnXS3kOJmiUYTm9D/zmL0upGfnFIDTIOSI8PW8sM13bErCmXCBAJyoWgTPWC1btoXBX3QsEBDrCvq6/KLVl/CJUpgHFOZfASQ4UmCPU8xzZ8dFwm79RynK1ZaYRujb9VT+FlR6NkN8VTs1GcIz1gTvxdIRbntSuc/5YkvlpS/Ouetvhbv4tihOOk7CGkAlALH8j8yP3hDPpKNhNlyE342rkZl+JzKyr0dF0A9pmXovMrCtgz/wEvPEf1KpwqjcUM6Bpn1hvFGo/BG/9k0BIiKwAnbmHVNbd1wLdFugMONH0y5YtKys4UQhi8sPLL78srlAWomVhXM6+QMWHQf1db/KEGNarM3XKonDERITXq0PXt29fSWZgTBkfBnAMVLFdNJjfQAnXUaBjO6pM3L9Rk6Lbvt5zjpcxaoTZqVOnluHQ7JtAF01AeCcKXXR/HOfrxahFL3uCKadRM67N6Hk4//zzywkn7wboOBsHy42YMZm+o3BmPnujNbc1i9mGY33iicd1bTkpyKxFOSlNIhAiVKcBg6orb4bM2Ava4G19EfnJ50pAOwO8WQqEKo1qPA5q9a0Id/0R/u6X4ba+BK/t71A7HkU473x4DUPgpfvowsPJ3sgkR6C48BaZfYHlLbhvut000KVRaLocVmJfuUErFieOMRFif/iLb9BTPvEkiOqiC35AWUBrE7LTPokC1YhSgLvUwBuzH5yZn0eYnyrwR2z0pVqwDniXuUf5pkN+KM01Su9vKbZPz2O7B+gsAh1nxJCSJUz06ANn6plQbeN0cgOBg+pcGei2wlnyPViJoWWgo/r25kA3IgJ0PeHH94Ez5QKZRkxcZaYsSLgD/pY/wW44XspzSKmKml4Ix/aDU3cqgs1/BMIdOuOEU4Dy/h1YCLa/iuLEs+CzjpnUL9NKII+Lip2dHAArMVAg2k0MhZscDie1H/J1/VGo6wOH07pJgD/PP7MptVvPiu8H57UvA7nnYa24C/m6w+BSZaRrmvFzNb1hN56CcNfvEWKLnqliTyXiCNzzvOoJ4ZgwI/k4YlQbCqWSG6oVaI/BnnG5qGVUoAh0ApbpfeEu/hLgLJSJvvS8t/kI0LEOXVIUOp4HQpmAdrxakjKc1fcB/jb5u8ZCvHrqMZ7UHMJsHfJzLoWd2lfHHgrQ0ZVMoPuWXJ9mjld4m+Gv/ins9EE6iUSAjlmu/eFN+hjCHc+UfgQwnIFFHnn98TrcBHv9z1CsOwZqXKkMCZVdxkfWUk3shyA2GFZsCPKJgSgk9gVjOBkPWUj1g8NZTGJalWN8JN3ivDaokubSh8NlrGsF6KJ/yivPu7EFuiXQ0d5RcGIpEhOUz5u2AReqWSxRwRg2FpU1C1+PGjWqnCXJG7yBAyY20CVr9mHgiApdNMvVQAGBjrF3xnXKcZmxsQ8CHaehMttH11GgM/uhm/Dxxx8XFysD/s2xmHZdocS8z2zT3//+92UY5b4Jpu+2bInpl2tO68V5Ud/swQxc1tAzkBxV+Fg2xmS6vlOgoy2ZDUxbmDGZc2XW5v13s/7Vr34pE9Xz2ESB0PSxx+sqOFcCPU52z8nrrVVwl/wEdu2xUiONQEPXITM8w9rBcKkINJ6KwuQzkZnyURQmnYVg4ocRNhwAv7YPAi6p3hJDRnWDqpnizA9Bm0ztJCoZOkWhKzZdBjs5UMAMyd4SCM6so3XrjwAAIABJREFUVm/xjYC9sqygUTpkZTzWxgs7JqN9xkUopPdkLAbJarg1Q1Cc80WEhZngpOzkNk70LrFRcrfWgpdMBO9T6aWMRfrRE7jrgiquzGFqN9+JYpI35xLQMSEk1hvW5DMQCtAxc5ftSiDMfvytcJd+D3Zy2LsEut7wWex3ykUyX6ckaMiNn0qiBjqngUpOabaEmmqEYwfAqTsDweY/y7yf/J5R4SIYMaEi2PYyrIlniDonEEhoIJRJkWbCZpUURlZjq6TOoFfTT+rQ2YlqOCwUTbW1phrB2F66vArjCBNV6EwMRX7Bl4H8c7CW345cw6g9dQBZKDnWC7nxJ8Hb+gco1SLsost7iBhXUkmFOsXFz7kmBKjLPyo4Jywnn+c5agE6xsBuulgUTFHo4qzdx6SI/eHyWnEWwZfZKhh3x4WhA7y480BbDayp58LhD4ZS7CEVVMbQect/Arg7ZD9hwJxdLlQGMzIPsD37U3BTgzUoMZmCbt74KDjNTIpYLpquOHc91qH7KewUr5kqIN0DIUuKxAbAnXQOwh1/gQpatDopCh3d6AHgrYe17mco1B4FngM5N/yRwsxqUxy7hi7yvigyYzpWBa+mGnasWuIUWQqF9SHDcdyXLuVC2HWS1WhPHw57zeNASHd2RaF7s7/vlc+6hwW6JdBFoYmuwKhL0wDQ27nZR7cx7QgOf/7zn8tB/Aa03sjlyuzPH/7wh/8AdAbq2O7tAp3ZF+GI88tyHCyEfOqpp76uascxG0WMMHPooYfir3/9azm27p9xuUZtw9Ij7IsPY3tzfOYyp8uZ2xk7RtvTFRoFuqhqGN3ujcqW0BVt4iN5nGzDhfticgvVO37OadzMmuVj+JprvsdtzGJeMzaQ2bPmWBRj5HirU1IOdS+o432U7zMAPcw0yHyRTnyodm2J2lAt6gbdj7yh+4ypq2FcXU+JyQrHaRcTb0SBJDfomyddfPn0UfBW0+3KumicaZJ5enmoTD2smaxx119nubK0Q6IvCvED4DV/DXBWa9cwb3xKVzxjuyAzGe0zL0M+qWONdLB+NYqJfZCdfRX83AQw5k4QkEDne+AE6mQDxtPxdm0W/YyT1cssnnKDhrUSVvOdsJIjtXLIuLAkga4vrMlnlRQ6Xi/cg65cIb7qYBu8pd+Dk9RZwYSHt1bouK1OuFAxllMZEgG6gg4mC2xx1zGGzm34kIxJoIGxUjV9Uaw/A/6WZ6FUqz4+EVp5A29FuOslOJPOFjetuHbNLAOcxaBhX1iNh8GpPw5+/Qmw609Ase7DsOtORb7+NGQbTkWx/mTY9SfDqTsNdsNHYI0/CdnGE7Fr8nnILLsXyI6BteIHyDSMgs2gfKkN11OKTBcmnAB/8+MAQUYA06ih/FFI1yPVqtKPCbkqPP2CQ2dh65JyygQKtNfAmX45Qpa4GUu1kJm+nGZuONxFN0sdPF4hMhNHKbSA17ROqHgZxanngAWvZbaFeA9wijo3eQSCZT8rAR3VVu3W55XAuDgmYnhNl8NPDtLJPgbokqPgLLpTfnBwnwRIFRDoHoabHK23parN7WP9YU38GILtz0EFrfKDRrtcGT5AqFsPe+OvUWg4Vs/0UUO1rRpBirOxVMEZvx/sCcciX38Ksg0nojjhQ7AmHI/chJNRaDxJzodVezoK409BbuKJyE8+EdbEE5FrPAm7J38S9sYXAZ9FxgVvzZ+zyrpigW5pgW4LdMba48ePF5Ax6oy52ZvXb2cdbUNIYHFaE5dmbvZU2l5PoTNAx6QGPkQBKKk8fP12FTpmgXZty6QHZmlSMfz73/8u4HjhhReW3Y8GagxE8VgZP8Z98vHPuFzZt7EdkzVMjGAU6IxtuK8VK1bg7LPPLreJtqdK2NbWJmNiksIbAR2LJ9Pt3PXBOViprprxmL65Jiyn02mZmozTvjU0NIBrs9TV1YHXCKcuYz/8PLps3rSlBKm0P2OYeAsizlDtKoXS8byWXaFb4e18EtnGk6UavcBSvJdk37G6PcuJcGYDxXg3lueI9ZEyHSyMa6f6wua0Wykdp0VXEOOBCrGhKMz5PJCfBIWcQIckOGQmwJp5Kfxkf1FOtPu0F/KJEtB5ywVAJZM2ZMwbAaoIVXgNnXNuQJ7B6lKsVbua7GR/ZKacC7/lLzpBgKVXJF5Lx4r6iuoL4S0vhY3pnqMtiJeBkspjYhkqL9aSO2ClRumswRKosOyFRfdZK12ujOukFbsA3fLvw0mPkHiodwZ0tGkf+LF9Iy7X/J4YumAbgs1Pwa2naqoL4wpkxvsgP/50+Fv/JEoYgUaOiMkj2IVwdwzu1E/CTg6CXQJTFmDmNGbO9OMRrP8Wgh1/QLj9eQQ7noW/7VmZR9Td9gKclufhtjyNoOUp+Dv/DG/7C/B2/g3O7r/B3j0GXsc0wJ4PZ+0vkB1/FNw447d4XQyQ2nKF2lFwlhJ8lku9Gv7ZEL6Wa40wR6hjZq2la8Yplg7RcZ5Sr5AcT7gLO4H2FOxpVyMcN1xn3BqgSw2Hv+gmmUqNNRTFZUu3urTjN60d6Pw/FKadDVdq8Oksav4Q8ZIfQLj8xzJLAxOBPKWvA35LFLN8d4+FN/UTcFMsFL2n3EkxeQDchd8GrOWiKvrMiA03IFj9MLzUaHE7M/lClO1EH3F5BzueBxRVXcIs3a2leNBwM+ytTyPbeJIojjLF2Tg9zZmV7g1n3lkIttwv0+/5O5+Hv/0Z+Lv+LHXo3B0vwN/5IrxdL8BrfRZO+zOwdz8nyTfezhfh7nwFYWGhZA1XgK7rX93K6+5ogW4JdMbQjFtjQdmoSsWbPm/0XJhEQOBitivXXRd+zu0MEPE525944olobm6W3RhoISS9Xgwd+7znnnvKk75HgYcdsN0bxdDdcsstZWWPMMeFx2SmyzLHadaMU2NywZgxY2QsPC6Ome5NM3YmD7B4Mh//jMs1ahe6c6PJJaYEibEN3c2PPPJIWUU0Y6EtaeMHHnhAsng5JgIdAc9sY2zPbQlnBNiuD5ZF+fjHPy7nxrTj9lzYl1EPu7aLvjZjjb5Xfi4qSOkGKrd7H7qAsAY5rZIQTYqAvwiFZXchWztS4nh0XE5PBMl+cGsHIVe/P9pr9YwEVvxQ+DWHIHh1NOzYoehMHgyrbj+g1sRr6XglO7EPOieeBXfr0+L+ITwJSHVMhN10KbxkP61mMG6ItcUSw+Au+qqMhcqZnliWMEeVwQHs1bCbv49sYjRCmddUJxXweaHuSDhL74Iqsm4XXby+wJqoKMysdRYj7GiEykyCcpZK2Qgwm1pCmqi22ICzAHbzbbCTB2lFR1QnPTerBroaAbqywsRhyU16G7wI0OkSEizh0UuSIgImRSi69kPsSYqIxNBx2q/YIDhTPwGVm6iTIqjicMJ2tQ3BlqdgN3xIMmgZP+Zy1g6Z6eGEUqFfTmxP5bBTVDFOu8ZSIPasm5BLjIDN2SUkmaInbNYJnHYq0MIYq6VSgJiwzQniVVCAEmBlGZR5UOE0KHcO4LC8CQPsWdokq8dFV/Cu/0PnpHPhjtsfGDMIGMMyN9WwWRh6xjlQO58Hgi2lWTKITjRYAcrbgKDQhDDbCGXNBrwNgNcJFVApC+GzxA3BTGW0e37aNQjGHaB/SNDlmuqJXHIIvHnXAPnx2jXLCe49LjaUz5jNViD7EgozzpYYSCp0VI3dWA846eGiBCuHU3jZ+oeGgCCvgcUI1/wE9vijYdf1gc14Npn9oQpWchi8BTcB1jyEYUFK46hgA8JVD8MrFaMmzMn2KZ77M+Hv5I+M1j0KpGQv05XeAq9lHHIzzkcxrWcykWnRWMImOQjWgiuhcq9IAW8BQmbU0h0s57kNCDdDhQsQqplQivC2CQjaAS8D+J1Sfkim8KsodOU/h5Un3dcC3RroVq5cKYV7zc2dawMI5557Lh5++GEpHvvzn/9c5u/85S9/WV5zqi8G8Zuis2xrYIHxeIxHi5YFeTOXK2d4iCZFGKjjZcF2bwfo2Ib7o3uRZTaY5ECV8I1AhJmfjA804zbHzeOJAp1Rw3hsZhu2eauyJaZf044lXahyEd7MmAh2jPl7+umn91LQovuhe5PqomnDGDoT12f2wTUXzt5g4heZYUyAJeSy+C/d2iYuz5wntiHAsqRK1wLB5itJ5ZSJMTzXTzzxhBR7ZuFnKobSxshwoiZRe6B+Q7erLg9hYE7cQKoFYWsNCtOvhBUfUoproxutJ5z0/nCbPgp/1Y2wVn8fhWX3wVlyP8Il90AtvhfBsgfhrvw+vAVXwGsgaJXmX5X6cP2Qqz8KDicOd1kvjGqbizAzSSt0iX6iapi4oVxiP7iLbiwBHWPchIEE6KgwwmtBuOEpFCZ8BF6in3ZV0ZUosUP7ID/lHHirfwpkZgDeDg1twWogXwd31U+Qmfp5ZGd8CXbzvfDXPwO1azKQXwX4O2V2BqpOGug4L2e1HD9dpywpYk06q6TQ8WZZchn+q4CO2avxgXAky5VlSwhNhBKqbYyhexp2g65DR/ty1gE31QfF1EEIGM+WeRGwxyPsrIO/vR4quwKwV8Fd/nNk646Hl+YUYzouzkv1Q3H8ofCW3gbkpwvI+aEr14VkmRLuvaVwdzyHzJIHYS96CFjzFNCShsovhnJbdUkVus4L05Cf+zVY8SMAukQZq5bS8GjVDoM7/3qEu/4KeIsF7DjvKYpz4G59Cq3zv4aW6VehOP8b8Fc9hmDbSwhzM+G76+H7uVLcZ4eUuMlN/yy8cXoKOgb9Uwm2kgPhNZ0NbH8MKIyFyiUR7KqF6lgIePzx1AbkYsg0nScKMq+RkHFonJ4u2Q/WjLMR7HgS8OcD4RbA3QiVmYlg9a/gTr0ATmpfmZWC8WyMI6Uq6qaHwJt1JVRrAirYJaozj4lA5xPouJ0BQAG6MxDsItDt1n8nJBGHP3DpYs5BZWcjP+8ryNUNhxVjQepqoIbQORj5xrMRbPi1nAuCOuMMCbsMKWARaRb/tjb8Fm2Lvw9r5S+ArWOB1llAbiPgFBEEzPjVmqP5m1FZVyzQXS3QbYGOMMEbtYEaAwVcMxmCxYO5DUGCUPB6D6pnLLxLADHgYvqh69LEfbEtwYzvmc/NmgrduwU6xpyZZArug9NVMSOUiRbM0GW/VMYITVG4JOy88sorZVczx24gh6ValixZIocbdbl2Pb63AjpjE9MvYYq14Ki2EaA4YwRj/KgyRs+BaWfsw5kyCN7m0TUpwmzHNbN7mYBBqOX5+8Mf/oD169dLU7pNo9N4Gbjj/gjvHBPjKXm+uTAOkWogZ4pg2RL2z5km2AfhlNOprV3L+l7mQfegAbpQZ2eyhIgAH6GJN/BVCDgfZfIUPR2XKUER7ysxPu7aH+pSIt4mKHeXwJIKWEdsO0J/O5RajaDzRWSbLkY2NkBufowj8pO9YSWHw5rN6a/Sungt3Z3ZyVKSgcVUeRP0S4HgzODzFt4IeEu0U3MvoGMqYhFonwxr7o3IJkfCS3IS+JJLLFWNQmo48hPPhjv/TgRrfo9g09Pw1zwCd8GXYE84CXbsQFkKscNQGP9h5Gd+FpnFP4bbNhkIW2VmCbv5W7CSB0qZCsVix5zMPc4YujMRto6VLNe9kyIo8f2TCl2cMYkEunNllgIqMWHoIKRLEi3wNv8ZVsOHJQheJqQnnNBmib4IJhwJd95lyDdfg8ycq9Ex+RZ4a8cA7gaErQkUpl+NYpzHM0CAgckeXrovrIknwV/xQ6jOFGAv0AWcvWVAZjLUxt/CbroKmdSHYSWOhl9/EqxplyDbfA/clkYg4MwSTF5Yj2DDk8hPPAc2iwtLAo2OC+Qct9m6UcjNuRzOmgcRbvo9wjWPIVh8G+xp5yGfPAyFmhEo1oxCIXUEctPORev8ryOz/jmExU0aGhWniUshO/PT8BODJFtXl5Kh27Qv7LqRsJrORmHR5cjN/xTapl2LwtLfAMUVcp5QmIT2WVegmBqoYzVlCrseCBK94NaOhDfnUvjrv4tgy88Qrvsx7AU3oTiedfWGI0yygLG+tgj1fO4m+6JQdwIKix5CmKenoxPMcg1XPgI/eaCAH2eziCp0GuhaZAo8xgdKjKD4k/8fe18Bn8WRv3/X//Wkvxpulbvr9ep+d3W9a68uUDxCoDi0RRJC0CAhQHF3l7ZIILh7kQi01I22uMZf3X3+n+c7O282aThoIZCEefPZzMrsyHdmd579qg/w/wj/t8OQvfpBZC26QtzKgBbMC6+CP+l6BDa+CIuh1rJXAL49gP9LwLMDOLoQ1qdd4V3/MLKWXIe8pTfDt/YJZG0Lw6nPhsOb8bmoWVDMzcfc/AwFSjsFSi2goziR1qUEb25QwP277rpLXJScaXDIoWH4p3LlyoXElhrAUKGeIEL/COhOp0P3awEdwYsWrxJ8RUdHF+gPOYUU/zKyArmNBDjkhlG8SUfDBJPsL0GNpgF9wRE08ccydVQG5nHnOxOgIx30pstmyjbRXx85gTQ40OJunZeproc0JDAjuNI/csbot0+X6b6P56644goxYuCYEHyRE8kf3aaQ00oxM/O5+8M20FE0df0GDRqEYcOGCfBkH9lO1qHr0/cSTGtdQ9U26gUR0DmK/HzJiz9hKjR5AIZIyt6KwEeN4J1XHaChAsNEMQTRgv9DzsanETg2DTYjFgT8IfcSNKTgYqGMKjyw/WnI/OQdnFxUQywkhSOy+HJ4Fl2B7NUPIfAdleQJNGl8sRqezS8gsOgKAWSMl8poFHTM60+hlSt16FQ7+c1Cy0WlfxQAfN/Cv280Tqx9GpnJFeFd9DuJgWkv+S0CS+iO4yrkLbkO3uW3w7PyHuQtv0WC1/sX/kkFg6evr4UMTfUbHF1WDUc+qg3v8cUi3mMs19zdbyNnSWVRcLdpfEEOXZJj5XqMfu6KsHIN/nRuItckui3RHDoadtAxMsXjVAo7Cf+PM5C34gHQAIW6gyFOEI0vkn4Hz5Irkbn8Gpxcci1OJd0B/ye9Ad+nEkUh8M1gZK14Annzq8Na+AeluC9i2yuRu/x2eLe/Bv/eNsj7sj3yvmwL/64G8K9+BN7FNeBbfDUCS/4Iz6I/4FhyNRz7KAy+Y8mwrWMICpcyC3bGemSnN8OpFQxDRf+ANIqh37rfwpN8GbKWVkDWitvhXXU/fMv+Dt+SqiJetj/8k4hoMZ8Wvr9FxpKrsH/1ozj1xQDYeV8qS1c7A8GsFTi5lU6oyQFUnDJaNtvJl8O/6HJkJV+Jk8uuRsayq3E8qQYytobBOsXYvCcFBGWktET24qpisUtwTkAr0Sbm08XOtfCsvgF5a26Gd+WNyF1aEf6kK4EFfAa4KZ+C1D0kWGVM35xFlXF8Yzj8J9cqUapvP6zP+iKwuDIYKYM6d+KMmnF/KXI9PEX8NSqDCJnMwmcjx82mr7yMbfDveRenlv8NuUlXIMiYuHQTNP/38CdVQN6aB+BNrY/Ap9EIfNoF/j2t4dtcG76lDyC4+Grxexdcdhlyl12N/atux6G9HeHLTVWhwor+3tevLJMaCpQaCpRaQEduFt1hcIHWC7YGB7QM1UYN5M6djkPHUaKi/O233x4qR5dFwECgpo0duPgzzJQbGHD/fHHoKCYld02Xr0GRPj5dyvbqvLTQpc82cvD4cwM6dz6WdTaAjuUSEHE7Xf08r+t375Mubdq0CYFLLXIluEtMTPwZECyqfDr+JYDV40dOZVRUVAEgqzl1Rd3vPuduI/XxGGc39JPPcwI6gjn+OYr8oi9EZEdrysPwHfgQeaufhIcB7sXtwm/Ea721sDrydjVCMHc9AsgUdx90QcGNzvXFGlFSipD2I3BwPHJXPYTAvD8CC7joUjR4GTKX3oC83W1ge7aL+InWtJ7Nz4vvNfGLtuQyeJf+FrlJ5eDf9ZbisNi2KNIr61RCOj/En5ydA9uzC94veiBn3aPIozPfxQqoCNChUrqz0dUERacQx7jO4kxuC6M4LLkC2RsfROCHBBEJirPhvK+R8/G7yFpSxQF0ylrVl/Q75K17ENYx6jQdc9yWkJakIcMxKUDnc4wizk6HTlu5KlAWSLoK3vXPiB86ccIrPvg4YlmwjiyAf90TkCDsSeR8ksum+qHCYSkXK+R0BpLLw5/eBLZnq3IAnbsDeXu74NTSf8C7QBuTKMe3rDMv6UpkLS6PjOVVJGi9L6kSgvOvUP4HKUJMoiuMq5C17l/wfJMguoi2nSNuYQg4CfQDR2chd2cd5CTfAAHOdHPj6JIJiGLw+IUMJP9bFR6LBi0UL877rbjroKuNY8tqIDO9mUSsEBF4kAJGD6zs7cjc2QKehVUUh07EnxTrK0tn6hSSHtTdCyb9AbnrH1FhtnAEsA7A/+UgsdYNzmPUB8V18y9mXuWXT1yz0GLbEZfSCjaYVB726ptgr6gmIBhJ/09FDmGEjsVXIGPji/CfSBLjE3gPwv4sAdbiKgrQLblMPoiCiy9H7trHEDg81QF0DEEXhB20QCMdH6236fzOfwI4sQjZKXWQkXw9guREMn4ux3nJZchd/CdkLy6HvEXXISfpBpxKroycBRVgzb9WPWPkOi75LbKXVhQLcM9RGmEwTB7Hhg986G1gdgwFSi0FShWg06CA1GZEB+1s1r1YE9TQaIA/5teAjvvuTY8YuVk63qkbAHD/oYceEkfEzPu/dOhoFEF9L10fU/37Xzp05ChpDh3DV1FPrDBHyQ3EuM9Nt9O9T04lnRK7IzoQ0Gl9NXc5vP/NN98MRW9gW3kfuXnuMpmPXMnBgweHHDfzHOlNIMW8THnsvo9cNFqsfvklg7kry1+Og6YLQbRbfKrLZMpNl0WDiu7du4f0E1kWxbe0QiYHz52f97jngS5Dp8xLkEmRNi1fyZ2V9oiSnEyW/PlBbTRHjKm0zjNh+b7Gyb1DkbnkTvFv5Vn2GwELXNSDyffD/ioRVuBziEVf0C9K50RzWmpE1TZBd7QqzF4B37b68M+vAmve7yXcFDkWmcnXIGPTywgeXwTY+2BlLEPulpeE60IP/P7Fl8NHJf+FVRFIaQbkfiocOQfGSbB1sdAVFyuOf7Ks1Qh+0U1cQ9APnUWuhkSQUNwUOL7qxKnuQuUgOZB8mXCRshZXRM6ap2F9PQDI3SVcSnKc4P0K2Z90RMYSxnJVvu4IEr1J5LY8BOvoh6JrR92koOgjMsoGdft+gm9vNHKXVkFg0eVKXCvB3C9H9tonYIlRBPW6grDzdiM3tRVyyTUStyUqHJU/qRzy1j0Hm4HskaelcwAtQLPWw0oJh3/xdfAt+AM8yb+DV/sIFKe0/w82fZ/RZ96ia3By6+vwZS53Ik4cg5WzEnkft0X2itvhSfo/+JL+KJwoOq8lJ5XAl/cG6ZyWLj4IfCS82O8kQkNg9SOwvugKZG9xjCIsGX95BzFAffAL4NAU+D6qh9ylfxMRp2cpoyY4DnPFBx65nZcJcKKBBrlZ7EPu8j8gY83NyEppjOCRZNEPU2CEup70NfM9vF8NQt7yB6TdWp9NrJypPyk0/B0w7/dgxJCTy+5C9rf9YVMvjkYERxbDv7EuvPNvQHDB5VI/rX79AioJLGlZ+nuJDZyz5P+QteTPCGz+D7A3HP6PnkLOoioIkGvGjwO6sFn8/5Cx4SkEjn6gQsh5fxSRqy+5uqgAkHtIv42MA5u99ikEqUMIqiXQxYkl6jJ+Wl0T0PHDSsx/98E6MgG+nbXhXfY3eBk1ZMllyFn6G+TRJx3pSDC84Lfwcpx4vOByWPN/D99CAvLrkbv+BVjfjwJd7zAeLuh/UT448t/Z8tIy/wwFSiEFSjyg46LLzQ0IKH6jyEwv6O6UivWMn8qfvkcDiaLGh3kYH1WLL91l0ccZnRbzR2D23HPPFVknRaUEdPzJy9sFXsjZq1mzZpH30WBBAzreS67iwoULBVjddNNNokvnbk9R+wQszMs2aJ0w3V+KpU/nA+/1118Pcc9YN7lfRQFbWvbSiICuQairph0HF9UWgjtyGSkKZ/QO/dNjqNvFPlM0esMNNxRJF10262JZmtvK8lgG20OjlgcffFD04nT+06UEhnR70r59ewHouh1Kx9L5OOf7XDbCIypW2wIWLAIY+zi8Gdtw6KNOOJV0J/yL6OLij8hedAUykm5E5pqasA98ADtwSOltWkElJiLIkPivShdPjASoyO9Lhe/TrshMvh/ZCysjb+GVEnoqc3FFHFv+CDxfjgJ8nyN4ahWOb62Pk1wEF/we1oLysuAen38HclObw/ZS5KrirNIyVqxjRcRLe1f2IFesZq3sdPi/HwPvttfhWfkAcpL+irz55eGfz3BV9KRPy0b6zfsdfElXIC+5PDJX3Y7MHfUQ4OKXkwI7eAJW0I+g5Yfl+Qon9/TEkaX3wSthr+iu5ffISCqPU+ueR/DQMiDoEfp5kAM/6UAui+cIsvd2xZHlf0XmokrwLLwKvgV/Qs6Ciji5+nkEDsxx4mr6YOXtRVZKNDKT/g7/wj9KJAdvUjmcWnAzTq6tC+vECgl5xUgXPq7JtPYNfAVr/yR4ttRB7pKbkbX4SuQt/i0CdChLx7ILfi+i7axllXFs5T04tqMZ/CdWwSbYonWw/aPo5jFUV+bmF3FyxR3ISq4GT9KfxPGwPf8ycTNjL6RvQUYhuFJi92atuR+eHQ1hUVyes1X6QGAtY0InxnRHQuMNgvnAXtjHPoBnbydkbHweJ5fdIgY2gfl0Z0Jlf+Xqxk9RZPJlOLX0Tzi+qgZObn0Kni87KR3LgHb0q3COchF8DFbGSnj2tMWpVfcie/HVYuUbpPiVXGAC+YUMbl8B2Uv+hsPrX8ap78fCor4njUo8XyL4zVjkbqiJvEU3ij6kfxG5cAoQEQR6F/0fspZVwam1DyNnRxtY+6YCJz+A/+suOLH2UdFBpM5e3pLf4uSSP+HophcROJasLIoDXyP3q744vPQ25NKoJ+n38C36I7IWVcfJda8icHBcREKeAAAgAElEQVSGCs3mRBdRHGcxT1LGNQLqfPIxYR/9EJ5P2uPUxidwfPX1OLHsCmQn05HyZbAWXC6glaAusPD/Cbc1K/nPyNzwFHL3tIV1eCbg3QvbykDQ8iFIwChfXQbQ6fe1SUsvBUo8oOOiyx8XYYIl/shVa9euneiREWTRNxs5L9znQq8BwNkAOpZHy0pylAhYKMbV5dEhLgEduTlHjx4V9yQ6D+t7+umn8d///hcTJkwQowW2keJOd1vpVy0+Pl7KZn59H+uh/p4GghpksD0Ej/SjRp0xOtslcGH8VnIkK1WqJDpsBE4si1y5pKSkkP82lqPLInCivh2jX9AQQPeL91EnT0d/YH7uDxgwQPIxLzfq6dHiVvuQo1iY9/Eao23QgpV6dASUFGN26NBBgJ/O726LDJzrH8HmzJkzhe50i0K9PJbHcskZZfzYhIQEsdilmFaXpecAjUnYHgJD0ojOl2mcoZ0GEyxSl5JjyAgWBKSFfdwxlimhjwhZCwA6+sKnvSuBAlfkE/Cd2IoTewYh56PWCJC7tr0mcj+qicydzZH92TAgcw9sK0+c25OZwCDrFAlS1Mi2qwhanMMUKR1E8PAiZKdGI3tbPXi2vQHftjeRt70uTm5vBc/XcwHv9wjm7cbxLwcgY1cDBLa+AHtLbfg3N8GprS2Q891gcdYqzQ5xnxVwVMiUlrqkG0NE5cG29oklZODbofCkvYvszTWRufphZK28A1nLb0XG8jtxcvm/kLn+BXh2NYbv6z4InlwEBL4GrAzhZhDM2XYebN93yPp2Gk7uaA3v9jcR3PYK/NteRta22shM7wbreAoQUO5QvOJXL4/O34C8XGR/NxvHdjVF1vaG8GytCf+W15C3tQEy03ogcHIzLOYnX8/3I7K/nozMLY3h3/IKAttfgW97bWRua4rM9P6wM3YAQRpF2PBbxIsE3hkChK39s+FNb4dTG1/AyVX3IHP5rchdca+IuXM3Pou89EiJPuA7SkOHb2Bb2U64KTooPiGRQAKHFyHviwR4Upsgd9NzyF79T+Quvxu5y+5AzrI7kb36X8jd9Dzy0prDt2+4WCRzzECXJuTM2uRNBhEU0Tu9ttBxM0Xu9J23H3beTgQOTEPe3jh4tteDZ90T8Ky8H54Vd8Oz4h7krnkAWeseR/a22sj7JA7+A3OB3N2ARUtQr+jm+a2AuC7h/BIOpXUA1sm18H7RH55tDeBZ9zhyV9yDzGV3IXPVP5G3/j/w76gP36dxyPtpGvzZKbCtk0rvknqied8g+NNc+NPbIXfj88iiM95ldyNz6b3IWP4AsjcRFIXB98Mg2Ke2AB6GUjsAK2sjcr5IQM7GWshe/Sgy1t6P4xuewom0OARP7AKC7PNPyDk4A0d2NIVny5sIbH0Fvh2vInN7ODL29EbwxFpxq8Inhc8K/QXyk4SQjq54BHjx/c+PA1rOZqfCd2gWcj/rjNyddZG94Qlkr7wPOUvvhmfp/fAs/wdyVj6KvC2vwbP3bfgOjoGVt1lxC2lwZAURoDqOqFkYJTrXq9nslmIKlHhApxdwWRQDygEqF3iCOga+J/jhRk4YU4oZCQJ5n97khVfEIPE887A8+ndjeRR9cmN5TAnkCNK4cZ959DVeZ50EJ6yTlqhuAKrbTCDB+7777rtQ+Twm8GH9uh3udup28V467aUbE3LvaM25aNEibN68WThVGryye7xfb2wHN95PjhbbqfvGlOd5Xedn/9ge3TembKPuvyYfdQp5ftOmTWLpumDBAnFnQvEqnQ/rPuh+6fvcKa/xx5SiXgJqAlgaQLBf9DvH9mm3JSyTbdVl6vtZBseOZZAjSLcq8+bNA9u0dOlSieHLfhR2tZJfjlowZNEgMmKzSEMnLBK5BPT1hWAWLO83CGbvhJWzHcjeDGRvgJW9DlbOR7A8X0oeLkBeSr8EYHBcuYBz4yKlvPSzTJvuGHwHYGXvgJWzBlbuKtjZq2Flr0Uwdwcs3w+wghkIBA4j4NsDK28tkLUUyFgFZGxAMHsjLF+a8qElSvd63ElTbqoz1N0KEmTadBBM1x6Z4iTWzktB8GQy/IcmwH9gCHwHh8B3YAx8B2YgcHQ5rNwUMcyQkFSWR4ESOpW16CA2S3yDWXl7EMxeDztrJZC1Gjb7kbMWwexdym2KRUBHSJMnnBC6iyMprNwfEcjZIfFkxZdc5mpYmRthZe2GHTgiIcnY2gBjhZJrlLURNn2o5ayEnbsWVs5mWNl0uXEQNmOx0t2PjBPpSmtk+lj7CXb2LgSOLYL/0BT4948Vx8LBn6aKSxU7Zz3g/1z5bxOOEP2d0QqXg+cMoC9bQDWytso9gcOTETgwEoEfh8K/b5g4ErYyk2DnbYW4GaHivt+GzX5yEwvpoETgIEIRFUIJUcqx4kzJUD7R/GlCQ+vQTAT2jUbwhyEI/jgUwQNjETw0B/aJ9UDON4AvU4XCol4mQSx8SrwvjqGd8Goc/EAOkPMd7OObYR34EMEfJsD3w3D4DoxC8OhsWJlrYdNKl3FtyZl0XMsIbqL40Ucr5nQETyTBf2A8/D+OgO/HkULD4PHZsPLWA9ZX4ookyHcs9XUJ+L1fInh8GYIHZyBwYBICh2cjmLEdtveEEqHamQgE9iKQu0F8HIJ+DmXObEIwl2O/X2LTErhRk5WgTpkT8Yh9zZNYJZxRKqYyRfgZgOdr2BmbEDz8AQI/jUVg3xAE941A8MdJCB6cLWoL8O8E7G9FZYBAjnqtgq1VJeq5d7+gzL6hQCmlQIkHdKQrF3Quwno7E601SNH5NcgofJ8GCqe7rvNrAKCPi0p1XTp1t6Go/PocgZQGVkzdwEXnOdtU16n7xbb8r5+uj3n+V16Wx+tMz/TT+XRaOL8ui3Wf6afr02XpVJehr5+pHF7X9zLlJuckxBd9vhF0iXv+kAd9YiK+76WVBApBRj44KZaVBEcSkYHGEsIBIzfMwQIshsXLzTwg54iLFIN6qbj39MqgOIMs5wQsHEfQKVviMQhnje44yF1jHooE9UantpkqlqbkywflwqiR+jXA42JIXqMXAcsPn/SJLWG5dJJLB7hHlVEA96lLRUV+5EnECC6jcg/LpChXkAp1RbPEcastbc4U0GbRES4NE5ANy851uIPkVCkjDS7CHC+GVyP/Jb8/ucJFVMCXdGQ0ArqNIY+GXE6GKMt1IlgououDZ3JZCFhtJVzmOMn0tIOwgh5YVqbymUcxJ0NjBehMlg6FCUjJOfUJMBIVKg6RWDQ7KY/JWSNnU5zUctyPy0aacczyt1OqjRTdsQy5V6UyeQjyGKYryGfIEb9yHEhT4UFxLOgM9ygsmzpk3PbDtg/KOTVOSnGfbZTwprQREP6fQsmkKyNHSP3SDx6QE8zxPAoLB2Bhv2q/zCeP6B9ColCo2LYEnNJeEdmTs3sKoNNh67ACfwSA5F7yA4FQ0mZkWAJvJ8KKxO3lB51zT/CQgGtyK4mTGS7MJ/P2FCw7Rz4yAshVBh0SSoxjSetwx3dh6ANLjSs/iTgfpZnusdL10ggHhxz60ffdSWeOkracQ374LSWelzF3xkoNBOfkmd9tZ/OeMXkMBS4mBUo8oNOLNtPCi7JaIPLPa4BSOK8uozCh3fl0WTqvvsY6Wa4+1tdZFvf1ptvGvHpfX2Oqy+B9ha/z2H2ucBn6WlHtZ9n6ur5PH+trPNbndB7dNt0PXne3zZ1ft13fo1N3e3R+XWdRefQ5nYf3sGxu+sdrbpDLPO7Nfa+7PPe+Loup+zzrYdn6nLTZceIraIDN4MaXvbOrgAIXZII+Bkj3wc+Fh3OCqzIXcI4BgYXWxwkBOlUW0QL/CK1ElOQs7LJAC6/FA/75BMiQ20LfZQzz5IiaHXzIxYybimJB0MN5+XNAp3G3xKYV/aCAYzFIvUAu/s4i7uqvWswV4FDN5+LpR8AJ96TKcgAa+ylh2oPw2qpPZGwRPhJgKXEze0tuikYaNEJhMHm2W+n4cZEVvT+iYU0zH9EKuWWiGCc66x6b5g8QcCnMR3ZQxJpsB9vJv6CUpcaCwFBF+9BATQZU1+GMsUVuF0WhjLggzVTjSDEc+ankCtHIhWVTYiycQDXkUpfQR3iKjL/LsPUKprN/tlhqkjWn5g2d5CoXKxyLoITR8osontwo1sjSfPDZQdn8tsBpoTP7KGXKs+6Mv7SRZcsMFXjHNrAV5HLpSUxYyvYztgTHXkCfIH/qDGrOpDNPSR+2Xc9PfngIkGc/lCsRVqcAGmeAR4110BIOpJNFiUkJyOlSRsZbPVZsG2Gd11YfNxKGzQG3LJP3yzxwp9IG1qnmO58z9dzyGdXziM8lS+cHiKXGKfTMKPpybMS9Hbsh/SMt+PBKKwygc780zX6ppUCpAHR6AZaXtcMp0uf4cHOhlheHC7joY31PUSOkr8kLQl52BYGPuw69z3L0vjt11+c+r/d1HfqYqT6nU31Nl1X4vL5eONWg6HT53W3WeXQdhcsqfKzz6/OFj/V5nbrL5b77VziPHrfC5wuX4a5Tl8l73PncZZxu310OOUbCddLaclzk2FwNcli+wAWCA+bVwE1FcQiJ6OQCQRXBCYOWM4g5fWdx1XDWVSlaGVsQhAlZuOb6HNcmFq35eD8Bk1pkbOo0EdhxgXUWJ4IK4ew48Tw1YNP9lS4IMFFU1+dl6ZP2KHcQNkGtyJ2ITpwbdL8VPlCcRdYvBh5EuGplZZkaf3ERls0pQprOvhJkCrBQtJOVWoCNdkmhRLF+AUwEOo4YjTTxBrXMWrhaAbqvkHHgs1mQ88UTSm3eAXRc4mVeEIBwTBTXSowTBDx61NiwK+wnOa/C4VFgUAFN0XwT4M4wZ9zYgvx+sg6WrUAtgRg3ARoOoFPXCcbJ7VTcSuozkusooFbEvM48ccac5XH8fYyM4oAwQjwCFdJSjbXD4ZSxVH3kHONMlQ8N5MCHHAGinIdCMGdsnOF3+u30nTqRDrjXc1UNrgyic7tWHWBBim4C+OTpoAjeqwxeKHlVmE+KEs6wcGf5LCiwRvoqcMwPBb+0ReYMp7z72ZPnxkFyet4J546VcO7KV5TQhP1k3xWgUx8YVHngeMk85fMmUJtzkh8yfG8oOoo7GeGb88kyHDr3u9rsl04KlHhAR7LqhUmnmtT6uHDqvkfv63sKp/penU8fu1N9D8+dbT6dt6j8RZXnPueuu3A5Op87LSq/Psd8Re3rc0z1r/A5fXy66/q8O3Xf4y6befS1s03d9+g6dJnuMvQ1nV8fny6vnOd64ShdKx06rgBuQEew4BdODZd4YcbJGqMXGmcNkNs0rFDLiug3OeJAtaiwLiX+FABBEMU1JMSi4AKrFxkuoNwIGsiVIKzkUhTCh2rpcdqSv9Dz/hDuEhJoGqkDVwGCjIiehO/kpA4XhtOBGwGPw4FUleu576pDN0ryKtQpokq2gz2mDp2AO0EdapUV5hH7w0XYK5wlgaws3ilPAIDTDtGj4qpP8BFQnKCQLJz5pS51q+yzKkEJBEGqSrXk5wrY8ZGT4wy1dFLAleatkYaKQyVzRAaP4IH1E9AwpZiT1svkcJFmTmFSLw/VrCLfUon62E+OIcEt73fQi5Sn0RbLUPvqfnaMRFV5VVvy6aOQCvOrzqsaCTAVANXzmWMRopUAd6duVuc0W7iqnF/6nNCdneHHifpTYnvSU80xdS9r5WASZCm2pYAyNktGn/nJQXRdZ3tEpMsPBUaAcNrHYgRgy0tCoTvhMuqHhDR3EGOooYr0Qn9nwqqnkH10TQqhK+/Np73QU9qoniz1dKn5rd8dJjUUKI0UKBWArjQS1rS5dFBA4QbXy5wLhl7UZFEmh4biL37nK+Cg1wtmk6XXtS4RGhAGKjEgl3F9DxdJZ4FiqhdbvZjJYpm/YKrlnEuNC2g5hekFXK2C+W1XC27+cYERkEazb6p/kteBinrhVimBJBc/tUgLLdh0B2wp2rAMntQLsCOHC3VWAS1VnhK9yjrMW6R6B7CwDF2us+vwMYXeAubYCYIR4Sg6LKAQ+FBLuAJ9ejCYnws4N1WfGhPyu/wi6pRxDLXDGVXpi2q3u02yz0aHOkDAoDdFS0UHp2+hUxylfO4ucYWQjP1lXa5+F9hXA6/qE2I5nQhlyr83f0xYKQtkXzhfXHXImLD9vM6ZyY1/+iOB+wpyqvP8zzzU+GTd7BdzOxwumVSsgJd0RxygKH3iHFYliQGDw2GUged1aQ/H0fmo0eR3OOKKP6q4nwLipD8cSwW088kgDXMR3TmWcXL6r5sn59QYCplU80Nkcg6lT+afoUBppoABdKV59Ezbz5kCsmZyLZAljouWAlXqbc/VhorxVP/mUsP1SOXkksU9+dNcHdeiTcCkRHju8rjwcaFUCv3CfaNOm5RClyAEUmptFt0yqUNzOZz1mo0Q7gW1yti+/N//BHSyEurVs+A6GFrvZNnWokQtqFKtY9lSBFPh7BEm8RoXfyq3k0aqD5qmXMQVd0cBW9ZObhnFbSHAqIgqZZOWSvWdnDsVNF2AgOAF0lGPEoWc/FO8N+EU6UqlPAcwOGWLmE3GzxGtCvAgXtFArTA4KEgfhQv0uDPNZyipotRMyM+hoI4ABSlatV2Pj5DSIaduCpvKfY3J9JeAKpl05riosVAzT5WZj0pYkeqwzGE9TwvUo2Yx/4dAu3CwSGACQXLV8kXIQh9BoS5Orhzng0qF0Hkvy1TgTz0l7ApHhmPE+eGoD7CJnAisktOdIlDpneJuK81BtsEBsi5iC910v/Szx2dEONpOmxxCalyn6atTjommj6DVEAHznyOzZyhQWilgAF1pHTnT7vNDAb3gyoJJMZNamNR7nhedxcxZNOS6LFU8r1emEHtJrfTOaeEqyILjWlVFCZtWd1S4pyI3l2qCIlo7UrTk5JXVkYsaAR03hzvFlUoAHYEhV6/8nwYM+Wfce1zGCAUEZqjVTxZnjUJZrl7sFJhjq5QtI7ls6rqCHey7grYKgGWDFosahMmCqVZOqUfVrO6Q/KKM76KJrLb8RwhAy1ZaYYr5iMPWYsv1/QrIsRzqTmlxINtFkCKLu17NZXFnPRwQlklRqeL2hFCZzuPAdUWBgku9AgOErwpGqjFTAkcHPwi84Jl8TpZDaRlPIheCJbZPned9emPruLEezcaT4XdIREoraivoo8Gd0Fnu4X0cH44lcyoopdqrxlJ3U6aPHnfdAH3RxXlkFkFc8gFClzfcKGbmXC80dsJdVuPD8RDA70wr6gUG6FwanCNKn046LkWoTwIFVRVvTv1XIuDCY0T68fnjpmmi6OKMl9BAX5FPrQJFqO5yLqk8iuJqdN1Pitk3FCitFDCArrSOnGn3+aEA10GHk6RAFhXcndVVFjW9UDqAJsQFCfFJCiymShfKOSWiKqV7FFq9ZaUkcFT6Y+TiKcV0lse8bjGkqlst48o6Uln7aYikwZkiheJUyOrs6oBasFi6WtBYGvcIIZzFl/usV2iR3x1RHg+BJqf/cq8CmGptV+XJIimgVwEWrq0h7Bgql1wlxVFhv5WOnTIGIOyQBVY4RqQB86kFXy/aKlU9EZqJKJZAl+hAc3oUnZR1rsIewo2Svjq6WE5fVZ/ZJjbV/eeMbajdeo4QTBB+KEMF5pJ7JR/vZwvdfw7QcvokbXYAnYYRqianTw5sU8BbwQ01ZtxnuU4+lke3KpYClfnzVdFB0Y6gjpCcm7pb6CCcOI51obY748JapFMCyHjkBlrKQlmNLceHHFmOn2NBKm10PkCcqUVLcII6v9jZUgTNYWYdbJXTK3kGVH9kaDRxhLialce+0ahBzQv9iGr6MFWl6YpV29R8c+a0gEg91vJw5184P28TU4qhwEWlgAF0F5X8pvKLTgEBHly4KOYhyOKC7eAb550vwEQDFKYOVsk/xT0NkpjKsugswFxYCoE0zV/gbazDWZUIYNQy51Sg1l0HQnFpJo+DLVS3hQCTQ8SzA3SsQ7fVBejYEBeAkSyaEDxQqMcBLY6eFq9rGrn3nfaEEk0o5pH1WbVBcSjZK4IOpw4nD8vluq+4N5qeuqMucpMYiuTSFNJHlUhaCcwMDZ+6WzVUgSOl3+d0LZSP11THnAHgofSBBGI7HdAiBHPRgHl0VieV+wSIOIDFAXSKJPzPOlimI/IUWEJoEmqBAxGdNrGx3GWf9bTSmZ15JNc552SmkECaSOR6clPlq+yEbGpWEa6yKPm5qmE+dymKHASvFIvn65cyj0BM9oUHnF7slqhj6rFQYC7UO9123SfdB94knEaOkWOxy2vMx82hr76NudXmGp8QeNWDofOoNFQIbzQ/Q4EyQAED6MrAIJounA8KEDSob3xZGEQJ23nTn9ULn5lcq400SZ/jIpa/qBQ6yD90shXujbpVt8+1GBXOeIbj/Cbodun2MuU5109nloXVfU1fCK2grpv+x66+zUnZG0Vv0lzRPXS3U537ltA1veO+WCC/u9x80urbCqZF9LtgBnVUoC4eaLqdBQ0Ev7jAnNCzcCWFynQu62oL5w7NpcLzRd/AVH66nbqf+lhlyM+ux0Dfp9L86/l01OfUGX0faa7zcM9Bmvpk6JpTPs+7fzpf4VRKddpMurmvO/frU/nF8Yzup/pIkfvyM5g9Q4EySwED6Mrs0JqOnQsFRAxb5OJ7LqWaey9FCui5pNNLkQamz4YChgLFTwED6IqfxqaGUkgBs/iWwkEroU3Wc0mnJbSZplmGAoYCpZwCBtCV8gE0zS8eCpjFt3joeimWqueSTi9FGpg+GwoYChQ/BQygK34amxpKIQXM4lsKB62ENlnPJZ2W0GaaZhkKGAqUcgoYQFfKB9A0v3goYBbf4qHrpViqnks6vRRpYPpsKGAoUPwUMICu+GlsajAUMBS4hCmggZxOL2FSmK4bChgKFCMFDKArRuKaog0FDAUMBTSQ06mhiKGAoYChQHFQwAC64qCqKdNQwFDAUMChgAZyOjWEMRQwFDAUKA4KGEBXHFQ1ZRoKGAoYCjgU0EBOp4YwhgKGAoYCxUEBA+iKg6qmTEMBQwFDAYcCGsjp9OIQhhEUzM9QwFCgLFPAALqyPLqmb7+aAhd38f3VzTY3FjsFVLApFbpMRaOSEKOWBQSCKupUsbfh7CrQAb+Y27YDKqawiYN1dsQzuQwFSiEFDKArhYNmmlz8FDCArvhpXDpr0LFCVfxSy1Yx6C3bhu0LIOdkFg4fPY4fjx3HT0dO4NCxEzh8vOB26PgJnI/tyLETOHr0BI4eO4GDx49j//FjOHLsOI4dPo5DR3h8AgeOHcfJEycR9HkAi4HrDaeudM4702pDgTNTwAC6M9PI5LgEKWAA3SU46GfV5XxAx+wEdAEn+HzAG8C0qdNRp1lTvPp2a7zeui3ebN0GtYtxq9u6Leq2aoM327RGrTatZb9BC557G7XbvI1aUU3RrWtPHPjuBwPmzmp8TSZDgdJLAQPoSu/YmZYXIwUMoCtG4pbqogsCOjK8KHLlz+PxoWXHjij3z/tQteZLqPrma6hS5w1UrPsGKtR9HRXrOGldfe4NVJDrr582T8U6r6OCkz90f6jMmihfr6ZcL1/vdZSv/zoq1amJKrXfQMXab6BKg9q46onHcN9/X8CuPXudVprEUMBQoKxSwAC6sjqypl/nRAED6M6JfGX4Zhegc3apq8ZfrseLJjExuKHWy7gt7l38pUs7XNcjGpV6diyWrUJ8NCr0ikHl+GhUju+ISvEdUbVHDKr3jEW13rG4vk8sKkQ1wG01a2HLJ585rTSJoYChQFmlgAF0ZXVkTb/OiQIG0J0T+crwzYUAHQ+dX67Xi8adY1G1zmu4sWdHVOwTi/IJXVAuoRvKJXQ/79s1/brjmsQeqNCvOyqwjsRuqJjQHRX79cC1/Xug0oAeuLZJJG6vWQfbUg2HTo+TSQ0FyioFDKArqyNr+nVOFDCA7pzIV2ZvVtatFsQkgmDOtXk8XrwVF4eq9Wuhep9OuCaxK65K7I5rEnrg6oQeBVKe01vha/q48HV3OXr/yn49QkDxKgK8fj1wVb8e+FP/7ij3Xk9c/VYE7njjTWxP+aTMjonpmKGAoYCigAF0ZiYYChgKGAqcJQUI5CxYCAqks5WhgWM56iWgiyWgq43qfeJwdf8euCoxHtf261ksG7lzVyf2QPl+artKjnviyv698McBPVDuvR64plkk7qr5JnYYDt1ZjrDJZihQeilgAF3pHTvTckMBQ4ELTAHNkKMhhOLSUYNOadF587xoFhuH6vVr47reXXBNv3hcnRiPcg7g0sDrfKUst5yIW7ujfL/uAu5Unb1wRf8eqDCwB8o1i8BdNWtie+rHF5hSpjpDAUOBC00BA+guNMVNfYYChgKlkwIazWnGnMhbKX5V8M7r8aB5bGfUqPcmbujVBeUcQEdOWvFs1KHrhvL9uuHaxO64UjiCvXB1Ym9cmdgTlQb0RLmmEbijVk1sTd9TOmluWm0oYChw1hQwgO6sSWUyGgoYClzSFCCg0ww57guPjuJX5YnO6/WgWWxsAUBHkStFocWzdcfV/bsJqLuqf3f8aUBPXJnYC9f0641rEnqhamI8KrwVidvfrIXNuw2H7pKeu6bzlwQFLgKg029FG1rxXKeXBMXP1EkXFyAUpafwOVlMzlSQuW4oYChwXimgX10hUKf06QIOoMvzetDUBejK9+uJqxN7FhN3jvpzGtB1BwHdFQLoeuPahL4o37c3avTrhUpNGuGOWgbQndd5YAozFCihFLgIgI7iCS/oX12AnGWLt3V6XD8tbinqgjlXQqeUaZahQBmlgH7nhACd4tER1vFHtyVNY+NQrf6buK53HK7t1104c8UjblUGETSKuCZR1UOR65WJ8bgmoTfK9Y1H1f69hEN3V61a2LLHcOjK6Kw03TIUCFGgBAA6FT4nH9CJqnEI3IVaql+mFyplxReqrl9bT4g4Z9hh+eZnKGAocEV39/4AACAASURBVO4UcD+rzitCc9JzCOg6dxFAV71PrAAtBbiKS4eO5cbjWuECKi7dVf174up+8SiXEI9KA+Jx7VuRuKtWTQPozn3kTQmGAiWeAhcB0PFr1rER08rFDGwtpv98W+rPX5US3rnfoTzrPtZ3uM8VR57CZRZ1XNS5X9oukqHAxv4WOqcXkBI/u0wDDQXKGgXcD7QBdGVtdE1/DAVKNQUuAqBzEIokBHKWsxHkcaOCcX5KcYa+wpSgyX1c1LniyFO4zKKOizrnbmvh62dqu85fONVrSqmeeabxhgKlkQL64WNqAF1pHEHTZkOBMkuBiwLohBkXAnRB2Db16QjknM22ADsIEOw5TjzVnuLX0amnPmbKP/e5wsfaCai+p/Axzxc+V/hY59FlFK6Dx/qaTt15Tlee+z7m0ffqtPA5XQ7vO/PPvfqcTf4zl2hyGApc0hRwP1IG0F3SU8F03lCgpFHg4gA6hwqKOxcAbL8AOG0kQawiYkaypuQFSoDHk4XTos5ZSimvsJxSlPQK36+PT1NOqE5yEV2NOk072J98+ahuhz5XOD1znUX3WZUjtHJE1WpfVV1wgpGAmr9nAF1B2pgjQ4FfQYEzATqJFFEL1frEKivUYvNBp/XyjA7drxhFc4uhQJmkwEUEdHwzEmwEACsoIIxMOStggMfZzzSKrAOwrCAsS+shuu/WYI7CXUNXN2XMvqHAr6LA/wB02R5l5Vq1Xi1U620A3a+ir7nJUMBQ4FdT4CIDOgINBejsoC34LhgAgkEbQTsIv+1XYCVowQpYsIIW7IAFm8fBYP4WyN/nNZalUpW3yHNOOQXyuc9Z+XVJHvc1VztC9xe+XlQ7isqjz1kWrNNtQQtB2YKh1LII5HyyUWCs7i0M6gyH7lc/GeZGQ4GiKGAAXVFUMecMBQwFSgAFSgigI/BSDDuvN4A1G9Zh4PBE9B/eG++N6ItBwxMwcFiCpIOH98PgEf0weGRi/jbCvc/riSoP84W2os65r59hX9cbKq9Qfl7/WZ5fVuegkarMQSP6IbSN7IdBw9Xxe6SD0KIvBg9PxIpVyfB4c2Db1ENUoE5Ew6GJxdVHgzrDoQuRxewYCvxaChhA92spZ+4zFDAUKGYKlBBAZ4t6HPua681Dm47NccPt5fDgczfjsZdvxcMv/x0Pv/R3PPryLXjs1dvw2Gun3x7l9VdvVflkn8fqnLp2GwqnvM5z+rw+1qk+f7pUla/rUanKe2uoTH3v6fPehkfZr8LteE31hdceffVWPPLqLXj05Vtx633VEdGoDo4eOyjiVMWxIyou/NOgzgC6wpQxx4YCv5gCBtD9YpKZGwwFDAUuDAVKDqCjyBVApucUmncMQ60mT2BycjymrumBcas6YfzKThi/KhYTV3fGxDWdMYHp6vx0fKFjyeec0/v6nqLy8py+zvzuPDzPzX3Onadw+TzWZel7dKrzuvPovIVTybumMyaticPENXGYtKYzJq7tjMlruqF1l9po2qIBDh3+UdnoiqUwuXGFf4VWoMKXzbGhgKHA2VOg0OMkby316oLRoTt7MpqchgKGAuefAhcR0LEzjtI+jSJoIQogI/c4mndogAZtn8L7m/vgw/R4zErrHNpmy34sZqXHYbZrm5XeGbNli8Mc13mdp6hz+lpxpeelzt1dMDu9i/Rf2rknDnN390C7xDpo0qIujhz9SehGnUJl7UqHJ8qpibPOGHsIoZD5ZyhwHihQCNBJiYUAXZV6tVD1ghlF9MC1id1V+K/+jBZxukgRe85D500Rv5QCnBpa6UWtcOrI/Y4Ova3FS4IyYBPVGZcXA+XhgeukXiupL61s3SRx5qA7n3LG5egy6YbofNqBRBHpL+2jyV9yKHBRAF3B7jvT3QF0mXkZaN4xHLXbPIEZm7tjTnpXTE/riGmpHQptPJe/MY9s6dGYlh6N6YW2os4VznO+j89LnWnRmJraEVNSOmBKantMZT9TO6FNv9cQ2bIWDh89IOQUoxLHzYryZue4MZEHmP9cT3LBATBHhgKGAr+UAu7HydnPdaxcq9Svhap0WyIAS7sXKb7054CuF8ol9EalAb1cob8MoPulQ3w+8nNqEFLRwyo/tfVR6B0dejPTHZXLhZel3F7Z4r2AII7Ggz61ic/WQjHQWTRdcwlzxAfYXtjg5hfvpiFU6cxV9o27RW3no9+mjItDgRIH6LLystA8OhK12zyJ6Zu7YbYAuugC4M0N5PT+9LRocCOIKmsbQdyUVAK6DpiaThDbCa0SXkVEi5ohQCdvDecLL/Sy0E9r6LG9OJPM1GooUOYo4FoY5fGi/m8hQHeVAXRlbth/TYc0h47vZQXrlHt4Hjn8M/WGFu6bOqN9iwquo8cEAWr016p8thKKcQqKdwMBeI7fU6oukbMnDvkZZYl8OsUlFI6eWQt+zRCWmntKHKDL/pWATgM7gp+yuP0c0L2CiBZvGEBXah4109AyRQED6MrUcBZvZwR6ObBKqcRoMBcCW+SWkRtHd1lWQFJhuJHp5my8pkWuAtlsuvcKCBeO0FDuF1+u6h5X7CUXh1C3hal7K0gBfaXgWXNU0ilQ8gCdJxstYhoJh27a5q5nzaEry4AuBOYIVtM7YmpKDFomvIKI5m/g8BElcjUcupL+qJn2lSkKcMXTP2ffcOg0QUyaTwFODg3fmCoYpc8UBHTEawRzPuWGygboZ98PtRGg6fxMeexzndN1UlBD7KcAndKks5ygkqotrL3wpu9WqQF0BelRWo5KLqBr+yQI6Gald8U0R4+MumRn3Mogh65IQNf3ZYQ3ex2HjuxXc41PuBG5lpbnzrSztFPAALrSPoIXqP0OdBNxasj8oQBvTIMncthgUVfOLyJWvtK9AE7awI85QXx53IO9h3KQ+mMGdn1/Ctu/O4nt32Vgz4EcfHPCg4PZfmQ7QE4BPnE5DwFzooNHHT1eKQzm9HH+pNZtukBEMtWcJwqUGEAncVABZGsOXdunMG1zN8xK7yI6cWVRjHq2fTotoGueD+iUnqxiyRsduvP0dJhiDAVOR4H8tU+xXIwO3ekodYmfd6CRGKwVFHLSGbwSoaqUa6DFTZkx4EQQSNmfhakbPkeXqWvQYuhCNH5vPhr0mYNaPWbg9W7c5qJhv2S0GrEMnScsw8SVu/DRd0dwyGvB43D2CNcQDKpNjA8VgJP6C4C7fBiXv3eJD18p636JAXTabUlhQDczPa5M6sSdLZjT+QjquD9tNw1EaBRRlA4dH0P1OpAHMvRUhnZK2fQ0zTUUKKEU4COlf86+Eblqgpi0AAWUnYIyYnBErrLeWX4g6IPNzbLgt2zk2sBPeUFs+/44xq36BI0HJ+GBFkNxQ72+qFY3EVXrDUSV+oNRqf4glK8/BOXqjUTF+mNQveEIXFevH+5qnIg3e01DvwXbserLI/g2M4isIEW3dig8ZNCJ+02DCgLKnwO7fOBZoB/moMRTwAC6UiKiNYCuxD9LpoGXEgUMoLuURvuc+6o/qckbk6lj0/jBL25ILDsounCnAsDOnzIwcFEq3ugxCw80H4Y/Rw5G1bBhqBI5BpUaTUCFyPEoFzkR5aIm4trISbg6YgquipiK8o2noErjCagcPhzVGw7BbW+NwvNxs9Fj1nas2HsUB31QHDtHL09CpwvQpD87imHdolgD6M55wC9SAQbQGUB3kaaeqdZQoBRTwAC6Ujx4F7rp+bpzGtCJeNUKIGBboid30G9jcfpPaDVqGe5rORo1Gr6HqmFDUaXRaFSOGofKkeNQOXw0qoaPRJXw4agaMQJVw0egYthwlA8fhgrhw1EpcjQqRU5ApfBJqNRgIqrWG43bo8YgbEAypm//Dl9mB5HtiGH9DrCzxHmxEsHm69YZQHehZ8j5qs8AOgPoztdcMuUYClw6FDCA7tIZ63PuqXJVwinjBnRB2xLO3OEAMGPrV3ix62Tc1GgQKjccgioRo1G10VhUCh+J6pHD8femo/BY+8mo028BWo9bg7jZ29Bt9ja8O3kt6g+chyejR+OOpoNQo+EgVA4bjUoRU1EhbAqqNRyPmyKG4ckOYzEwOQXfZwfEatZL61kbCFIUKw7q3KDunDtsCrhIFCghgE6HMwGy8xy3JW8ro4iz06GjfpnetB86fax0z35+XedzpzqvPucuo/A1nYepzuc+90v3dRnuNL+McxK5ygPrXoEu0mwz1RoKlBUKuB8nZ9/o0JWVwS3YDw6v3k5/haJLBY7EKXAo/CKBEn3FBQU4EUDpje5IDnsszNz8Gf7dcSyq1OuHKuS8RY5G9ciRuKHRSNz/zhTUG7wMfRamISn9EHYf8uCn3ACO+yyc8gVxODeIz4/mYfnufRi2ZCeajU7Gk3HTcFPzCagcNg7VIiaheoMRuKH+ADzxziiMXLAJXx8+hVzH7QnbIta1LmMJgZ2OEUfB/pqjkk6BEgLoaE7NiU9Al4MWMVGo7QJ0U9I6YjIjJaSrSAkKQCmwIxag6e0wZXc7TGYq4bGiMSWtA6akvYvJTNM7YHL6u6oMuj6hLzcn8oIGSuq+9nJ+amoMpqZ2cowx2mEqy3WiNSgjhVhMSeUWI2VNSWMeBfgmp0RjWlqMujdUTidMSeV5FcZLQnlJOxV4m5LGkF7sW3tpM8ubnMZ9De5UpAipOxQp4mVxLHzo6EE1x6gC4Zikh6xc9exzLz76nEkNBQwFfj0F3M+Usy+ArnMX6NBfFy9SRDzKJfQqEPpr6x4T+uuMg61RmwvM8JTmXRW8rHTPbInc4IdlBySf9g1HC1O6HOHGffqLU/7klCsR5jvhB5JSvscr3aagRoOBqBw5Vrhy1RoMwB1vDUKdfu9jzNovsOuwDz96EBKXOtNNa+NJvXkWcMxv44sML+al/4gWY5bh3hYjcWP4MFwXMRI1wkfhxoaD8VjLIRg8/yPsyw5K22ggYdFdigZ0TGVzLDnOSDSToSRRoMQBuqy8XLSIbozabZ/G1E3dMSO9CyalR2NSGkEZQRrBT3sVBkuAU7QCP7vfFdDGa1NTmT9aAN5kgsH0jpiU/rakkwVkMR5qDKakEHgRuMVicgpjxbaXEGNTd8RiZlp3tZ/2NqbufgdT0mIElLHsybu6YFpKV0xJiVVATwAdwWQHTN4Vg+npBHAEYQSGnTEtLRbTuE+wJxsBJfvgADnpjwKOk1PfweTUd50+6n7mc+oIRqenxaJVv5cQ0eJ1HD5ySOaT+sria4LsffcXJR/MkjTlTFsMBcoABdzPlLOf6/Gh2QUHdD1xbSLjxHaHApA9cXU/Arp4VBoQH4rluvXjj8sA0Yu5C6EXJ0FNvt6bctCb/06laxHqwAWDBHJ+WAiIE98cAAe8Fj45louN3xzF8j0/YGna91j18WF89H0GPj/pwdFAUAAe82788jgavZeEmxoNReXwMagSORk1Gg7Fw28PR+y0lVj/9SEc8SodOxXCi2BQAUwJHxFU0SEEj8lrXl0/FQR27T+JAYs+wn9ip+CGsIGoFjYa1SLGo0bD4Xgubhbm7vgBJyxH5CrhwhzaumkgULGYaW6KP68UKIGALscBdM8IoJue1gWT06MxeXdHAW7kZE1P64QZu7tgemoXzEjritkfd8c0AVEdMI3XU+MwI707Zu7phhm7e2AquWlp72BySjtMT++M2bu7YmZKd8xO7405H/fB7N29MWdPPObs6YKZqV0wOzUec9J7YUZqLKalvYOpqe8IsJyRHodZu+MwMz0e73/cD3M/7o3Ze7pg7t4umJ4Wg2kpnTB7T3fM+bgr5uyNw6yPOytHyClsUwze/6Qb3v+4G97f0xXvf9xVypq6syNm7u6MGWmd5H5yBumWhKBt5u44h9sX7XALycXrIH09O0DnPJ3OgnNeZ44pzFDgUqaA+5ly9i8OoIvHtYk9DaA7H3PReV0SzPEjWB/m24AS5Ck3H5YVRICuRgCcAvBVhheLP/4RfedtRtOh8/BGj6l4tuNY/Kf9WDzfcQpqx8/C2+MWYdSqXdi47xT2ZNiIf38X7ogaiuoNh6Jq+CjUaDgC/2g1GgMX78JnmV4pl3AxKG5NuGchZJ1KFCeAjtayZKrZsILkEgbhhy3cvG89AUzY/A2e7zoLf40YihrUy4sYjb9EDkGjgfPw0fcnhEunDCMUAaXP8k/zJc8HYU0ZF4oCJR7QzUiLU9w5crRSOmBGeidM3hGL0es7YMLmzhi/KRbDVr6DcZtiMCOlC6bt7Igx69th/MZYjFzbEWM3ELzFY3pqR0xL6YgJW9ph5Oq2mLCuCwYvbofeHzRH33kt0H9hCyQubIJx6zpg4oYuGLr0HUzd1gkz06IxIy0GY9Z3wMg172LEqrZImN8c/Re+iwEL30bvD6KQuPAtjN8Qg7np/TBuQyf0WxCFhIVhGLGmJWakxGFuendM2hyDwckt0X9BUyTMa4L3FrXE+A2dMSulN8ZtiMHY9R0xbWdPzErthZmpPTFmYzsMX9Ma01JiISJgMd7ogKm7Ceo6oeVZceicVxIT8zMUMBQ4fxRwP1POvgF054+8F7QkLWLVQI5gzgXonLeo49pDqQf5bRvksn2d6cO0zV+j3aTVeLbzRNzaeABubNAP1Rr0R9UGg1ClwVBUqTtYRKo3RvbDfW2G4PW+8/DWmM14POZ9XB8xCtUjRuC6sMEC5uLf347PTvlEx80jOnl+2EEPLMsnshfNLRRDBon9ylBhSged7ke4Efh5bCWi/cEHjFz1KR57ZzT+HDYI1RqNRvWIobinSSL6zlmLw34dPkxxJDWMy/dmekFHwlR2jhQo0YBuGkWuwqHrgCkpHYVzNSutG95LboF63R5G7znNETM+DP+oeyPeGVETc3b1xYyP4tBi4LNoNuBFNOr7HJr0ewmTNvXA7NRumJPSDe1GvYT6Xf6J2DHheKbJ3fhX/ZvwRKM78Ej4LXjp7bvQe1YU2gx+DQ/UvhGdxtXCh7t7YvqOOET1eQb1uz6CVgNfwjNN7sI9r92E256/AQ/Vuxkvt30ACXPaoNeMlqjZ/l94ttnf8cxbf8WzLW/GOyNew/StfdB7Vgv8s/Zfcf8bf8Xj4Xfgqai7UCv6CfT/sD06TYhA/a5PYPDi9vgg9T2MWxeHBr0eRlT/JzCd4t3UWEyl/h116naTQxeDVv1ePAuRq/Mqci8+5zhhzO2GAoYCIfUlRQoD6Er3lBD0RiijBtJ5a4Y4dILuRPyoBJ40JKDPuB37TyH+/a14qO1o/DlyEKo2HIQqYUNQLWIEKkeOQcVGE1EhchIqRY5HRVqsRo1EpUZDUSVsGKqGjUGViMmo3GgyqoSPwM2NBqL9xNVIP5QnQJGAUfzDWR4gmKf81VEPT1unSuvYZkczj2JgnmNfLAt2UHEQafyw90Qeus5Yh/uaDUaV8GGoEjUa19fvi1fjxmPTtyekPop0qXvNEvM5kqV7WC/F1pcCQNdZhf5Kicb01M6Ymx6P3nOi8FD9GxEzJgKtB9ZBxQcux8P1/oz3PnwXc7f3w5sd/ok3ox9G417/xdONb8fABe9iXloiJqyOxStt70LdmAcRNzoSj9S7GZHdX0K3Cc3ReVwU4qc1wdgVsQjv+m+Uv/93eDLyLxie3BbTt8TjhZb3499NbsPA91uj+4Tm+Hfkg6jx4LVoGv8G+s5oi/hJLfFkw9vwYvN7EDumPrpNDEfDLk/ioXo3osv4pugwNBJ/ebwCGkS/hviJ0YgZ0RyPh92Nl9o8gv4fdMAzUXegXsxTmLY+Ae1H1sMj4dej48Rawq2bltq5AKCbnh5tAN2l+LSaPpccCrg/kgygKznj8qtaomGM4lK5AZ0Upw0GHIhHkLThy8NoM2oJ7m0+AlUaDEHF8NHiJ65Kw6Go0XAwqtOHXPhIVAwbgcphw1ApfAgqNhqOSlHKV1zFyBkoHzkL5SOnolLDwXiq4xgsTNuHTEpSCa2CAYkgAdsL2/LCspTRhQJ0tKZlm8mvU+YWPA5QJ46nGQEi4IMd8CFgKd9z237MRMR781A9YggqNRoj6b1NB2Nw0k4c9qiS2HsF65SeHgGe+ZUuCpQ4QCdWrtFNHKOIbpiR2hkEMFN3RmPGrjh8uLsv+s5tikcb/A2xoxujw5BwPFznZjze4FY0jP03Jq/uiwadnkKDzk+g35wWeK7Z7Wg3rA4WpA1Bz8lN8WzjOxE/6S0kzmiDZ8JvwbuD6mLIhx0wYG5rjFkag5mb+6JZ71fwn6h78UTYTYjo9iQmruqFV1o9hpda3o0523pgYeogNOv1Bu55sQZGJsUgefcwNO39Am75zzXoNbURFu1JRFL6AExZE49X2zyIhrHPoW3/Brjz2RqIG9kKH24bjwkr+uHZt+7Dww3/ihlbE9BtUhP847UbEBb7LP7z1h2I7PUMpmztLoBuakphQEcO3UuIaP4GDh1RVq62KLYWNopwXk3uxad0zc+L1lpxPSBfyYZ4F20QSnLF7mnh7JdkkeuWPcYo4vTTqSCg04YHaliVAQSBTsCGiDL3HM7D22OW447GgyQMV5WoCagcMRY1wofh7mYj8J/oiajfbx7CByWj4eAlqNt/AV7qMxcPRU/ETU2GoVrDkahKIBc5AxXCxuHGqCGImbEO32YGlNGDhOmiKJXvcy1OVQYPyiEwAR1bSe6cjy0TxyhsH5cBAXRBL+DLge33CeQ7bgOjVn2Mu1uOQeUIGkiMxl/DByEy8X3s/O6ElARLiWxD7z4D6E4/ZUrolRIP6GamxWF6ajSmp8RgZkocPkjvi8QPW+CxsL8hdlQU3hnYAC+3eBBt+9fFC80eQJcxzVC/478R3uVpTFgTi6ieT6Nmu39h6vo+aNb7dbza6iFMXNEDA+e0wd0vXoOHatfAc01uw7NN/o7mCf/BmGUxaN77VUR1ewntBtfFSy3uRo8JzfFaq6fwapt7MfujzliQ2gdR3Z/FnS9WxIhFb2NBWl+82f5fuO2/12BEcmss/qQv5qX0xofbCfxeQ+12T6FVQh38+ZGr8HCtm1Hz7cfxUJ2/4B9vVkW7kTUxa0dvzN3eH2GdnkWV+y/H01G3YcTyaNGvm7Lz5yJXWtEqowg3oOMMU68iPtNqc/aYmN8vokDopUYRhvkZChSmgHtaOPsG0BUmUmk5zgd0ek/xpmhwEBD/cV7LFmD03SkPOk9ehzveGoYaYUNRvdFYVI0cg+vChuGZTtMxcPFurPviFPYc8eGzk358meXHZ5k+rN+XjWk7vsfb41fhwZajcFPDYbg+fCwq1xuCp7rMwNKvTyCLWEykpsqfnSNEDQlXFbxTYE6F68p3hMJrcp1zUTrhBwJ5sANe+GxLLGvXf30Ur/aci2oNh6Ny+FhUbTgMj7cZiQ82fQaPLB027CABLMW9LERRobSMomknUOIB3ay0Lpiyqz1mpHbCrJQuCtDNa47Hw29G3NjGaPteHbzU6gGMSO6MiG7P4eVWD+O/TR9ARLenMXVLF3SeWA9PNb4J7w6rjdffeQzN+9bE3G2J6DujEZ4Muw5vD3od733QFgPmNsOI5Lag3l7j+OcQ0fU5jF/eDZHdnsEbbR/GUw3vxyut7sGs7bH4MLWnlH/7CxUwYklbLNzTF416PoFbn78K/d5vjKRPErBw90DM2jQADWKeQ8NO/0W7QeG46clyeKHpPxHV/QXc+WIlvPrO/Zi6pSdm7+qND1Pfw+APOuDWZyujcZ/nMSclAdNTeoBWvnSVovzfKR96ym2J44cuxKHjdDaA7nw91AbQnS9KltFyDKArQwMrCEg+g9VevjYZRZ0ESnm0ZrWBOVs+xb9ajkD18BG4rvFYVA8bjr+GDUKD/gsxc9u3+C4roCxHXbpoFIrSFx2tYT895sWIpFS81G48bmnQDzfU7YWoUcn42jFO4PcjuWzcFIDTb3V+pCufcTZ15IRDp2AcW8s3vwZ0gsWCARG7IugXa1y2YV9WEHHTN+KWxsNRJWIcKoWNwV1NhmLYwq3I8LHndDLsADqKbcXYwj3Ry9CQl9GulAJAF4epKe0xPaUTpu+Kwwd7+iDhw7fwSMO/ImZsGFoPeg3PtbwNkzZ0x4B5bfFko9tQ7eE/oHanRzBzR3eMWxeLV9vfg9tevQbPNb8H/T94Fx+mJKLPrDA8E3U9uk2IwJR1PTFpbRymbOyESRtiERn/NOrGPoGZm/tgwPvN8GTEzah4zx/wcqt7MWt7F7yfGo+I7s/i7/8tj6HJrTF/Tx/0nB6Fe16rijdj/onhS9/B+NVd0XF4GB5veAtiRjZCh2HhuOXZcug5qQXmpwxHq/6v4R91qiNucgPM2NkH89Lfw9hlnfHP2jXQeuhLmJXaU9yv0BjC7WB4ajqtbuPQKsEAuuJ8Jg2gK07qloGy3eucs284dKV1XDmACtDwPzf5b/sFOPls5QZk97FctBi2ANeFDUTlqPESzeGm8AGIfC8Ja744jhO20mgTC1SbIlMfLMvv+KujixNbRJv7s/yYt+VrvNFpDO6L7I74BZtwhICMzQiSA6fawHaoT3QtcSHHUAEtSR05jIJ6+feIUIFcNoIzujNx4rZmW8CsTV/g0XfHi75fufAJ+Fvjkeg5cx0O5yodPToaVu++ICAiX/dEL63je+m0u8QDupl0zMsoC3QCvKuz+IcblNwKb3S8H92mRSJ6fF3UjL0fkzbHYnZKX7R471Xc9Fw5NOzxDGbu6oU56f3RbmxN3Pb6lWjQ4wlM3twN83b3xXtJb+HpyOuF6xbR9Wk06PIgInr/C/GzGqDFwOfQbMALmLG1J2Zv745mCc/h+oevQt3YRzF7VzfMSeuJ1oNq4fHIWzBsWWvMpRPirX3w9uD6eLLxTXiu1S14oc3d+HeTWxDV61lMXtcTPac2xmNh16PvrLeQtHswxq3uhJox96Nmp3sxfmNnfLB7ACas7oz/troV7ce9glnpXUR3cLITNWJyuo4mEYMZqV3ROuHVQjp0nLSGQ3e+Hl0D6M4XAlIIvQAAIABJREFUJctoOe51ztk3gK60jjUHUAG6/GEloPFI9B0KNo8CmL7tazzy9ghUDBuMilETcF34ELzcZRqWf3oEpyyl0aZAVABBy68MGehKhLppsjEEGN0QA0c8NgbOXYtn2/bGqNU7cZwtEOSlnRorAwVFUQpfHYBlEShaklfAp26wpBoCqt5wNZB4reS9EQcC2PrVEbzcdSoqh4/C1ZGTcH2jkYiZshr7Mn3SLskvYl/Wx57rCkrr2F5a7b7wgI7zw/HxoyerMIuFTwxk59KxcL5RBAEdRY50JjxtVyxmpHTFhE0xSFzYDGPXx2DkmvZITHoLU7ar6A7jNsWhx+wmGLS0Habt6oXpKX0xbmNndJ9bF0NWtMKs1B6Ys5t+4aLRc0Y4okfXRaex9dFxzOuImfAKBia/hUFLW2PIsraYubM75qR0xaQNMYif3hjvLWwJtofbqNWdkDCvOSZva4+ZqZ0wJy0B07b2R7/5zdFmxEtoPvhF9JoTgSlbqffXB+PWvIu+cxtgwvp3MDe1G2andsXwVS3Re144xm3pKMYP07d2Q//5TTBydWtMl9BjHSCRI9KdsGYSHkwDutdU6C8jci2WJ9YAumIha6kv1Hl9FVznnDWvKEB3Zf8euFoiOTCaQ3FsLsfCEi2iqEgRb2DLRQr9xeeIP/08FccEcNdxNuU7w6Wyci0SlphalAijQhccNx7Ubdt1xId3J6/GzY0HiqVq+cgx+FvUEPSZtx2HgwAllqJ3xhBgYnFqCceN4E0c97IOW4tIbRHLbvh0H94dMgXvf/QJMhzQJaaqBIH0Osc1UclP1b0EWBa5hpYTF9aZhmwy6czyZWO8WK6qtgJ0vE7Ong18ejAD4QPmolrkCPxf+ETUiBqDtuNX4bPjuY4DFIAcySBFuuRQFoo8JFWpJTxEqXyaa9rlnzF7F5YCFxXQyReGfDfkx3LNyc1By+gmqNP2aUzZ1E3Ei9QfU3FQozGVnLqUWNEto37Z9LQ4iahA57uTd0VjenpXzN4Tj5kSIYLi2jg5N+vjrpJvelpnFWkiLRZz9vSUvLPTe2L27u6Ys6crZqazvK5SPiM/TNnZUbhl7zMqxG7qtHXCtLROmLU7HnM+7oUZu1leDKandcWMtHiJHjFrTw/M/YRRKHpgZjo5jJ1EZDzbyTttF8WmjATRGXM+6Sahx+hrbnpKZ4k8wXsY73Xa7mhM291Rwp2pkGfUoSO41SJXhv5yxXIVDh1fBupB58Moe+Y5+8VPVXEuQL+4MeaGEkOB0LPlfqacfTegq9InVkJxXThA1wNXJXKLx9UJvVCuL2O59sa1TRvhrloXF9BZWi/LsRrnMbfz8dNl6/L43KpzrCMom36WQ8DP0UELOeTlMf19CIACvBZwIDeIHT9mY0H6QQxf+Qmaj16Jh9pNwPWNR6J8o7GoED4cD7efgA/T9wsY8wlgIlfOK4CO+I1FUoQZdDhq0jY6/rWUztvBjCws2rAd2z//DrmO3pxIVKXdikaqD0pnzgr6lZGG5tCJ42F1LcgoEeJUWIlYie/I8ZO+O43hNP38WCYaD/lAnAtfEzEZ1aPGo9moVfjkiEcAncSkFe6iQzsBdArmhuZ+aH1xj6Cz1rhPmf0LToGLCujIEqZfazeHLvc0gC5kFCAREzoq33TO/s+uiRNeV/xTAkK6PuEm90TLMc/9bEsjKIwR573uclU+xn7V8V87YVp6rIThYtixgud5jecKtsF9zPKm746Rjfuha+nqHne7QtdYno7lmkDHwq8ZQFdMj4xeBIqpeFNsKaVAaFFzQJx0w9nXgK5y/VqofNEAXS9cndAb5fr2RqUBfUoEoAsBKQdsaRB2PqaAG8jpeqR8AUWBIgAdOVl0zxGQjfuao8aV6KTXwrpP9iN+7hbUSlyEhzvMwq1Nx+KGiGGoEUF3I+NRIXKs+HFrOCQJOw5nO455KQr1wrapN2cJkFPgTAMzZWwg58g9swBPwMKBIydw6HimgEgaLlCPToXishEMBmVjv7hPcEfunDqvOHjin86mv7kA/JZyrULHx0ILojqGBwtSfKrcnnxyPBMRQz5AtfDBKC8i1wloPXYdvjjuVfxI2yN9UGJdsgP0n2YSFEzzx1A/GflnzN6Fp0CpBHRTUjtAbwXAzv8AUL80XwGQFSpXA7rTp1NSo6G3X1qnO78BdBf+YXDXyBeiXiDc583+pU0BvWw5kkRFDAPoTjsp9HOkQRyP3fv6+q9NdVkFGkDMprlTTn0KEJELR1GiAkaEKuSeUVOMYtVPj2Zh3KpU1Ok1E7c3GY6qDYejfL2RqBI2FtXCxqNawwmoGjYB1SNG4aaIRLSbvFpcknjFloHgkbasFImyXGIpxypVA1kCNMdIgan4tfMFkeu14AsqHTye43QSUOgAOu7rfoa4bjIBafgQQND2I0gxL+t1RLzsLzmOSneP4E8ZbGzadwyv9ZmBatQDjBiPvzQai+jJG/BtBv3Z8acMORRnkMd6xhegsDkooRQoU4DODYLOdd8NrvL3Y0JgjaBNceUKgjsN5tT103PoNCDVaX4d+ffoPhS4Zjh0F+RR0gvMBanMVFJqKKCXNwPozm7Iivs5OnXqFFauXIktW7aA+wQ+hX+6DeQ6aT0zcsGo0UbdN8Zk3bn/FNpNWIJ7mg9GtfChqBQ+FpUiJ6JS+ARUCRuHqvVH47r6o/CXBiPwl3qJuL1BF3SfthL7cvzwiVUqoZSCRLp+zhHWrX8EWTwkKFNqe/nXdB6mGrzpcyzD3S93mTqPTmV+EgAGaIihrGLZVxo7sJ+zd32HhzuMQ9WwYagSMR5/ixqDbrO24sc8x/WJTYMO5XuPbXTgZUgcbfCdpnTJTEsloCsAcELcs3wgdLbXNZgqKi26DM196yjATsVX1cCOaeHtf7dJ11t0Xae51wC6C/Ik6UXgglRmKik1FJAFk8ucey129o3I9efDWBiM/DzHuZ35/vvv8cYbb+COO+5A48aNMX78eOzauQsH9h9EXh55ZwpUyfMsFqLKFQkBjtdW/uVSfspA7KS1uLvJEFRuOByVGk1G5YgJqNpgOP4cNhQPtJmIF7u/j4iBS9By+FK0HDIfzROnYtrKHTicFxAOXzAQxLHjR/HZ55/hi6++xPGTJ0Q0ShWib775BgcPHkBQRKaKa6exX05WLr79Zh/27NmLb7/9HjnZhF2A1+vFTz/9hIMHDyIQIPfPQmZmJn744QcBrseOHcNnn32Gzz7/HN/v24dTGZm6SAkbJlEfLIpsLQFz5B3u91iIn/8Rbmk2HBUjRqJCxAT8ufFYtBizGtt/ykQWaeLEnxCxLf3QiUpUvn5hCNDpB0Faa/h4DhkuelJmAN2vAUf6nqLSXwSy0gjwOuTrwZ0DyDxjvQbQXZCHxgC6C0LmUleJXscMoDu7ocvJycGOHTuwePFiJCcnY9GiRViyZEnomOd+7bZ06VKMGTMGd955J37zm9/IVr58edx37/2oX68BEvoOwIoVq3Hw8BEBNuJXzVH499g2GJP122w/+szagAeaDMONYaNRNWIqKodNxA0Nh+KhFsPQdMCHmLBmL9Z9dwx7jubiqxO5+Op4LvYeysC+kznwMIJEMIiNGzehU2wswiMjEBHVGF27d8OuXTuRmroLjaIiMWrMSAQYX1Wrctg29n33PYYPHYFmbzVDeMNwREU2xtAhQ7F//34cOXIE3bp1w/Dhw5Gby5YCq1evxjvvvCMcyYkTJ+Lll19Gg4ZhaN3mbfTo0Qur16yFJzdPfW2IAYUS8XocoLbrx5OomzAH10UMQsVG41AuaioqNxqP+9tM+P/sfQd4VcXW9vd/9/v/+1kBlZ4QQpFuuyooKAJ6VZoCAkIaKKASIIRACJ0kkATSG+mVIk0s1y6iUpWckwSkiQhJgCR0Ekg59f2fNbPnZOeQQIJADmROnpWZPXv23rPXtHevNWsNPor5Gl/9XoxTBi7J05O6llnlksRTArq6tfaGz9WoAd0NwVM9gNntBnSW+zNAJ7b+eqtqL1eSj7MOKK1cb0W3sgy8t+Jm8h73DAeuD+gqMXneAqiNIh64Y25LhJWrMIpYdseNIqjP0E/dd0g6NXv2bEybNg1Lly5lIIWAysKFCy1xOr4RUX5rWrJkCdzd3eHo6GgBdALYPfrIY3jl5YFYvnwlDh85BoOer50jR78Go4nt/JBXpkfi99kYNDMW9u+Go61LKlo5p6CDaxxG+25E8je52Jd/AaUmLrliLkgUP3J80y3erPdmaTF06HAMGTIMEZFRCA2LwLC33kLQikB8/tkWtO/ggGkz3KE3kJyM/0gCFxocgpf69sPc2d5ITU7BtI/c8cxTTyMsNAx//vknhg8fjilTpuDyZXJqAmRkZKB3795IS0uDt7c3HBzaY978BQgPj8Ibbw5F/5dfwZdffAGDTsecAtP6OoPJzCSRpSYzMn/4DS9MDkDbcSvQYmICHn0/E83fT0drtxh0dA3BKP8NSNh2GH9e5vu/klKadqQgoxHuQoUt0KsSx4nOoChmee0rLyiDBuHAPQPobiU4s8V7CUDHXJlo58I9cEg1K1fmS0kCugbpRPKhjYcDYg6rUUJXWYnJPvMbHtAF+qNZgALoJt05tyU1Abrff/+dgTmSyp0+fZqpDElNmpeXx+KkQqwLUX5rIknWjh078PzzzzNA989//hO9evXCpEmTEBsdg19+2o4TeQUoK69kgM5s1MNo0DGJWgmAr/YXYPCcGDi8uxytXOPRemIyHN+Lw+jAz/Gf3CJcrFSwC9ucwQwTmaYyB8HcipXagE6vR0BAEBwdO2PN6rXQ6w2oqNBh567d+PW3X/HlV/9Bh06O8PCciUodATpubEW8GPHW23BzccWpgpOsAx06cBBvvvEmhg4bxtYEvv3225g6dSpTtVIGAnR9+vRBeno6PD098dRTT+PXX3+DQW/A559/ge7demDG9Om4eIHcFPOdIsRawVMlZVie+DFecFuILs6BaDUuGM3GRzNJXauJCWjtGo2241biZY94ZGw/grO0FSzMbNswUr8SCGbr+Pjiv+qgTgI6mxkAJaCrhxSuIYGeBHQ202dkQRoxBySgq73yawJ0Bw8eZOBj//79tV/4N84UFRWx+zs7OyM2NhZ79+7FxQsX+Doy5b5MaUibzrPF/kaQPWfeVSP8N+xAZyd/tHIJx2MT4/Do+GC8uXQdPjtwBueVnRW4uaqidaQlZeQy1UhuREheB5SXV2C2lzee6PUMft2z95o32b5zJzo93hkeM2dCpyfHJPx35MgRvPLSy/BdvBQV5bRTLEDq6enTp+Pll1/GN998w9YGfvjhhygtJRtcDugIvBKwI6nnk08+ib1Z/JlFRcV4/fU34eTkguKiYpaf3JXQhz5ZzhaXXMXWrN+R9p0GoV/mwj3lZwxash6dJkfDzi0SbSesQgunGNg7hWL4ogx8vOsIisuN3NkwATpmyCH82pEKlll88FACOsZvW/gnAZ0EdLbQDmUZJAfuCg5IQFd7NdUG6Ly8vKDVatmFJOURJFSzfyckEPTXX3+huJiDGEvp2MbyJEnjG92TpIp8tpHqkBb+7z5xCeMDN8DeKRgt3GLxmFsEen0UgYhvc3BGqFjJ9YlCJtp6wWjmXk8I3DCDAcBgMCIoMBjduvTCl59/ZXn8n0eP4Y8/juK7739Ep06Pw9NzFt/aS8lB0sZXB70K96lTce4cbSwGnD17Fm5ubhg0cCC2bt2KkSNHwtXVFRcvXmTng4OD8dRTT2HdunVM5fr0008ja++v7BytU3zu+T748EN3XLxwiaURn5nfOrMZ5UYTrhjNTH1M73ek3IQth4oxPflb9PWMQ4cJUWg7IQmt3RLh6BKC8YHrsf34BaaapjV4pGJmdrxMNE29QFlbp5hiiH7BHiz/NRgHJKCTgK7BGp98sOTA3cYBMXFJleu1NVcToDtw4AAI0GVlZbELaD3WrQR0dC/1j8pgMhpgNuoUiZwAIuR5g/ZEBS5UmpG2dT9enBqNFk6ReMwtHu3fi4J7/Nc4fKGMuTMxmIwwkBNftmxMAXBsX1YTTOTkl/l5o7sBP/+0C72f6ws354nY+t1W/Oezz+HmOgFLl/pj8yefwdGxI0aPHovt23di714NsrNzkJ9/ErPneOOZfz2LgMAg/LJ9B8LCI/D0M//CrFmzQGrpiRMn4l//+hdbM7dp0yYMHDgQL730ErZv3445c7zRuXMnpCYn4KsvP8fYsWPg2KETEpJSoTdQqZW1jIpUkrhEKlRaYU2yRVL+XgCQc/YKwr/KQn+vFLR1iUfLCelo5bwKPafEIGjLbzir59uUkUUwgTriCd+BSAA6HvItwjg/2MPlvwbhQIMCOhPzTU3Ni8mxGQNq2/qLqzvJklSQ2q2H2l2IOv3G8TSyUL0pUEfPpPuL8MbPujmVLbee5SpXL2TkeiNDOw/ugUOvs4ZObNVCnU3xVNkgzUs+VHLg3uKANaBjU5gyj5Wp1tCJrb8axCjCxtbQEUDJyc5hDcGkrMX6O1K52q4VzoPZAn5FGscEa0yiRmpCbjCWX6LD/NTv0MUtBI85xaCF8yr08UjB2l1HcZVpEsk6lHZeIKfDNJbqATMZGpCVquKUmN2TV3xZWTni45Lw79dexysvvYLezz6HoUOGYsuWz7B9x24893xvdO7cBW+8MRhvvPEmxo4dh59++gVkTDF5ygdMsvbKgEF4+eUB+ODDD6HRaBhgJMvgwYMHszWCzz33HPr27cusekmSFxAQgPbtHdCv3wt49dVXMGjQQAQGrsCpU3wrSK4RVdbRKVuJsTSKG3TMGbEORiaBIyOI5Zt/wzPuqWjlloTmrslo4xyFkb5rsOvYGZQYAbIKJlcv5LyYzy5qQEcpBPSUjnBvdfm76m3uPKCrxh5qFNRZaNNh/lVxtawcH85+H6OnD0D6L4uxWrtQAU1eSM+ZhfQcT07Zs5CW7Y3U7LkqIie/dQdWBORScjil0ZZbtH+qFVEa5UtlwI/Am+JIWDvX6vlzkJrjhbQcKqdCIq8lpLKJc17IyK4iSk/LpnvMZvehe6XmzEJq7iyWlpJNx3OQlkv7vC6Ee8BbHNCdO8U4yuwh2EbObCkr61yW7mWJVGO+PJAckByoJweoKwmiS1nXUvpXOQG6eQvQatw7aLXMBw8HLsbDQUvQ5LaSL5oGLWXP4Hu5+uHhBgJ0NbHy4IGD8PKcjWwNB3SMYew7U1mPVU3UWdMdbiaN1xA9xqImNHFARrBDW1gKl9BPYe8SgubOsWjtFIXhi9djT/5lJr0i0EZiBlLNGpiwoRwwVrA5ihVdKZKQSNIhqX5p/R65E0lKSkJ2TjZ0Oh3OnbuALVu2MP94CQkJDJCRUQNZ/5J0kXzNkSsXOkduWOiY7fKg+KLLzs5mEjryr7d7927mwoTO5+bmMuOI+Ph4bN68CSQJFe5N1OWqmXvEH/4mQlq3v7gcH0R8CUe3KLRkW5vF4skp4Qj5dDeKKkiqxyVzivilGnTjfYDzvObnydQ7xQHbAHQM1HFAd6WsDB8IQLd9EQd02rkMbKVnz0J6tidYqCUANhdpWh8eZs+pl6SNgTQFzBGoIyBlDejouDqgo+cr/ubonALyCFhWUZW0kJ5BVAUyhXSxppDyivvwd0kj0JpDwJUAJYFF2st1LjI08+AeMFwBdNxCigM66lQC0PHtXqpmHNbt7lS7ks+RHLgnOSCmLXUoZjc1oGvtLwEdNYCGAnQkLaIZhQM6snAgk9VKdvzLX+cxbOlatHg3mO0I0dYlFuODP8f+s1c5zDHrmSSKAzpyd1IBGCvZejq6HxkZ0I+Ak7XKl5+p2//rAS86V9v56z1TlKmma6vaLIkhuWEDSTBJ8nbJACRvPYznpyeilUssWjpHw9E5GFNjPseR82VKEzey/WJJ9crupdyQsYOLBOv24jLXbeNAAwA6xTqGvRJ9JXDMLxpgSflVTJk9EaOn90fa9gVYrV3AAEyGhoAMSdC8kKEh8galpWt8kK6Zw9O1KsBVDUipQZUAYlzqxiR0Angp0jkB5Dhg4/lIQpeunYWMbIXYs+h56mfOQbrWmwFMCpmUjUkSCZQJcEaSOA70qoW0lRgDpxyg8vtQGpcaptM7a72QmTMHqzVz4R6gqFzPSUB323qHvLHkgBUHqiZFlaSOzWiABHRWzGowQEfl4EpADuhovy0d0wQRGPn+cCFem5eKFu+G4lEX2p81DhOiv8ORyxVMDsXAm5GvNaPPY65BIitZJU0Ftghc0dwlSHCAjtXnRFwdirjIy0qtuhffKqzq3uIZdJ24VjxPnSbyiXMiFG2XtVwGwLjBCHljoVl4d94VvO27Ga2co9HcZRXajA/GaP9MaArOMyBMRiVk7WoByQoolIBOcLjhwwYGdMQA7oWaGiH9LldcxRTvCXhnxstI2zEfa7QLkKmZh0zNXGRqZiNTOxuZmjnKsQ8yNd7I1HghU+uJDC1J7xQJ2g0AnRqsWaRoAjwp0jdLHkWCl8bOE7AiUOeJjOyZKlIkhwz4kURRAXQ5nki1EKlPSXXKJYLVQlqLxySRdK0gH2Roac2cN9IVMJuZ44XVmjmYFjgYrh+9heJqKlfioZTQNXy3kiW4VzkgJkV1KCV0tdd2Q0noSDYnpHQM4Jj4Om0B6P7tk4KW74bhUdcUNHdJgGvMDzh8uYIv+Cf1Khk+0JoxJomjOYp76GDiBxWgE/MWcYDiaqClPqZ0AmhCnSrAmgBidCzi4h7ienEsQkonEvdTp9deE+oz/GUYpiMrXrLehRl5V8xwX7UVbVyi8IhbPFqMD8WwhenYeayY8YEse/m6d74ekZv80pVCZKd+how3BAcaDtBVGxF5ZyEGVAN02xdgrXY+A3F8bZuy5oyBnLnI0ArAQyCr/oDOIomrAcgJNSlTdzIARvu4EtAiCRpJ4agsBOo8LJSePZOphNNovRuTwpE0zppIOidUqhTn6+5ovRzPK6R3XP0q1uwRmCSwmplL4HU23CWga4j+Ip/ZyDmgHrZEXAK62htFwwA6rvnhMjoOtMhQgo7JE9z2Y+cwYslqtBlHgC6NSenGhH+FnPNXuaLWcBUw0Jq7qqX+TN5AgI3+2M4JHLypwZQAYCKkczWRNRATedTXWcfpWE3EcbpOAEE6Rz/rPNVrRrRYvn6OHRFqZT71jDirA+ZmbIe9WwwenZDELIDfXJCBn/5UAJ2ya4TJTGpoAshExFcJ6KrzueGOGgDQcYmc+OJR2qFls+vL5Vcwec4EvDP9FWRsX4R12nnI0HA1J62fyyCDA1JfMhUll4QxYEbn6imhE+pMYQjB76OoZLVebH9WBugEQNN6I007D+nZ9Fyugk1XgCRJ7QgEZmR7IyNnHjJzFmK1ltYAkmHHIqzJXoRM7UJkaoQKmUvdCBhyY4+ZSM2diZScmUjJJqmeYiShJfDnjVTFOCODAbo5HNB9OBxFZ6XKteG6j3xyY+OAmBLVYa2ALkgaRTQkoFNW0FlADsnsaF2c9nQJJoZsRnuXUCahazo+Hq/7bcDPeRegJ42RoQzQVzKgwwASA0oCLOmZPzsCUwI8qfuAOl0NskS6CMW1FIo0uo9IF3EK1efVcZGXQvXP+lico2zcSpeUpgRMOUjkBokmnNEBXik/ws41Cs1cEtDcKQpvLlqNn46dZRI6I0noyLEfU7UqxowS0An22kTYMICOtPCKCFs0RdEIS8pKMdlzAsZO+zfW7lyODdmLkUnWoNqZyMiZiXQGeGYyI4FUJukiSRaXXtVH3cokcIpkzgLoVGpachNClEGWpQS66JgZJ9DxbKQxNe8crMmei7XZ8/FxzhJ8nLMMq7OWIW2PH9L3LEPGzmXI3Lmc0erdy7FmbwA+1hL54+NsX6zPXYw1WlIbz8ZqAnAM0Hlw61aLapYsX72RQs8mSWEuAVpvTA0cAhc1oOMLG6TK1Sa6lSzEvcoBNZATcQnoaq/thgF0VDM0IHLgQqUTKQTojl2uxLyUb/C4SxBTtzZzWoV/zUhExu4/cIVlNgK6Si6lMxsY8GFbZTPJHDeVqP2NbfcMA3QMiJLimFyzmJla2cQkkcDhc5VwDfkMbZwj8RhtheYUgbeWrMHuE3wNHckn6RrmFoY8UzBSJHS2+9qNqmQ2AujIGSR1PuDylct4f5obhjj3Q/r3AdiSuwJrmZSOpF8EqkiS5YmUXC+k5HCww4GdAHVcwiZUptcN1apW1bo5ukaAuAy2tk0xTFCsbDNzZmOt1hvrNAuwOWcZNmUFIeX7pVixbhZmhLrg3TlvYsSMVzFq+kCMnjEAYzwGwtXnTUxfMQYL4iYiaN1UJHw7Dx/v9sdm7XJ8kuOHDbmLsTrXh7loYSpZRSKXToBSsXLlgI5Ust74KHBoNUCnrFSVgK5RdV/5sneaAwLEqUMJ6GqvhYYBdFQeYXBHIQd0ZM1JDnIvGcxI35qDF6aGo61LDFq4xqPDhFBMT/oKhy9zS1gzSaLYujs9SMXIhFIM1d29gI61UyYRpLV89F58WzCd2cwcDX+y9zhe9kxES6dItHRdBfvxIXAJ2oT9xVe49S+T6hEvSRpDQhkiZQ0dv3ntDUGeuSMcaCBAV7XIlAZG+lrgomAz28B4VWoM+g95Du/PfRsJXy3EpqxAbMhehoy985hxQKp2FphfNrZObQ5SmbuPm3DwqwZ0KstTAQKF5I4ZYmi9sDp7NlZrZuPj7PnYkuuPtduXInKjJ2avdMaoKYMw8J3eGOz6Gt6dOhZO08bDZdpoOLuPgIv7SDhPG4ER77+K1959HoPGPI2h7/WG25xXMTfcCZEbZiHzF19s0AZgfY4/1mqXIGOvD9L3zkGGhlu6MoBJgDaXAN1cTA0gQPcWis9yP3QS0N2R/iIf0sg5oAZyIi4BXe2NouEAHdUOAQ5lriGPp2YzdCa+ji4r7xyc/DLQduxKNHeKhZ1LOJ4Z8IxyAAAgAElEQVSbFoG4rb/jHAE/+jRmYIVvF8a0mkxFSc6FScJ19/3oHbiaVexry1XQtJPsKT2wYPUv6DQhDM2dY9DaORJdJwTDJ+V75Jcq70vSSmW3CQ7j6L8EdLbUEhoA0FU1AsuASP64zTq2NoGYc6nkItI+TsSIia9h9NSBWLxqCjK2LcNGTSBWZy1QLD65jzi+lo1AD7kuqYd0TqVeZRI5odLM4UYJlEb3IwvaNZrZjNZlLcBGzTKkb1uEZamTMXneEIyY8DLGTHwDC/y9sPmL9Th49HecK72IyxVXcLn8IkrKzuNi2TkUXzyNIycOYHfudnz63QYERi3GB7PHY9R7r+Jtt1cwcfZQ+ES7IfLTOVi7KwCf5ARho3YpVv82F6u1ZNXLrWvJyjVDqwC6D6oAHV+fShyVVq621MFkWe4tDogxSx1KQFd7HTcEoBN1wzeQrwJ0tIbOaDYy+9fCMgOWrd2Gzs4r0ZJcdExIQFunFRiyOBOfHTyHYhPfHstE46kioSPVpHDIW9Mbq9e03cl4fcrC1KwmEqDoYTSbmGSu2GDGlpx8vLFwNVq5RKPlhATYOYXh1TnJWL/nBC6x5TwGwFQl1WNJ1ZTaJAnlWraayiPT7gwHbAjQVTIRN5lQ069CfxU/7/0W0+e/h4HvPIv3fIYi6pPZ2Ji1HB+TgUEWAbg5HNwxP3TcF52QrtUl5KpMvjaNxYV7EraDwxxkEpDK8sI6jTc25S7Emp2+CMiYAZfZb2Dw+N6YPHMMMtfH4eCRbFSUl9arxsgD+bnSs8g5qMHaT9Lg7TcdIye/imGT+uIj3xEI3+iJ9bv8sTnbFx9n+WBNFkkHZ2GNcFuyfAhcPhhukdBZAJ25BkDHPy/rVT6ZWXJAcuBaDgiwoA4loLuWTyKlIQEdH/aqAB0dE5AhKgPw9f5TeNU7Da3GR6HlhGS0mhCD9hNC8W7wZ9iy7zSKDWBWsSSCICxnMAC0TSoBuzsJ2G7mWWxdnLI9mYiTFpmcInMVsoHBr8sm4IdDp+AWtBYdJ4Sj5XvJaD4hAR3dIuCRsBWHLhuhowZuJCMRUkezjdDYtQTfOBGHKEaSPD5/i/qX4Z3lgI0AOmECbWRqef4lRIzQI6/oKBLXRuOdif/GG+OfxbzICcj4eRk2aAKZapL81HG1JHdpkqaZhVQisjpllqLkQsQLqWTUQOvRcmjLLh/mgoR2mUjL9UFK9hykkBFC7hymyk0mYwjtXKzVLMTHWUvx8Z6lCN/kDtdZr+P1Mf0w1fs9rPs0DX/lH4LRRNscKz/2kUI9hj7kaB89EVc+7GhsUYxBxCUU0hbQp8+exA7NNkSnBjM17evv9saHC0cg8ctF2PhrIDZqfLEmay5WZ8/Cau1sTA8YAtfJb+HM2QJ2K5OR1iHSA7h5Pptwqs066ifK+I04oB5Eb5RXnm88HLDuUmz6Yv+qHAu3FFt/rViMh1Ysuc3bf4mtvxbjoSB63lI8HOiHZgH+aL7SH00nuaHXqBHYuW9fg1RSwwM6PuAKvRCpSwnQVMKMk+UmrPpmP/rNTEJb5xi0cotDmwmr0OG9aAxeuh7R3/+OvadKcFnZmL5SAUQEXdgQX0Oobh8NERdysiqwJUAXD8kPH7luITpZasSGPX9iYtgWPP5eCFq6xaLVpFS0dInEy7NTse63fJSwd6R5jOZoLqET91Y/i9+dUuSvITnQAICuptcVTd/6HE/XGytw4HAWFgfOwUtDn8Ybzi/AN2ka1u0OxgZtENZpFyEzxwcZzKnvbGTmeCNzHwE3AnOzkL6P9kCdjTQG2LyRzHzJLUSaZj5SNHORku2N5OxZDNRl5M5FZvZ8rM/1x7o9AYjaMhcT5g5Gv+Hd4Tx5FNZvXovC4tMwmKhrUPmoEdOgoRyqQ+vXoSyKqbg6VGfT6XU4+tcfSFmdhFGub6Hf0GcwK3ACMn4MwObcFViXswBrsr3hvmwoXN8fjuIzx9mXETl9pHtW+92gLNXyyoNqHKitfqplkgeNjgOWLqXuakpc7BTRcvw7aLncBw+tWIwH7ySgYwCSAJ0vmgX4ovlKXwXQjcTOffsbpK4aFNCxN6bKoTGaEwE7klLplHVyp0oM8Ev/Ht2cV6Lt+Ai0npiExyakMLVjtw/iMSboE6z64QD25JUi/wpwphI4qwfOCzIA543AeQpFWgOH5/SAmqhsdExlL6oEjpWa8P2hM1iU+TP6zYiDPbkpcVqFxyYko82EWPR4Pwze6T/i8CVuIFJ9cmuQZiQfWkcO2AigqyqteiJlcVMV6r985Ry++H4TJns5499je8PZ6034p32EpB8WImPXYqzduxhrs8n/23y+NRhZqOZ4IUXjwaxjyY8dc97LJHCkUvVh+Ui1uiZnLtZkz8e6HF+s3uOHiM/nwH3ZWAx1exmjJg5GXEY08k6fsCwBpUZOW6GQXyDLzzLaK+DOcqJuEWYOrmQ1mAzIOZANv+BFGDK+P8bNeA0r1npg7S5/bMwKgIf/GEyc/A7OniMJHQnCuV+kKumm6pnqyUeVLKO1c0DdDmvPJc80Ng5Yuri6TylxCeiubQ02B+hIdWqqAnQkqdqbdxEeid+j55QoNB8fgSbOSXhs4mo84pSINuMj8dSHcXjbdxOmxHyDGUlb4ZG8FTOTfqxGnkk/wjNlGzxTfoJn8jZGM5O3gWhWEicvq1CkUyjOiTT1sYjXFFKaV/JP8EpSKPknzE7+mRGlz076GV7JP7PzMxN+woyEX/Be1Pd4be4adHWLQJux4WjpHI8WzoloNT4GPSZGYnbiVuw5fhmlZOhbk0rp2mqWKTbCAdsHdLQtiYGscjhwIhulwvP5+M/WjZjtOwVvT3wZY6YOwMyAdxG0ehoSty5A5h5frMvyw7rspVhDAC+b7yixOtsbjAjAZXtjrWYeNmoXY5N2KTZq/JD+yyKsWOcO9+WjMPS9fhgzZThi06Jw5NgR6GkBhfIjkb3BqIfBQAtmFeeMdE40fhGKC+oUkoqWxNpkIl8FEkvLL+GnPd/Cc9FkDB7fB9OWjEb8J0swx3ciJk4ag8LiEwzQcYeTvAj8cWLquTlwWaci38OZRL1SKH+SA4IDoldVaxYS0An2XBPaFKBTxlaqO1qqXWGiRT3AJQA7C0vgmfoDnp0WD3u3VWjhmoyWbulo6ZLM9npt5RKDVq7RaOkWjVZuMWjjugptXGMt1NolBoxcY9DaNQYsv0s0MzIQ59ow69EYsJDyK8cUVktzUY5ryS/yUtiG8rpGo7VLFKO2rtGwc4uBnWss2rpFw841Rjnmz2vpkojmzkloPm4VWjvFoY1THOycV8F+XCSefC8aH4X/BzuOnEM5rRUkTSszBJFj4DUN20YTbB7QEcYx6mi/OVLjm/g6MYZRdDh97gS+/WkLAiPmY5LHGIyYOAAj3Ptj0tLhWBD/PsI+8ULSD4uQvsMXa371x3rm8y0QW3LIijQAm34LwMc/LUP8Z3MxP9oV4z0HYuSkl/DRvPFI2bAKh08cgIEeXMNPbLlCIR/cqdETEFNTDRfWksQAhEnPQB355KP1cGwNHstPa+zykLE+HmPc3sBIl0EYPnoAXCeOQWFRPuMGATrqfByAiLLIjlgLu2+YLAHdDVnUKDNQj2Kk7lpKXErorm0SNgXomBaDxnMyciCLV76Mn1yUXDQD2uJSxG07gtFBn6Hre5FoMy4crZyi0MolDo+5JaLZhFQ86JaKh9xS0NQ1GU1ck9DEJZHRwy6JYORMx0l4mM5ZUVMXyp8EFrrysKY0uk6dLvKLa8VxU5dENHVNQFO3eDRxjWPUzC0ezSYkoJkbT6eQHU9IQBPXRDzkmoqHXdLwmGsS2jjHos2YYHQcH4xBXqnw35SFX2nNoJ77hSUBAwkX1E392hqWKbbEAZsDdMQc9WRKYIltHmwww6TnhgYEdARwIZub0qsXcPTPA/j0y/XwDZ8PF48xGOo2CK+NexGvO/XBO+6vYoLPcEycPwyTFg7D5IVDMXnBMLw/dyhGvdcfr499Hm9PGISZS6bAN2QeloctRUpGItZvXI91a9ZhXeY6fJz5MTas24jt23fi8uXLbA89KgMBOj7Eq4GcWDZa96pm72wi790ctLL3VowqmFrXbAStJdyr3YW582eiWw9HjHxnKM6eLWIPoeuvBXRUJtkd614LVTlZfailr1WnZKwRc4B6EyN1t1LiEtBd2zBsD9ARSOG+5ZhPNtJvGE0wmLhPtiI98MvxCwjcvAOjlqagj3sIOrsGwt4pFC3GR+OR8fF4ZPwqPPZuJB57NwqPjSM1bTSaj4tmx4+OpbRoNB8fgxZOnFo6xeD2UTRaOgmKQkunKmoxPtJy3GI8lSsSj4wLRUunELR3XYGeE4MwyDMa7tGfYu2ev/DHVSMukocJWpVNwgUz+dyjpTzX1qtMsU0O2CSgq84qvhmyGpdQAyOrTubihDCL1e98yTls3/szYlKiMG+ZN9znTsa490firfGvY/DoVzD4nZcxdMwAvOM6FFO93kdY/Er8tm8PSiouISouCs/37YM3h7yJt4a/hWHDhmH4kMF4e+gQ9O3zAkaOeAe5uVULjGniry6VowKRerZKRWtVvBoPGSAjACHgobCGFWJvVac6d64Y4eHB8PVbjIsXL7D7cTAnVK4EKOn5AmzW+EiZeB0OSEB3HeY04lOif1ab5JS+KQHdtQ3DNgAdVRD/4OZSJxob+Zpjlk5aGCMBPSPIdS5J7MjQIafoIjb/ehCBG7dhRswXGBewGSN8t2CE32aM9F2Pkb4bMMp3A0b6K6HfBp7mvwHv+G3EO/4bMdp/E8YoJOLqUMTrkofyCqL86mvHLtuMsZbzGzHGfzPGLNuIMcso3ITRfpvwjv96jPRbDZfgdZid9DmivtiBb/efwLHSSqZ2Jlcu5GS4gnaQoF0hmMP/Khct19auTLE1Dtg4oCNxL/erRo2LmpgYUBkjxYE6tOIwXVNaXoris0UoOJWH/JPHkX/qBAoKTuBUUQFKyi9briiv1CFwRQime8xCTu5+HD9+HEeP/oFjR4/gxF/H8PHaNfhwykfIytLyx1s2VuaDhWXQUMpsuXEdIlVDDr+L5dgC7JQUpgI2obysFCdOHENFRTmTVhrJbYlFcikBXR1Yft0sAtBdN5M82eg4YBlqKCJ+SvwaQBckrVwbHtCpK6n6OG0Zr/l6Hu4Hlc0zZGLGP4cJ3F0yAXmXddhfWApNwWVkMbqErIJL0BRUhXsLLmJv/kVYQoqrKEuJq0N1nPLWdCzSxHlxTGFWHr+GysJIuQeVqzpRuS8h6+QF/H62BCfL9CDPqWQUwj/9mQtlNnNx/RL3vUfck2OhaEO2H94VgM4IPYh4k1MsOhm4U4+q9NFFKlnm+ZFv+aIW69VSF+QQ0UibDMOM8vIKBIeGY9myIJSVU1eu/vttzx7M8pyFrKwsdqJ6Q6eyKF+BrGwUr/tPXM07Ex9MKE4Qlg8vyhBDZSWXKQzYEYijtXO03q7K4SW/mn+FSpVr3etAnbN63arPyHhj5gD1U0b0T/yUuAR0giFVYUMAuqqnW8eoovgYXRVSjEujmESKalf5iKYPZCL1TxmFLToYGmUFWY/d1sfiWnWojvPxno/e6nTruPpYPIPSRLq4j0hTh3ROzAyUzsY5MsKjxeo0r7BQLG3iby7HQnULsO24jQM6DmZMDMyRhI7AHEnsCOZwqEPdzUKksmSWotxRMfMKzhZ28r1iha82JskiiZbZBKNZB6OJvlPMqKgsR2hoKPz9l+PyZb7zA7V1oV7ZvWsXvDxnQqPZq9QqB1TU4OlHpVX/1bfq1R2PvyENNFxCyborgTjaEoKtAeHrQGj9BzOeoEGomoSOum71wai+5WnM+eUg1phrv/Z3rxprVHmUbiYBnYonStS2AB0VylKDlvGRxloSFxAxkMP9s/OPZJIP0PIe+mKmLSqZS2KukORA8Mb/xXxFY7j4OFeH6rh1nuud43n5jCM4L95OvKk6FECVXoV80NPyb/Zu5MeFBCFGskCkUDEDplcmLsm1xJwRd8F/Gwd0ovtRoxWAiXcKauiiKYtGzI5Zx6P1EWQpaoDRpJCRgJuyLx9b6MklW0ZaO8GkXUBlRQXCQkOxzM8fly7S8lBqzDwfxXft2oGZHtOhyfrVco53dCqBKGtVyBLr+k95CdZ52JsJ8KoAOgbmqAfSojoyxjDAYKBFq8oaBwXM0TEDf3xo4k/nxatrSWQ+OYjJNlALB5RuavnIY9mU/iUB3bVMaxhAZ6klS4HUKdZxmklolDXSEhqu6rB8HLPxVXzUs3PkiYB7NqChtk5U/Uu9ani+Jel8PhDzwo1D/jI0VwpLX5pSmDCAaXr4HMOFA5x9Yo6xMFNGbJYDNg/oLJxTBk3LsSqi7qBM/chADu9sCv5h8I+LohVASKCOqWirtLPlV8sRFhKMZb5LUXKZjA1I4kegiVSywI7tP2GWpweytULlaoTRKHaMqAJyojyqIt44Ki6yADIhyCfASRJH6ohVWI3KThJHoXIV6+ckoLsxq+uSQw5ideFS48tTrZuK16dEWlBeWYnJ8xbAslPEHVlDtxRNg5agCdv2S2z9VdNOEY1n6y9eG4SWlIqp4WPbUo8ilyWBxl3S2NC4z7Ug7BQDPcr4y8ZoywU3vnudUF9d0aF1PpoXSHNTA1ntuMqVrTRfkaSR9nLl+7LyFFL1MpinCE+quCfHQt6i7ob/9xygI6Zb9x/2BSL6oiLXE42U4SRFtFxRXoHQlcHwW0qAjkvojEbesem+O3b8Ak9PD2g1AtBxSaBo+tZdvF4NQFxs6U5iJQR9DSpgTuRhH1nVrY/onQWo4+WhzMpPFRVJMrw+B0T7uH4uebaxcUB0QTani5dX+lfDALolaBq0uAZA52e19VdjAnSWWhI1ZBlV1WdEnGUSBzTWVlsVRwKAqjmFHVz3bpYb3Rjo3Yr7sLmhBjDH3qNqDuFiQTomYvJIZeUgT+E5uc5L/QbEGzkWWpqRzUfuHkD3N1hJDZR+IlQOr2mo5eXlCA4Ohq+vL/M1R/n4ujuO+Hbs2IGZM2kNnUbcgt3DcnBLI9bdSrm5SL6lz5I3kxyQHKgLB0T3s21A54dmAf5ovtJPtZdrYwJ0danJGvKIyr0GaNWQ16aSRMHrF3L4VvX5T1fX9JOAriau2GZaowB0tbHeuqHWDOiEvyKS0N1JQFdbqWW65IDkQENxwDJlqmc/JW47EjoJ6BqqfdyLz7WeJ+/Fd7xX3kkCOtWntgR090qzlu8hOXB7OCABXf342jBGEfUro8x9fQ5IQHd9/tjSWQnoJKCzpfYoyyI5YNMckICuftUjAV39+GWLuSWgs8VaqblMEtBJQFdzy5CpkgOSA9dwQAK6a1hy3QQJ6K7LnrvipAR0d0U1sUJKQHcDQKduzDt37oSHh8c1O0VQHvmTHJAcuPc5IAFd/epYArr68csWc6vnQFssnyxTFQckoFOBsZrW0KkbswR0VQ1HxiQHGiMHJKCrX61LQFc/ftlibvUcaIvlk2Wq4oAEdBLQVbUGGZMckBy4LgckoLsue645KQHdNSy56xIkoLt7qkwCOgno7p7WKksqOdDAHJCArn4VIAFd/fhli7kloLPFWqm5TBLQSUBXc8uQqZIDkgPXcEACumtYct0ECeiuy5674qQEdHdFNbFCNgigowZiCz/rhlrjGjq23ysv784d0ijCFupNlkFyoKE5IICdZVMBAFdpL1ef+WgxbhRaLPfBQytob1XaZ/X20rVbf0nHwg3dPu6l51vPk/fSu91r7yIBnQpcMkAXEgw/Xz+UXCphdc22ylP2epWA7l5r/vJ9JAfqyQEFydGQwD7zLMgOuFJZiSlzFUAX4IOHVyzGw7cZzBFYlICunnUos9eLAxLQ1YtdDZpZAroaAZ0/Si6VsoqRgK5B26d8uOSAbXFAAXBi23O1hI4A3QcS0FWrL6lyrcaOu/JAArq7p9okoJOA7u5prbKkkgMNzQEJ6OpVAxLQ1YtdNplZAjqbrJYaCyUBnQR0NTYMmSg5IDlQAwckoKuBKbUnSUBXO2/uljMS0N0tNQVIQCcB3d3TWmVJJQcamgMS0NWrBiSgqxe7bDKzBHQ2WS01FkoCOitAtzJ4JfyW0ho6aRRRY4uRiZIDjZkDEtDVq/YloKsXu2wyswR0NlktNRaqUQM6a45UVFQgOCQYvrVYue7YsUPu5WrNNHksOdCYOCABXb1qWwK6erHLJjNLQGeT1VJjoRoE0NVYkgZIFA2VQvoJQOfnV7uV68yZM6HRaFh+6+sb4BXkIyUHJAfuJAckoKsXtyWgqxe7bDKzmOdssnCyUNU40KgBneCEGtCFhITAz7d2QOfh4YGsrCx2KV1nMpkgrhf3k6HkgOTAPcoBCejqVbES0NWLXTaZWQI6m6yWGgvVqAGdNRCrrKwEA3RL/VBayxo6tYSOOCobe43tSiZKDtybHJCArl71KgFdvdhlk5nlHGeT1VJjoSSgU7HFaDQiLCysVgkdraGb6TkTOTk5qqtkVHJAcqDRcEACunpVtQR09WKXTWaWgM4mq6XGQjUIoKMxkW+cQ/7WifgRGyv5SSXdAEBssqOMpBbX7LUdU/7aSPh3p9AMvV6P/IICaLRa5OTm4tdff4WHx0wsXLgYly4LK1czaLcI+v2y/RdMcHNFZmYmDhz4HVqtBkeOHEbZ1avV1K68ZPTfCJjrR2aYGUd4CZkIkMSAoD/GCevX5kWT/yUHJAfuIAdEN7QMR1C2/hJ7uSpbfz0kt/6Cl+dsZGuUj2BinDKQSaDw9xusaIcU0jxRRao5VTymWmbrRJ5fPXPSnMNva642v4krZWh7HGhgQEeAzWAZE1l7s/yjc3oF2Klb4o3iBIVqI7onnaPQDJ1Oh61bt2G8kwt693kRTs6ueO/9SUhKSsHVsjJWWyazGUYTR3QHD/yO2V4emDjBBW+8/hpe6vsCoiLDcfZMEQddVDR2Z7o7/RlgNteNYDIARsprhg5gxG6n7D1mgolxymT9+vyR8r/kgOTAHeCApfspfZ09UomXVVZisgLoWi73wUMrFuPBFUtu+36uci/XO1DxNvgI0Rb57CQAHQkQTIoQoArUsZhyAcN9yjzF0TVdQ6BNPXOaFBECnZKAzgarv8YiNQygYw2L/nHgJRqmJZk+NEAQhhoVO6hqmdUyW9CT6rz6K+U6cYUdF85fRGpKKl7o3QdO452wbds2nD9/nhs7mMwwGk0wGYwwm8zQVVTi2NEjCAsOwvP/egbTPvwAhw4cgEGnh5lAn7qnsM5B0jYTjEzqJkJKE1SVZiKkRs8zAxUAKpUPWX5PzguCvvSIagi4xmqViZIDkgO3gwOW7kcR8VPi5RLQCY5YQqlytbDilkeo2XGJmhIzGwCzHqCQzTIclHHdjhFms4mmGJW4g2ZXRfhB8xedZHMYzWV0L7oPN/ojUCd/ts+BOw/oRCu0qBG5LIuSWZNR2pRFjsZOiIZ2a0MGwkgOWKnD919/g8kT30dw0AqcKz7Da85ohslohNlgBCEts86An7/7AVPc3kNIQBDOFhbxfNT+qWcRGlP6B/U0lmSBrVWnRBZ1yISAJt4NCbgR6CPpIOtkJg7oeJoEdLbfrWQJ71UOiHGq2vzGBi5AArpra10Cumt5cqtSqNnxOYaLP4SYQJk9mFCEznDiswo/ovmERA2URvogPZiGyMSXBxnNBghi10oJ3a2qstt+nwYAdAR6OOoXoI0aF2+afGSkRkrfBvz7gICegDhCtqU+FnHrUORVh+o8VAYjzEYubqYvk19+/BFu48dj0TwfXDh3ljHfpKcvHjPL9+WWT+H0zhhEBIXg0plzvHIYmONA03q5XDVJmmUmsAJkIp19OilfRuLt6QtJ+XKq6rKq629785APkByQHFBzQHRXCejUXKk9LgFd7bz522eUxmgRrNUg7+BzEGWk+Y7gHM2HegbkCMyZoIMRBphoLjQbWagzm1HBlv7QrCNVrn+7nu7gDe48oCOAoqwVoxVy9H1gZICOjgjC3bkflw0KWMkb/fYdP+HDjyZhyZL5OHT4d5hNOly5cgnr1mXCafxYREVG4NLF85ZC8iZvObxFEepGRMqPcB77I5E59VoF1InzMpQckBy4IxwQXU8CurqxWwK6uvHppnKxxqhGcaqPfUtDpTRlPlG0YkzqxmZdgnIc3tEsSFOOEEoYTIDBcmu5hu6m6qcBLrrzgI5ajFHPFloKQEeiXxL7ms083WQ2waCrgEFXCr2uDDp9JXS6Cuh05ap4JXR6SvsbVFmOyoqrqKy4goryEhgNFdBVXsVve3Zg6keTMdPDHf/5YgsiI0Iw7t1RSIiPwflzRTCaqDxlqKwoha7yCvSVV3k5qawKUbn1rLxU5uqk11XAQnoe1+l1qNDrUUF5dVfZffQ6PUiAyDCw8nXF1zYooK4BGsy9+khaI0JOoqWjaF7Dkg81t3TLPEkR8VPiUuUqGFIVSkBXxYtbEVMbKLB1bQys8TtTMyRgRqRunuK5lKZOJ5hXNQcToDMDeh1g0IMmHn7/KgkdOxY3k6FNcqCBAJ3OAuioQdE3AswkqzPBYDTg2y8/xzKfaQiZ+z5CfaYgdN5UhM2fykKKB/t8hBCfqQiZNxUhIm4J1WkUF6RcozoOnjsVwXPdsdLHnYXBPtMQNn8Gi3805k0869gSz3Zoi6fbPYLBvbtjuddkhC+cjtD57gieNxUr5n6IlT5EHyHYh8pVRSvnfYgV84k+qCKWpjqmc/P4ccC8qfCfPw3LF3yIwPlT4Ov9AZYtmo8dP+9iDYeE5aR6pkWvZjLUoPV68ve3OUCDlAAvakBH6ZLIKMho4c/fZvY9cAMxKUoJXd0qUwK6uvGprrnEmET5yZDuos6IP0sqsP+iDjmX9cguNUBbakB2qR65JTrsK9GxMLdEj5xSPXJKVOmlOmiv6KAt0eHIZftUdrMAACAASURBVB1KdHqYzOWA8SrMxgqmoqXniGdSKH+2zYE7D+ho4aVJz5ZqEphjol6yzCG3HaCFxRWYM2MS+jr+Lz566THMHtAMPq80xdwBTTH3labwGUBEac3YMaURefcX1Aze/etGc/o/Aq/+j8Grf/NqNPuVlvAe1AoUzurfHDP7PYI5A1rC57U2mPMqnWuBOQOobI9W0SuPYPYrj1rIa0BTzB7QBLMHPFxFr4g4pSv0Cg9nvdIEMwc2w6xBTTDrtaaY1O8x9Gv/IMKXzGd8ofUNRgK95AbFRCBEdq5b0bXUII7Ai8FgsAAY9UDW2OIC5Fq/963g+d18Dwno6ld7EtDVj183yi36I+XTm83YdroUHl8fxpiN+/HOJ0cx4pO/8BbR5qMYsekIRm46hBGbD+HtTX9g2CdHMXjLMQz59A8M/+QA3tqyH8M+OYCRG3Lh9fXv+LmwFFeYbwk9jGYjDExFKwHdjerEls7feUBHImKTQbHOocZCnxq0+J9BO+b/bYGHC+YM7wht6BvIj+6PUxEv4GRYHxSE9WZhYcSLOB35Ik8P74OTChWwPC+iIKxulB/WF3kRL+FEOFE/HA9/CX+F9UNeZH/8GfICS8+P6o/8SE7Hw1+EhULpfB+ciODh8bA+OB7W20Inwp5HfuhzKAi5lk6GPA9rKgjtjYJQes9/IS/8RWhWvIbZr9ohbtE0xYSc1NE6kDqasBxbCGtLLekuLYsa0KlBjEhvrKFaMkeTiOADxRvzTwK6+tW+BHT149eNcqsBHem0Pj1ZgX9vOILH43LQMfEI7BP/hF3ycTgkH0P75KPokHQY7ZOOoF3yUdil/oW2KXmwTz6O9sl/wCH5CMvTKXY/Bmfk4rOTV3CZVrITmIMJerFcW6WtuFH55PmG5UDDADqSNjEFK63XJKtXA8y0CpO8rZddxdLpY7F06KMoCHseZat6oSy6M8qju6AytisqYrqjMrYbKld1h25Vd1TEdlOoK8pjuqE8iqi7KlTHq58ri+mGq7HdcUVFpbHdUUrpq7ozouOyuF64uqoHSmO74MqqrpxiHseVmMdxNbYrylZ1YVS+6nEIqojtgsqYrtDFdFdRN1Vcnd4d+pgeqIzoAkN0Z+jin2bgcungNkhcMk3hFHGMWyNRjKhxT623puM0doBya7jYeO4iAV396loCuvrx60a5rQHdlpOVeHX9n3g84QAcU46jTcpJtEkvgl3aadin5cEh9QTsU/PQOr0ArdIL0Ta1GA4phWifUgCHlJOwTylEh/jjeD3jT3x+uhylNLeYyME9N8Bj7V0CuhtVi82cv/OAjilbyXhaseNUrF7JlQn9ysquwnfaKAQMuQ/FIV1xJbIbzod1wZmQx3GOURecDeuCc2FdcTa0i0KP42xIZ5wNpvBxnAnpijMhdA2F6rhI4yHdv5BRN5wO4VQY2h1FYT1QSBTSDYWh3XA6uBsKQ7qDnQvtitMhXXE6uCtOr+yCouAuKCYKIXocZ4I50XFRSBcUhjyuInFMYVcUhlaFRSFdUbySv2NhxFPQBvaF16CWiFk4DebKchgqy2DUXYFJT2sbpITuVvUgGiBLLl9G/skCHM/Px/H8AhzPy8eJggLkFRSw8ETBSQgSabWF6utqyiPSRD5xLEJKF+es4yKPdajOb32OjmtKs77GOg+dP3YiD3/l5eOvvDycyM/HufPn2XZ5t4r3d+N9rAEd+6hi/6r80LUcNwqtljXkThG+aBbgh+Yr/dB0kht6jRqJnfv2NQi7JaC7tWxXAzpasvRZfjkGr/8T3eIPokPyCbRLLYRdahEc0grhmHoSHVIL0D6tAHbphWiTXox2qafhmJqHDqnH0T61APapxeiQUIBX04/hi5NlKCdBgYF2LeLO9Kn04pnkYUFp6te+VK0nrs0qU24fBxoA0HEgZ6l/iphMXFJHa+jKrmCp+ygsH/ogzoQ9hePLeiJhyMNY0f9+RPS/DyH97kNg//sRMOB+LBt4P5YPvB8rB96H8P73IfKV+xA28H6E1EDBA+9HTbRiwAOoRgMfwIqBDyJowAPsGYEDH0DggAcQNOhBsDgdqyho4APgdD+CBlanQCrfoDrQq/cjcMD9CH3lAYQOuh8BAx+E90tN8HaH/4HLix0ROssF/h4TEOk3D2fyTrDWQAJNo4n2mSUgTAv4hT89LrkjtgqqvRfevoZ1t9yZ+JeanIwho0bhTafxeN3JGUOc3TDUyQVDWdwZg51dMdjJFUOcXC1p4px1OMTZ+bp5KP9QZ3oGz1fT9eIcheq4dV5xfKM8It/1Qutzg52c8fp4Vwx6dxxeH++E/kOGYImvPy5dusSqln1UCCm70tbuljq/JeVUBjAWKHGx9Verd0eh9TIfPBy0GLd3L9elaBK0FE3ZfrGL2VZjD61YiocDCdD5ovlK3wYHdAcOHMCsWV7QarMtbBcAQYSWEzJSMwcsA3kVuKKMpHL9oqAMgzf8iU5JR5nEzSHlFBxST6Jd+im0Ty1Eh9RTDNDZp59Eu7TTaJ92Eh1TTzBySD0Nu7RzcEguwqur8/HZqXJcob7MnOnTnCyWRNFcY0K54oZYaIdYseifWAMkJ5qa6+8OpjYIoOPjnwJE6GWp4VCjYICuBEumvwO/Yc1QFNEbv/k8gUkd/ws+ve9D4rBHEP/GQwgb/DBChzyMkKEPI2RYE0QNexgJQx5E0uD7ETf0AcQOe7Ae9BBih3GKGfYwYoY1QfTQJoga2gSRw5ogYlhTRA5/hFHEsGYIry8Nb4rw4c1UpD5W4sOaImpIE6x680HEDmmCyKFNETK0KYKHP4KgYY8gYIQdpvZvgVG9HXBYs5PxSU9+gmj3CgboyGkkWcAqe/KpwBzjKmctu07+q84Bo94AP//leG3sGEwNXoGPIiPgHh6JmeGR8AiLwPSICEyLiMT0iEh4hEdhRjilhd+QZlwnz/XO1eXeN5vH+rnWx1X3jeDvGRmDqZGR8IiMxKvjx8FtygcoUnZHIUDXqFX/Sp9Sd62rytZfBOja+PugSdDi276Pa5MgXzQNImB3I0C3v3rDv0NHHNDNglartTxRADkRWk7ISM0coEYm2pui/qSMtEUkAbo3Nh2DQ9pxpmZtl3ISDun54ACOAF0hHNJOwj69AA5pBPJOoWNKATqm5MOBSfPOwSHpFAatOY7PChVAZ9LBZNDBrOwcQdI6k8mISrMJOkUVy9REQlXENgogPwzy19AcsGlAVxjZGzt8nsAH3f8Hm90dURT5LM6HPo7iUK6CJbVmYWgPFIb2wtnQbuzc+dAuOB/aFeesiNJqpLCuOE8U3hXnwrrjbHh3nA3riWIL9UJx2JMoDn8SRWFET9WTrK9TH4v7PcmecSb0CRSH0vN64gwrSzcUhT+BvKh++Gz2U5j6Wisc0XzD2gx9nRloj1nqVKTGJsOS2gBdQ7cyG36+Qa/H8rBQTPFfgnTNr8g4mIvUbA1W5+RgdXY2MnK1SMulMAeZOTlIp+N9GqTnapCuhJbjXE2t56zzWB/T/USadag+d71nWl8njtXXizTrUOTh6Vpk5mQjg3jw+z5sPLAPnmHBmOI1CydPnWa1aZHQicmmsY3myvuqX1sCums7ugR01/Kk3imijxGu+xuArl3aKaaK7ZB6kgE6UsmSFK9TwjG8ueYQvjh1BWVUOHM5zKZyZoQHo472xgSFJnMlTMZK5qWCGTKy+YbvcSk+7ur9bvKCW8oBGwd0fbDd5yl81PN/8K1ne1yJ7QVDtAMQ1wWI6QTEdAFie8EY9xSM8b1gSugGY3wPmOJ7sWNKE1Q9raeSpweMdE0iJ0NCdxgSe0Cf0AO6hB7QJ/aCPvEJCxmSn4Qh+YnbQvqkp1GZ8Dx0Cc/DkPAMTAlPwETliHsKV1IH4OelfeA5pC3++n1rtQZgMhKQU7YxY04m+ToHMQaoJ5xqF8oDxgGd0QjfiFBM9F+M+L07kbhfi4QcDRKys5CYk4W43L1YlatBXA6la7EqNwur9lHa3mvDmtKs84o8Il0cXy+82XM38wzlmnh6d+IBgdZ9WZgaFohJ3l44XVxsaTmsjTXWhqZ0LHX/koDO0jQsEQnoLKy4+YjoY38T0Nmnn0LrjEK0yTiFdul5aJeeD4e0AnSKP4yhaw/hy2K+hk7I3mnHV74TEg9p91fmC1WAOnI3RntNmJknWeakWN0fbv6F5ZU3ywHbBnQRfbDL+ylM7/4PfDutPUpjn8WlsK7IX9YN+Us7IX9pFxzzfRKH/Z7GoWVP4PCyHjiyrBeO+D+FI8uerE7V0p5Q8vTCkWXdLXR4eXccWt6T0UEKlz2BQ8ufxEGigCdxKLAXDgX2VFEPVVydXtd41fWHA5/CoYDncGjZszi87Ckc8e+FP5f3wuFlT2Lfiv5Y59Eb7w2ww84fNqGoqBinC0+j9PJ5tjUZSebYdi5MWle1dk41Dtxs+7jnr9MbjfALD8f7/kuRsHcXYrN/Q3xONhKyNSBQQwAuJleDWAJ12VoWxuyjtDtM1s+0Pr7F5Yml++VkIXbfXiTvz8IH4UGYMGcWCoqKLG2CtS/RyBrbSK68r/q1JaCzNA1LRAI6CytuPiL62N8AdO3SC0CArlUmUQHsMk/ALiMPdhn5cEw6ilc/PobUgkocqAT+LDfhz3IzjlQAf1QAR4nKgWMVRlzQm2Bgi+tIkMD3RieYRxojvknAzb+mvPLvc8CmAV1xRB/s9X4aHp3+Bz9M64JL8a9h24zHsbDPfVjY+//C74V/YvELD2J+34cwv+8DWNj3Pizq+wAWvfggD/tSqMSrpanyvHgfFim0sO//YkG/+zn1vR8L+j7AiO49j+L9HsDC2og93+o8panzWx/TOSVtUb8HsLjv/VjU934s7Pe/WPQi0T+xoO99mNe/GT7s3QRDH/9/mDayL+ZOGQt313eQGLkSFVcvMQkd36+v5gahnnRqztF4U416E5aHhmPSkiVI3LMTcZosJGbnIEmrRRIDdRrECQlddg4DdatySGKnQU2hSBPnxbEI1ekiTR1S3PpYXFNbqM5/M3nU14t4XK4Wq/ZpELdfwwDdlNAAvOc9G/nFHNCJOYZ9Q4iDxtSMlE6l7lu2BOiaBvjisZVLVUYRcg3dXds8Vf3rb6lc00+hXdpJJpVrn5aHdqn5sKO01AL0SPsTo/5zCtN+KsKMrQVw/7EQU388j+nbzsPjh7Pw/OYkFm09hm+PX8Rltrc4CQ54wWgMkCpX22hdNgfoysq4UYQ/GUVE9sbeeU/As+s/sHV6F1xKGorMdx0xodN/I3ZkW2x2dcCm8W2xaVwrfDauBaNNTi2xwakVNrCQ4oJEmlXo3BIbLNQKG5wVcmmNDS6tGK13aQWiDS6tsanO1AabXOpOm53bYLNTK2xybo2Nzm2wwaUtNjjb4WNnO6xzaot1rnZY49YOqS5tEefcAW4vtsKUsUNxqfik0pLI0lWsnaWORkYn9O3Ehebqicc2mp5tlMKoN2JlWCSmLPFF0u7dSM7JRqImB0kaLRK1WsRnc3VrXHY2ErS5SGBpWsRTeCcp2+p51sd1KAsruyqf9bF4H5au4SrXhNwspObuxQfBAZgy1xunznCVq5hjJKCrasdqQNfa3wcPBzaMUUSTID80C/RD82A/NJvkip4jR1RzWyJAwY1DbuXIxhXLRu3XS6u+XR5xhiR0Xl5eyMrKYoyiZwoH3iJUl6OKm/dWTP3e9Ga0I01FBbmgqj4yi3zVeMOM33g+wSu6R5VRxJ+wJ6fBaafRLvV6RhHcjUmH1Hx0TCWjiJOwI591GcVol5aPzsmH0S0xF10T96FT0kF0SPwDnRL/QNf4I+gZk4uX4nchPvcsihUAx8YA+ke2eMqMc2/V2t33NrYB6GiwUKxcqwDdIyiMfB575nWDZ4//gx+mdcClxDeQ8a4DvF+4D/sDn0ZZwvMoi34KV6N6QB/VE8aoniiP6YGrsT1xNZZCNYk0ddgTZauIeighP6brytg9KK+a6H7kjJg7JK497M4cFpPT4jpTTHdcjemGK4y6ozSWHBn3QmlsTxbS+sErMU/hasyTuBjTB4nv94KX29sWQEc+goiFfHxQehlIFSsB3fW6pclgRFBoBCYzQLeLrZOL02qRoM1mYI4kVjEkrcrJRlx2LuKzKT0b8XT+TpL1M62Pb3FZEjQaJGqykJSThfTsvZi6IhBTvOegUFlDV9XCSA+k0PUYfa+do3e2em0G6OYtQKtx76AhAR25LSEJHfdDxwHdnt9/v+01IHYToQdRnH4E6Dw9PaHRaCzPF/mswQxlEIDlXgvFuwkmFBYWIjExERs3bsTRo0cZuBPnKBQ8YiH5qFLmR8EXyiMA3eub6g7oyCedIHJjYpdejLbpxUxS55CWB8fUv+CQdgJ26eSg+DTapBfCPu00OiYfx7MpOYg+WIJClWN7tmybxHPcaYX6FWS8AThg24Au6nnsnNcVHj3+D7a52+Ny/ACsHmuHBS/eh0PLu0MXR7srPI4rkZ1QHtUV+oju0Ed0hi6yE3SRHa3IOo2OO0EXUQOx65Xz6nhUB+iiHKGLam8VUpo1Ud66U0WUI4jKoxxRaXlGe+gj20NPadEdURHVGZVRnXAlugdS3usM7wnDUVJcwKYV8klnUBwOcwdCtDcuX8Yq+lsDtC+bf6TJaERAWATe812C+F93YdU+LaJzaK0cXy8XnatB5D4NonO1iMnJQWxO9j1PBF7jtRokabKQkp2FTAJ0K68D6Gy+lm9DAW0c0JEfuhbBfmjyvgu6j3gbvx48eBuYcONbHj58mEnocnNzb5y5EeU4duwY+vXrB3t7e7zxxhtYuHAhPv30U5w8eZJJ74gVBOZIkmdmbkE4c/4WoCP1KlO7nmIgzT6dAF0h7NJPg9bYOabloUPaCTim5cOBrbk7ibbp5JT4FNuF4l8puQzQkYyedD/sS46AJk0wjfGjzgbbq20Dusg++MWnJ6b3+G/8Mq0drsa/hHVjW2HxC//EUd8OMEd1gDHYAeWh9qgId4AhzBGG8HbQh9vViQwR9iw/XaMmfXg76MLsoa9G7aAPc4AuvD0jfbgjdOHq4/bQK+d4HkfwPJSPk/UxpYu0yghHVEQ6ojKiPSuLMdwOpvC2MIXxMlZGdEBFZCeURXbE5ageSJ3YCfPchuFKUX51QEeNjJmTcwskslSSgK72nscAXTgHdHG/7USsAuhIKkeGD9H79iqAToOYnGzE5FA6Se3ubVqVncUsfZNys5CWuxcfBgdisvcci5Urjd/UroxiIKewMf2U91W/tq1I6JoE+imOhf3QYuokOP77NYTEJ+K773/At998g2/qSF9//S3qQ+K+3377Lb766itQmJycjNGjRyM2NhY//PADvv/+e/b8r7/+mp2nPIK+++47EInjeylUvxvxIDU1lYG5//qv/wLRP/7xD7Rq1YqBO39/f+zevRslJSVcPU0O5BXV7N8CdGmn4Jh6Ch1SCKCdZn7oyDcd+alrz0AcAbk82GecUOg4HNL+YhK9Dil/gQDdqgOXcJb1c9b7+To6ttSHdEHq3tCYBgPbeVcbBnTNUBj5An7xeQbTevwDP09rhyuJL2DNuy2xoA8Buo5AZGeYgx1RGWYHXYQdjBF2MNQRzHHQZw99uJo4EDRQWoQ9jBHtwECfAvz04Q4MgOkjFCCmhATKKE1ndczAWgRd0x46JdRHcOBXlUb3ovMdoIvsAEOEI8zhDjCHt4M53B7mcAJ4jkyaWBnVGRVRHVEa1R1pEztgvusQXCnKY99LFgkdtS0LoNNDArrrdzZSuQaGRmDS0iVI/HUn4smiNTuLGSbEkpVn7l4G3pixQHa2kq5BbM49TowHWYjbn4XkfXsxJSQQk+bOkWvoRHOyYUDHd4rww2MrfNHSfTIefe5ZjHRygaeXFzw8POpBnvDwqDvNmDEDRKRipXVzkydPxsCBA/Hmm2/C3d0dM2fOxPTp0xlRPlEWSiei64jE8b0U0ruK95k1axbc3NzQrFkzBuYEqHvooYfQo0cPjBs3Dhs2bMCFCxdYa7tlErq0k2w7MO5/7jTbOYIDOnI6XIB26eSAmNbVnYRdBh2TtO44HAkIpuTjmdTfsepACQN0tHknuTBh3YABOr5eW3QPGTYMB+4OQNf9H9jm3g4lSS8ic3xLzCOVq19nGKO6wBTcEZXh9qiMbAt9pD0DTgSsLKRIx7g0rR10EUQEoCgPB1oMbBHgEkSSN8rHJHAkhVMowoFJ0Cojqo6rnWPXqfKw/O1QGUFEZWuHykgqqz07tqTR/SKpLAT2HGAMbwdTGCejkPpFOKIykoCdA65GdkbmhHZY6DoYpUV8KzDaCvdalasEdDfqVgToVoRG4IMlS5C8ZycSczSI15J0ivuii8/ZyyxayTgiUVlXR5ak9zoRmCUJZezvGiTt34vJoQF434cA3RnGUhrIxWDeKNUtNgHoat76y2IUsdIXzSa74fEhg7H52++Qf/Ik8mhf3hMn6kR5efmoD4n70jNIdbhnzx4G2jIzM/HXX39Ve/bx48ctZaD89zIRX9R8LygowLZt29ClSxc88MAD6NmzJ95//30mxfzll18Yr0g6R+pWUruy9eXXldAdQ7vU42hTg1EESeQIrNmn5zNJG48TaDvFVK2kciXVqwNdy9bLkYEE7QV7Gu2Z42Gyii1mEr1nUg8j9uBVcJUrAToikicQouPHfOUkpXKjPGVRt6KSFek3GpXl+ZvlgO0AOqXBll0twdLpo7Fs+CMojOqD7fOeZhK6re4d2Bq6dWPaMrclB/07Q7+qE0xh7aEL40CNpGSVke1RQSEBNqbS5BIxIbkjSR4BMspDQE4X2Q76CGsicMcBFgd9CtgiCRwjcc/2MDApHqls+TUkbeN5KG8HS372rCh76KLaqMiOPUcf3hGMIkhl3B5GAerC28EYzlWuJDHUU1kj7XE1shMyJ9hjvuubVUYRJrIe404euSEEdR6ubJXrVWvvHkJCN3nJEiTt2cmcChOgS9RqkMjUjhzQEcC7GUBHkj0ikuipQ5GuTrvdIDGewOoNwKjlvFaDVWThm5uN1NwsfBAShEne3jhVzAEdcZQN5vRPUO1svmfOiFdVhqsqHgCotpcrWbneka2/lqBp0GKrrb/80HQ5N4pgVq6jRjbIGrqioiL4+fkxNes90wBu0YsI3oSGhuKnn37CmTNnoNORN7eqH6lXbwToPj95Ff/efAx2qflolVYE+2pWrtxFSbu0Ajikk1qVG0RwSRwHdPYM0JHhQyHaKURgjqlhCQwSpRSiU1IBnkvYj/hDVxigo5mFgTbqCIwI0HF/dKQVgkkPvpuEGB846GO+62i3CzF+VL2ujN0CDtgcoCsvK8HSGQLQ9cbOeU9gRs9/YOs0R5TEDcT60XZY3PufOLisA3TxBJ7aojKsrSJ568ikWEySRWAqvAMM4RSS2tIOhsi20EXaMRBXQRIxMjgQUjkW0rEgkoaRGpRCHufnFEkeA3AqIEhgi6lkhaSP7kPq1A4whPGy8OvpGq7S5UDSEfqwjjCEdWIAkAAdgcOqNX0E6NryayLbsbJfiXwcmRPsMM/l37hQfIo1A97x9TDTXnsKlKMvKAJ1YvK5Be3lnruFMIoQKteEXA3iaYcErQYJWlK93ryETg3a6hq/naCuroCO5dNqEUeuW3JykJabhQ+DV2Cy91ycKqoO6FjbakSjs3hVdchRXXVAJ/ZyfSiIANftoybs3jUBOnJb4s8kdD1GjsCu/XfeDx1J6Xx9fdmaOfUasHtuEKnjCwkeUHYCb0IKJy5Xn6e4harcF1jS6Bqycv381BX8e/OfsEs9iVZkrUp+5tLzGcAjVyTt00l1epoZQbC9XJkfupPMOIJJ5dJIQseJAB0Hc1yqR+vqmBuU1EJ0SMrHvxIPIfRQGfabgdMwo9hsRjHMKFLotNmMIjNQYjbBQFtRmoxMusgxHwE6xRkx7WwkAZ2o9lsa2jagi3weu+b1xMye/40fp9njStxLWD+mDRb1+b84sLw9KuJJvdkWFeFtUBFpz6xECagJQKcL7wSiyoiO3JiB1J6klo0k1SdJ3YTaVSWNswA4ldqW5SNQJ1S2pJIl6Z4DKhWiOEtTpH6Ul9biETgzhjnCGNYBxrCOClGc0gi8tYchjCR+9LwOColycQDHVbX0rPag9yuJ7IJ0t7aY6/xaFaAj+3H6KqoB0IkJ55a2nHvkZsIoYpJv1Ro62vIqgQAdW0e2l0vXyMmwllyX3F51a11A182CPjWorO0eIg+5bonTZEtAZ9XOxUSkDkX/UkvoBKB7OGgJCHTdTqpZQufP/dBNdoMEdFaVeIcPBVATAM368fQxbjSKfbmtzwoJF09X34MA3X8KSvHGxqNol1KANmmkLj3FpHGkRiVJXPvUfNinnkbbtGLYpxfBIZ0bQfCQ1tHVAOhYngI4kq+6tALYUZ6U0+iWehxOP5zBYm0RAjX5CNLkwV9bAN/sU/DLPo2ArAJE7z2BbXnnccHAd44wmNlmYWy1HYkauJpWAroaavmWJNk8oNvt0xOePf4b2wSgG90ai3sToOuAirgObH1aRbgdykmNGtlBAWoE0AgcdUZlRGdURHDJHQNdylo1iyqVgBgjAk+k1qyNuFqVgbAwIXUjoMhBI1OZsnRH0Lo3krDpItswIokcHVM6B3YE6Li6liSMusi2qGSSQ5IaCqkglyAKoFgR6cABa5QjSqKuBXRs0GBfQNdK6MSEc0tazD12k5oAHVl40po52vpLGEWQVSvzRXcDlaU1UBIA7WZC63vRMTPGEFuR1aMsBNRo+zIiitd0b5GHnSdAp5WAzrq5q4GciIv+JQFddW5JCR3nhwB0dERxpk1RhSK9VlBnaWhVfvroGgJ0XxZcxeBNR+GQkge71ELmLJgkcSR1c0jNQ4fkv5ja1D79DPM5xwAfk+IRsLs+oGMSuvQCtM04jbYZZ5hUr3v6GedqewAAIABJREFUMTyTnIvnErPwr0QNnkjORY/UA+iRehBPJ+Rg0KodWPnzUeTpzSgzm6Ejd1psx1fa9ZVWZ9DLiEVAFJe/W8kBGwd0fbB77pPwZEYRjrgS9wrWj26LRb3/FweXdUZFXGe2Tq4yzAGVlrVrZLVKkjQCdB1RQYAusmMV2IsUKlGuLrVI1WgdXSStaauN7GEMs2duRMhgQayZU0vV2Pq3MAeWhyxuK6Jaoyy6NSqi2qIyiixxSS1La/u465PKyHYoj2qD8ujWKI8itTFJ+YR0jkApX+NH+SqiCNC1Z1QS9Tj+P3vnAV9FlfZhV9dV6SAtvZJQQkcUsMGigq6AgBSR3nsPJSG9k95JuSl0cAXBroAFgfQANqSm0Tukl+f7vWfujRF11V2/Vdhcfoczd2bu3MnMmZnn/t+WPNH4BwpdPdD9e5fFj4BOfN2yM/SlvSQwIJ3Iw1qKEslB93Mw9FOA9FvnKejTlxuT6Ts/XxtZqwez2vcG0Pulvh7o/r1BUudThmdr3f5fAZ2YXH9LE0Wv7vry/s55dZf/vMm1XqGrc9r+8Mm6UGcAujvhToDOsOwHO2wYbHogNGyrFui2Hccq4YxS4ix0ErGqqXA2Sadpn3AM24QTWCYWKDXOsOzXKHQCdBJMYZJahNH6CxilXMAkMQ/LhBPYJBzHOuEUFgn5mOrOYaw7j0V8Hl1jDrN632lOVNVQKkntayqVLmeAOoVwKguDmF8F7Opfv+cR+JMDXR8OrOihgG7PXBtuxvT/Hug87SmPtqcyyJrKIHOqJCpUokNV/jZRxASMbFTiYGVyVaZUDeIkkEEiSWvThdwZ6CA+bLXBDgJvml+b5IarDBV/NvHDM0UDLYEtrSmFT6VPkXVMKIkw53a4BSUKxr4396qI1jDJO2dJcbg5tyME/vTAV+vDJz54mmqoomSVaVcSGptzM7wdd5pc64Hu37ssfg3QRRiALvf/H+gk+OJONc8AdgaF7T/tfw5K6xW6Xx5Dhmdr3f5fAp2/K43/H1s90P3yOfszrCH3ZwOIyf7ItMCb4WVYXncdwzI1vhQJ/Vih25VfzOBtJ7FMOINFYhFWOkkQnE+7lAJ6bz/PoLfP03/HObqslxx0BWjAJ352v0ah06JjTaRqROo5jNdfwjjpHObJ57BKOo+17iKWusuYJ13DPOkGprrLdEg4yfJPCxXQVYoPd00JVJfX8esWga5KHzDx/d9f+7fWT/xHR+BPDXTnwvtwYFVP5neQoAhrbqx7lk2vGrPm8Yf42suO8ig7KgMtqA4ypjrYSN+MVf42le4jWPNLqwiTaFNR7UyoFN82gb8g8W2TYAUJRrChKkwCEzTfthoJZAgU86gVlUEStCDr2aggBw2uzBWsFSuFzZISvXKmgZs5pfrUKKWhdpSEtNOrhWaUhcj3i4Iouelkn2SbtpSGWiuFsTLMQp/7TmDToCBq0a3lKu2JGZXhpiq5cOoEI1b+wIfO4HRab3L9uStCbqDS6po2BOi8Q0KY7O7CurT9rDusKXSSjy46O52InDQiDotSl0WMlP/KyVIKnqh4yjSr5mtqWt33UVnpWj47fYJigbBISQWizLia6VOmVWWK7HQis9JrI1ANQGcAubq9qHKG7RiURFkuMPZzoGZYXvvd8r2iQoppuU7kq+TfU9vPTie6jsk1OTdTBUVMW+5I4Tl9Lddap21lR9GHvP7ckb935tcFOcP0D4BOX/rL2GulijwVde23+M9J/de666t6sHfMq7v854CuuY+m0LWYMQmH4cPZn3v4v3YSDFBSWFhYHxTxexz12oH2Y6DbmV/CC9tOY5mQh4UkDNblI7Va7VPyGbLnJsu+LmdG+m36bs7DNu6E3i/u1wOdVjFCwE5SnUhViQuYJZ/HMuk8Njpp51RvrbuEhe4iHeK+Y+Wn+ZyR+rNUQNUtqJKatdVaMKz8LQKyVRI0Uf0/c9/4PYbBr9nGnxroJG3J56u6M6fD/Xw434wb8f3YNKYtqx//K4c9rSiLsqVKTJxBRlSHtKY6pBVVEhEqiYaDRFmzpkLSmqg8ciYqSbAkFNYCESRFiECVpUpjIr5qAn2SJkQ+rxQ8SYcSIoEXkgZFfNsEwET10yJfy1TeOX2QhVLTDLnirCkPtqEiqD2VQTZUBMo2jagKNaIyxFh9hwBntR4gxZ+uSkXEyj5IuhNDkIYFFSrYQszBAqSS+NiYkjBr1k9sy8rxdYMi6oHuXw14ecjUNWkYfh3LPK9gDehi0/YTqwe6aAVYAlwZRGSnq1JgMVI/tQ7QCSgJuAkc1e1/MC3gJ3Ao5k4VZCEwl0GMgJ5sVwBPAOsnTKx1Qc4wbQA3AS/Zhny34fvlew3r3dnL5xTQ6b9Plks07zrZTtb3YKf2MVfmiQ+dFuVaD3TfjyzDs7Vu/3sC3Z2w9mve/1RQRD3QfX/O7vopw2D7CZPrjoJSntsuZtAfAl37pNOM2HMN52OlLMi4wdObT9Au7piCPUlJ8msVOi19SZ4CQUl7ImXCDLnrxCQrZl2bpDNYyjZ1BXRa9zWrPs0jTwFdOVTdhMrS2vJlKipeonYF5lT07l1/dv5Uf8CfGujOhT/O/tVdmOdwPx8uNOFqQm/Wj23Nyr4PkuNty+1oe2VSldQj5aFGlIcaKzgrU4qc5HbTgK5KJezVqkBIMERZiA1lofZ63zqJjjWhJKwtZWFGVIQbURbWRgUzlIWbcDvMlNsRlpRE2FASovnliR+cCnIIlvJcoggaURVkrJQ/tUyUtyDJkWdLVaAogcZUhMo226oACKnPWi6RrUES6WqmtiHmXPHHKwu1pSzMVu1biSr3JX6Ass8CdKLuSR47WzZMMq4Hut9wKQnAGaBO+h8AnV6hiz30OTG5GUQL4GRlEJN5iKicNKWeRWdlEpOZqZYZgE2gKDIzjVi9SmcAq1rIEmDLTCMuV0BQ75unV8ZkHVEBDSqZAkh5/xNKm2F7Bkir+/2iIqpt6YFQ9t2wXt1egE5UQrV9gcDMdBJysomTJMrS5PMCptLkGGT/FNAtr1fo6giStc9ZmTDkofsPFbpfA3B3rlMPdL/hRnA3rlo70H6s0L1ZUKaAziIxTwGVMrnqCrHTneLld86zKP0q0/ado9+GY7RLOK7Vaf2VQKf5253FWpePje4U1kmnNJ+6lEJMUqSqxGmsUo5jkXxCTVsknaZz/FFWf5rHyUoJhqjS1LmqSsVukvheSgUqYa4+LuL/ZST+qYHurADdqi7MV0BnyuW4J0gZ2xrHfg3I9u9Bsa4PpVG9KInsQklUJ26E2XEj1I7SyI5URHVUcCR+dJUqslWAyILSECly34Hy6O7cDmvPLUlzEm1JaaSYUU0pDTOlJNyUW6KERVpzO6od18NtuR3bgdLYLpRGdaYsvL3KTaeZT42oCG6jyo5VRVhRGdWesigHyiIcqAhrp0BMfO2KI8y4FWHN7ehO3I7qSmlkN0ojHLTKEyFtKBcfuqgO3A7twK0Qe7Vv5VGdKIvsQIkAnoI6yU9npmq6rhegqze5/uqLwmAGkg8Y4M4AeF51gC5W1LPMdJWHLiE3i7gjWQq8pFh9rABdpgZQCowMkJaTybrDYo69I5BBRctmkJiboypPJORmE5+TpZpAVFxOlpqv+/Kw+j6BOs2kqkWzGrYnMKjAr46ZNPFILglHc4k/kqOWyfJ1SrFL197fuS85WZoSKHn2cjKJz80m5ehRdLk5JOZkE68ALl0phaIYKvOyPsr1e4WuHugMz9a6/e+q0PloJldD7rqmYm6tN7n+6uv8nlzRMNh+QqHTgO4MlgmnsdDlYanT8s7ZpRYw7ONrLM+9ysz9l+i3VUyxEjChJRv+NQqdRMSaSZUIBXQnsNEJuOVjnHoW45QizFLOYJl8AgE505QCzHWn6RL/Jav3F3CsGkq0LKiqnoRUFi/TR7vKdLnA3T15sv7YP+rPB3R1KkWcC3uCL1Z0Z0GHB/hgviWX454leawpix5vwnuOnTni1p0jjl05srIjJ326cz60J1fCu3IuwJZ8dzNurJUcdLbKRFoaYk5JiCXFofZcC+nECRdbCrzbcz28C5cC23PG1ZRL/rbcCnPgVrgD18M7U+BjxylPewr8HfjKxY4cp86kr+xErlMHNe96RDeuh3bkZlgnroZ24jtXa3JWtCN9RQe+dnPgWmgXbkU6cCOyM1eje1AQ3J0jaxzIdOzM4VVdyfPpzrWwbtyObMflQDMKPC24EtSBW+FduB7amQIPS067mHItyIbiMC1atyLMilshtqRONKkHut9w7RQXF/Pdd9/V1kesq9B5hoYwycOFWH0tV1UpIjOdgI8/xPuj91iXI4mGs4iXPHRZomKla6qcUtmy8Nn7Eat2vknoQa0WrKhmAmMS4BC+/zNWbduqtuX1ztv4ffg+upwcErOzSczKJHL/56zYupnw/Z8rlSzqcBaqCZzpoUwUQFH6BNricrMI2f8Zrrt34bL7LQI/3ae+p7ZkWU5mLShqufS0/ZA0LErpy9HUuKhDB1i2cQNLN25g1bZt+H/0oZZ3T2/Cjc3OIjY7h7jcHAxAN3VZPdAZnq11+58DOk05c6WZjystfF151M+NR/3dVN/Cz43mvq4093Gt07uo9818pHdB+mbeWq/Wk3UN68tnfTX/PPU9vi409nehsZ8bTXw9EJNr67Ue1PvQ/YabxJ91VcNg+ymgKyzl+TdOYZ0o6Um0RMAmyeexTS1iyJ4bLDt6k+kHb/DEtvOYJp7VImHrKHRSIeJHiYX1eehkmVHKRcySCrFJOqGaTBsnX1BNFDzrxDxVFsw86YJKQuyQ8BVL9xeRUwkXJclwtdauVcP16hpuVNdwraqGGzUCdXdUjKjzd2qnQmb8TxWi+Y9H4J8Q6G7iNn8UXkMe5Vx4Xw6s7KkB3TwBur+TNM6c6T0bsvrZxrj3fpigPg8R9tRDRD/fhI/mtacg7HE+mNWCpMEPcMZFfM/aIUERJWEW3Aqz4WZUNw4tN8en519JHdKCvIDHOeXZnQ0vPsTO0a0pDOzDtei/kxfwFJtfac7OsSYcXNqVgL4NcX3sEXyfbYjPM48Q849WZKx+jEtR/fkusB9vTrUg+NmH8Hu6Ad4DGuM/sCHvzLTi1NonuBDTn2zPXqSONSLgmYasfaYZa59uTOQLTdmzqAMXonqRvcKY9S8/wNerbbgW+STZKzuS+NyDvD+2AVcC23Ezoiu3IkRVFNjsRspkW1aMl9JfRWoQSC3XGokekpp6tReKXDA/ukr+40FzN27g/PnzeHp6EhkZya1bt2r/BPGh8wgJVkAXk/65UuRESQvbu4dBS5fSa8pkPN9+C11ONok54lMmwJRBfHYmCTlZJOZm4fnubuYlJRD6+SfoxLwqZtisdOKzMgj6+EPmxsawZttWRnt5MiMinOSsTFKys1ifnYXfrl08NmkSrtu2skFUN4lylc8bAhZUChUNwgQ01+x4k+Ge7jw5fx5PzJ3LwJWOLN20UZlN48XnLSNDNZ0CxiwSMrPQZWWRKLVps8TMmkVSbg7z4+OwHzGCV93cmRMdjefOneiyM0kU9S47g4RsMcdmKXNxUk4mswIDmLLckYKzhqAIzYT9v1Apoq66axg4hnnq6hJfIOB2aRkzVjph9NqrqKAIfxeVcqSFjyuPujvTbMVimiydTzPHhbRyXk5bDyda+zjzqJ8LLX1caOvjipGXK63cnWnqtJwmq5bSytuVVr7utPB2oYWP1gQMBRBV83HjUV9XWvoJ4GlA19jXnaY+HrQO8KitFHEgN9ew6//vveHY1AdF/E6HWn8LV/f1OtGyonjtLCjlBYlyjT+OqdRsVdUeLmKVWECnpBM8nvI1PZOP0U6Xh6lKLnxWJR6WUmACZKZJRaoGrKoDK7nrkgsxT5IUJ+IvJ0rcBQV0Vklicj2tfUZy2iVdwFIqSCQWYZ14TgVEWCadxT7xO0a8fYagr2+R8M0Nkr68iu7Ly+ikP3oV3ZHLpB65wL78W1yuqFHRr8r6anhMqbIS6mFWm9ZElhsstL/TEb1nN/PHAJ12F1TsrW6F4s+vngxQcluAbjReQ1pxLqyfBnQd7+fDBaZcinuGpAmmjO/1EOM7PYTbM83ZPdOK9+fYEj7ICM8nm3FgTTcSXmvD8i5/4euVllSG26rEwbfCzLkRYceZkO5EjWjONKsHWd7lYfYu70Z+xAA2jzbFpfvf+HBRF05FvcyOKfa49nyI92f14N1ZvZlp8yChQ8x4d2l3UiZ1YF6nR1j3sjF5wf3ZPNuepb0fJvYfbXhvXkd2L+pE0JC2zHf4Gztnd+br4OeIHGmKY6+/sfl1G/Yu7MmumV3wHNAKxz4NOODcmY8XWOLc6z4OLu/GEY+n8R/4KIHPNuXICjEjd+NUQE8OLm3H53OMyXC0I2xMO5a9/jI3Lpz9fnCKc4JK3yh9/avuEbh48SITJkygW7dubNq0iZISMQhARUUlXqGhTPZyJTp9vwK6pOwsVup09BwxCtNnnmVqUCC6zAwiv/iM1Vs3sTQ5kVmRESxPSSL2808JfO8dliXriNj7Md5v7WB2dCQzIsPwEtXuo/dZkrAO962bGea4jMELFzA7NIR54aFEvP8uPtu20u6FF/BIXU/qZ5/jlJjM9MAglsr29n9KvFLUMojPycTrvbd5ev5cnl+8mOXJSSxI0jFwhSMvOTsR+uknhH3yCTOjo5kYGIRjSiqJB9MI/2gPTus3sixRx6zIcNze2EbIhx/Qf9ZsHn2iD+PdPVkauw7/HTtZ99lnrEhJYV5MNKs2bsB5+zZi0g+RkpvDjLUBTFq2nPyic+q41Rh+OMgFfA/ebeV+JCquNIF+eUkvBdPvfKni6Xqgm7nKmbZjRtDWw5FmAa408nWhta8bjy5dzF+HDeWBYUN4cOQwHhk7EqMlczH3Wk0br5W09ViFmdMKWs2bR4u5c2g6awaPTJlIa+cVtHV3oq2ns2qtPVbT0n01LT2daOvtiomXK23cnWjt7oSRUgLdaOTtSlMfd1r7u2tAN2I4B3Pqge7O83a3vTcAnWG/xXS5K6+MQVtPYZl4HCNJL6I7j1XiRWwkhUn8KWwST2KTeBrLxCJVKcJQQUKiVxW8SdmvFIlelcoSYmLNV0BnkSKwJwmKtfkGU62sI6XEzFW9V0l9YmhFKoGxle4MndefpN/m0zy14ThPrP+Wx9d/yxMbTtJ7fR69159mQMpXrNlzhm9uV6mnlVxdtT8MlYOdViJMxAl5ye3lHrzFGE7j79r/gUCnIfmPgK5YD3Qvt+Jc6JMccHxcKXQSFHE5vh9JE4wZ16MB47s2Jfb1DpyKGcDZhIG8u/gxHHs14o3ZHYh8zZaF3R7myEobqiNtKAtpy80wE27EdOagaweWPP0QweO64fqcOTFjrDgZ+Sxf+/Qi4NlG+L3wKG/M68HKng8T/VIzToU8x+653ZjW4SE2z3ycEzFjeH9Vf+Z1a0j0kDYccXkCzwFN8B7YjJO+j3M9sg9XIp/kqEc/nPq1wLV/a7bP78LiJx4mYUxbLkX243ZkHy5H9GPPih7M6voAyWOteHuOHav7NWLDtG74vdwWp+eb8LlzZ27G9eFscG/iRxrj8VRDIl9sinf/Rsx4vClLxw/hclEBVVXVVFRWUVlRTlVFCdUVZerBU1Ep86vVtDyI/lebPJRFLZg/fz5Dhw5VYLdr167awAhDlOu6tC+U2TEhLZ3xLu6MWuLI8KVL6T9rBuF7P8Ln7bfo+OoI2g8byoB5c3hs/OssT4hnZZKOIcuWsSg2hv6zZzFo0UKGOC5njJsrK5MSGDBrBkujoxiyaAGWA57l2SmT6Dx0CMOWLMY5IZ7uQ4bgFp/ILC9fnhk3kZHLVtB7/HhGeboTeeAzpZrpDmczNy6W3pMnsWbDRrbk5JKSlUXQ3j34vfcuYfv2MtLdjc5jxtBv2jS6jHyVBRFRLIqIwmHYcJ6ZNoNnZ8+i39QpLIiM5PGxr2H+bH8murjx4px5LI2MZk5QMF1GjuDZmTPoMe41ekwYj98H77P+yGFmrQ1k6vKVFF34vpbr73onugs2duLECTZs2MBnn37KtStXf7THJeUVzHZag9GYkbT1WEETvzU09nbGyMeN5nNncf9LL2IzaybtZk2nwUvP89dhg2kyfTxWzkuwWL6QhmNG8cCAgTR6YTCPjhjJQ4NeoOG4MTSc8BrmSxZgNG8WD458hQdHD6fVwtm0nj+Lh8aP4sFJo/nbxDG0Xr6ANj5rNLOsjxtt/N1pOmMSHUaO4EBOfdqSH52wu2zGTwHdO2dKeXHDcWzjv8FEdwbjxHwsEvOVT51l4inNty4uH/MESQp8EVOVR65Ii3KV0l6Jp7CIP6EUPotEUeDEB0+gTVPqlK+dmGB/RbNMLsIyuQBR82wTTmITdxyLeClLdlxVsjBLKMQsIZ9OsV8x/71THLlZSQVaJYnvgU7UHbE06aFO1SKXHH532cn6g3b3zw10YU9yyLE3i9rfz0cLzbgc/wyJE014rWdjxnRqhvdgC/at6sq+5e0JGdQU5z6PsGdFL2LGdWB+lwbkONpTFSkmVyNuR1hzKbw3G8ZbMq9vA3a7DyV6Ui/W/L0laR7duLjucfYtscex99+YbHc/zn0eJmeNA1fi+/HuYjtGWd/PTIcGBAxqwaLHHmZa1/t5e+ljpDk/jVO/hiSObc3NmF4Uh9lTHNSJy0FPETfGjrk9G7N2hAXzezfkk5UdqIjtQnmQNSURnTgR1hfXv7ck6AVjds7qwgyHxkzu2Jgxdn8jbmZ78mL7cDOmB9969sa5b1OcnzVh1/K/kzqvD3MHWvPKU11JjAxl44bNJKduZOOGDWxen8Sm1BQ2pG4kdf1m1q/fxIbUDWxYv149jOSB9O+29evXcze2jRs3EhYWpkAuLi6O6Ohopk6dyieffEJNVQ3+oeFMdV1D/KH9rP/yMD473+Kp8ROZ6enNqphouo0cwXJdAp5vbMPi+ecYOGc2wW/v5vm5cxjnsoZF4REMmD6deaGh9HptLEOWLWWFLpHVKUk4pybTa9RIFoYEM2zBAvpPmkjse+8yw9uLniOGM8PLi8deGc7y4BCeGf0aAydOxTEqlr4TJtJx5Ai83t5JypEcEjLTmbg2gIHz5xP90R62ZeewPjOD9TnZbP/6K5w2bsD6xcFMDQgg5qOPeXLCJJ6cOIlJ7p70GPEqqxOTWLNxIw4jRzAjYC2vLF3GsxMn45aUwgvTZzLTx4+BU6fz1KRJBL21i5eXLqPdsKH4vPsuqbnZzAwIYPKS5eQVFSkQrqws1/9AqKKqooqqyiqlYImK9Wdsv/Rj5qf2WQqoV1RUqL9HfhTs2bOHrl270t6+PVOnTFXj6PPPPqMwv4Dy0jJuFpcyfcUq2o4ZjpH3Kpr5u9LczxVjX1eazZnOA4MGYTrhdUwnjaPR0EE0HjWEv738HOZTJ2I04TUaD3mJR/oPoPkLgzEa/gqPDBxA69fH0GjoS7QYNZxGLw+myYihNB01jIYjh9J06GDue/pxGo8dxkPDB9F4wqsYu6+gla9AnQutA9xoMnMS9iNHsD/3yH/tEWOwttSbXP9/D7loxXvzihm/6UueiM2gR+JReiR/S/fkr+mWdJhe67/ksZRv6aE7TQfdeSyTL2ORfF6vsBVinZRHt015PL3jLE+/WUTnDaexTpKKE6LU6aHvV4CcAfZEtRMfOwmOsE48jU1iPlZi2k3J08y8sg+6ArrEf83C909z9EalqvEqOpxS4SQCVpp6L+ZYqflq0Oekr3/90hH40wNdmmMPlrS/nz0LzbkcN4DECeYK6F61a8Kcjo8QPOBhwvv/lZCBjdk5qwMnw/qzbqwl8zs/TPZKByojOiIJe4ujHDjp1RePfi2Z6tCAqPGdcB9sxpROD7Fjli1XYp4iL+RJQodZMdriL2yb1Zkr0Y9zbV0ndi8yY4zdgzg+bUziBDvWvmrJ/H4NCBpuxgdL+7L6mWYkTjDlWlwfVcWhOLQ9V0KfJHa0DXMfb0LAKGvm9W7Mx0vbU7GuO+Vh7SmO7sqxEAG61oQONmHnzK6Mt3qYBd2NWNy7NV6DWnHUpxu3Y/pSEPA0yePsWdqnCa6DTYia+TirRvdm8GP2rFm+GA8vH9a4euHu5oGXqwueri64u3rg6uaFm5sn7q7uuLm5/U+3NWvW4Ofnx9GjR7l06RJr165lzuw5fPHpfgJCwpjp7krCwf3ostOZERKC7cDneW7KVEYsXozNcwMZ5rhcAVrPMaNYEB7K5ow0Xlm2hBHLl7IgJJjnZ87Aa/MmZget5dlpU3hm2hSm+fmwJknH46NeZWloKKMWL2HCaife+/JLfDdv4snXxzHZzU0B3SL/ALo8N4gug/7By3Pn88zkyTy/cAH+7+wiJUd87jKZFhJMn0kTCdz1Fttzc9icnUXSwYNE7d3DzOAgjPs/i/vGjbzz7TGGL1tOt+EjmLDGlcGz5pCwbx9hH7xH97FjmOzrzbAlS3lxzly8129k8MzZTHZ148lx4xm5dBlvZuUwNyiEjiOG4/P222zMzWVBcCgvvjaB2AQdO3fsZPu2rWzbvo1tb2xn+7Y32L5tO2+88caftm3fvp1/1e7cd8O6Ml+md+zYoa6fNm3acN9993H/X+6nQYMG2NjYMHzYK4QGh/LFoXSmLFuBkZhTvVYqoGvi50IbSS48fyZ/GfAsD704iEdGDaXFtHHYrZxHm7Gv0OSFgTR/+SWsp0zk0WEv02bkMEzHjaLpiH/Qefl8WowdzkP/eIGHBz6F3ZypdFw0i4ZDB9Hw+Wf42zO9sZs7BaPXh9N49MuYuS2jtY+TArpWAW40njkJu1dH8Hk90P3Ss/AuW64pW99cLUOXdZaAA/n4pJ3FO/08nunncEvPxzOrCO/MSyzad4n+G88o06u5rgAz3VlMEwuxSz7Nc7vOMTOjnJnpZTy1LU8R4iG2AAAgAElEQVTVfjXTaTVeVd3X3wp0YsJNLlDgJj52WjLiAgWRFnWB7r3THL0pQKdFuwrUGcqDiSnZ0JQ59i47M3/k7t49QLfIhCsJT6ObYMK4bg14reMj+A5szScL7MhZYclXXg6cCu9LYUxfYse2ZFHPv5Hr3ovq+N4Q15ni2J58Oq89Szo/wqLejfEe1AzXgU2Y0ul+Qp5rxfnA57kU/hwbJzswp9uDfO7Sj9sxvbi1zp53Fpkx1eERts17ksKU0Xy9bhhRY22YY/8wu2Z1xfv5Nvg9/yhnAp/iZvwT3IrryTHfnjj3a87qAW3Zuqg3i3o3Iml0ay7H9OV2wtNcSxrIJ2seZ55DA7aMsef9uZ2Z1/0v7JjVmz2L++P8WCPiJTAk6EkuhvYjy7M7bzk6EDnJhjlPNecFu8ZMHz6Q745mc+nKFYrOXeJs0TkunD3HhXNnOX/uAufOXeT8uYtcOHee89LO/+828aG7fPmyUpXkgpPC4W6ursycOo0x48cz08OVlOw0gvd9TL8Z0+k7YQKLQkJZERvDP5Ys5LHXX2Oyny/dx77KgqgwNqQf4uUlC2uB7tnJk3DSJeK6PgW3jakMX+mIwN8MP18eHz2KhUFBDJ07j4GTp6D7+GPmBAbQe8xopvl403XoyziGR9B31BieeX0S7inrmR8ezpL4dcRIoEVmGim5mbhs3Uy3MaMY6bSayA8/IPzDD5gRHMQ4Tw9mhYZg949/MD3An9iPP1bqnPwNUzy9GDR7DrF7PmLt2zvpOuZVJnh78NKiBfSfOgXP1FQGTp3GFHd3npkwgSfHjSP4zTeVgmc9eDDeu3ax6fBh5geF0OfFf7B8hTOBfmvx9vLES5q3N15ePnh5Se91TzUJojH8Tf7+/kyfPp2WLVsqoBOok/bgXx/Evp0d06ZOY+fud5m8ZBkm40Zh7LWKplLyK8CNR9e60WDRLO4b9hJG86Zj7rQIU/cl2Hotx2LOFB585kkavDAQu8VzaD56GI2HDqL56KE0Hf0yDk5LaDp+BA8Nf5GHXhxAq9eG03bSGB4eNohGgwfQYOBTdFg0C6OJo2g0dijGrsto6eOsImQNQKcUupx6he6PfND+7t+tt0HeBgqr4XQFnNE3mT5paJWwu6iMMW8ep13814hZVUp3mSYW0S7xJC+/cxaXbytY800Fz/3zNNYSXKE7qxQ6c8lt9xuATtQ58cUzkxQm+uAMk5SLmKSIL95ZfgB075/mqxuVWsie8qGXICt9rlC9GdYAe7Xm2N/9IN57G/zzAZ2kLZk3Gi/lQ/cUact7s9j+fj5eaMaV+KdJGmfMxG6NmNLpQZJfNeVCyOMqB931iPZcCuvI5YiuJI9pyhT7+0l8zZx9i+34fJktn67uSOhLj+L2VFM+derH8YCnOOrbi+RJxqzq/DAZc3tQHD2YbRPasaTz/WQ496I4shvFsR34eIk502z+SsiLlny6sgdvzu7Amieas7LLQ3yxuidbZtmzsMsDBPZvzTvzbHlnoRVBg5szp/1f2DGvK1+GPkfEiLYsan8fySON+GiJPW/ObodLn+as7tmAI85P8MnCdizqdh+fLenI5ejn2DG1HY5d7idlqBlfOvVgx+Q2bJtty65VfZn/ZFP6tLyP+WNe5OYlLSii3sXgt1+cZ/LO4OzkhK2DA+NXOZKam87SzevpPG4s86Mi2ZyZwZacTLx3bGfAvNkMWeFI/3mzWKaLJyX9IK+ucWLUGieWrothyNLFLF0Xy7AVjvx93myemjmNQYsWMD8ijGenTWZlbCyvrV6Nw5CX+fuMafQeN5bRrs44rU+m9+tjcduQyuy1a+k5ajTPz5vH8wvnMy82itiD+0nISiMh6xDRX3zGxEB/ur42hj5TJ9Nr4ni6jB3N5MAAQj58n5FrnHEYOZxe48bRafhw5kWEszAqUqmL0Xv3EPjBOzw9ZybTgtcyYs1qBi9agMfmjQyeP48FYaHMDQlW5uWBs2bS5ZXh2Ax+EZ9du9mYk8Nsv7WMn7eII199w7Ur17h04TwXLlzgwsWLXLh4Sevl/T3S5AeANPkRJP3Vq1fZunUrrVu35i9/+Qsd7Nsz7vVxhISE8PGHH3Hi+AkuXruu+dCNHUFbzxU09nOhwVpXGq115aEVC3lw2kSMnZZi7OtEC/+VtPVdgcWKBTzy4gs0HDlE+dK1mDWJv44axkMTRtF0xgQsnZfSeNYkmsyYQLPpE3hwxBAeGDVMTTef9BpNxozAcvlCWsyezCPTx9HSfSUt/Fxp4uNKqwB3mk6v96H77XeGP+8nDME6socVlZWcu3aVi8W3VU435ZWuN1kKKgkQlQOHLpbw+vavsE34CsvkPAVXpklnaZd0ikH/PMmiLwpZ+EUhA7Yew1Z3EjOJbE2WIActcOLXQ10BZklSIixfpUcxT7qISdJFTA1QqDuLpS6PLonfME8pdFqZSuUgV10JVRWqxqsEXImxVRIRV6qoXn3ukj/vafnT7NmfEuhc547C8x8tVVDEIcfHWNjhAT6cb8HVuP4kv2bCzJ6NcX6mKbsnmXLNvzPVIVaUhZipklhl4R35YGorFjo8wMIuf2FFj7+ysveD+L3cBL/BjdgywYiL4f2oiX6Mkugu5LjbE/tcQz6bIsl/n2DfHFOiBj7AN64dKQmTJMAdSFthgXO3B1hmfx+eve7Hq/d9rH2yCe/NsKMosh9fB/dg/XgjnLo/wLIu9ykwW9H7YXZMs6EgtA8XYp7giHdXIgc9yuqu97G61304d7uPtX0bsG9BB65E9yVjhTkRz/+NnFWm3Ihz4HREb3SvtsWz50N8Oqcz28eY4dv3QXwGNMHjuZbMetKIJa+/xLVzeWowVSj/A/mvGom6q5HKKvom02qePuTd4Fx7r/aGq6vu3yc+UNIM8wzrvPvue1h27Mjo5UvQZR3C68O3ma+LI3TvxyRnpqPLOEDcoc9w+ecWnLdswnnbFoI+eh9dRhrub27H8803CHr/XdVHfbqPlRtSGeHqzGgfTzx3vUnEvg9x2phM5IfvEbh7J8sT43jd24PpYUFEfrqH2C8+YXlyAjGf7CHhi8+YFx3FCNc1zIwKJ2jPB8RnpxGfk0Zs5gESpYTYof0sTknkFTdnXl6zivkJ64j4bB+pR7IJ/vgDpgSv5ZU1q1mUGMe6Lz4n5KMPVGRr3MH9KsBixdaN+Ly3G4+33sRl+xZCP/6ANVs3EfrB+wS+8zZj3N14zdOd/jNn0nfyZML27GVTTi5z/AKY4biKC1euGA7d/1yfnZ3NnDlzWLVqFXv37FWKb92DUFJRqYBOi3LVA12AG42kuTvR3EkiVp1p4beGBgGraOTlSMP50/nbyGG0nD8TU6/VtHVbSRPHRSptSTPXFbTydKKFywpar1mJmccaWqxcSvPlizF2c8LYZTVtVjli7LaaVmtW0NRpmfLZa+gr0bXutPJ3V+DnMPwV0rLro1zrnqu7bdpw3xJfT7mPFRTks3nLFqLjE4hPTiErK4OaCqmdCtUVVdRUV6o0VmK6TDtfxoR/nsAq7hhmOg3oTHRF2OpOMXD7KWbsK2LKR3k8velbbBJPqPQmorCpcl4GGPs1fVKBAkbz5Dwskoow10kQhvjsFWKVlK9SqVgmnMEh8RtmvZ9H7u0aBZzKO06CIKoroKYCDejEBFtDlchzhodZfWTELw7bPzfQhfXhwCoHFjrcz0eLzLie8BQbXjdiSd+HeXtpB874daN0rR0EmlAd3JrycGOKw6w47W3HwZXt2L/IhoPzbTi4wIrMVaYcdTGl0Mea0pB2VErFiDA7LoU6cNzdjnxPS26GWXHW34ITbmZcWWtPeZgdt8PtKAxoT85KWw4utuDAQhNyV1iT79WVq4E9KInowvWIzlwM7swxV2v2LzTjk8XW5Lh15HL4Y5SEd+ZGqC1XozuQF9iFrBX2fLbQkuxFVpx1l5xyvbgW3Zlzaztyao0NV4LMuR5lwtXYTuSt7UmuYztOeXYhz687OSvs+Xx+O7JdniRyQg9WTnyJG+fz1UmWi0JT6eq1up8b9XJTlJeh/+abb1gqzv/duvO68yriMw6qtCUxWWn6XHPpxGQeIC77ELrDmSRIbrnsdJVKJC4zjcTsdKWeSa+1DHQqh5skIk4n4UgmutwMknMy0GWlk5ydwfrD2SpRr1o/V/K9paHLySApK52kbGkZxGemES/fJVUrsiWhsLRDxGYfIi4nnYRcyYMnOeUy0B3JJD4nnXVZB0nITVfbSshJ1/ZX1s1JJ1Hy5uUcIjbrEOuyD6n1E3MzSJTlmWkk5Wj75bnzTYY4reKllct5euYMJvj6kpiWzsbcw8wJCGTKUkeKzuujXMU8Iv+ULFA7+H7u0N+V82Wc1P0RcPPmTc6dO0dJSekP/x6VLghul5X/AOjEf66RnxvNfN1o6e2OkacbbbxdaebrQqMAFxp4ruKvc6fTdP4szNydaePtQitfyTHnRjM/Nxr5uNDE340W/u60FEDzdae1n4e2jrcrrQO8aOnrRVNvVyRRcQsfN5r4e/KwrzuNfD1qga7TiKEcysn54T7/P74zXF/1QRG/30GuOxYF6jZv3sSMGTPY/da7vPXP3ex5/wOKr9/guy+/5d3d7/Pxnr2cv3iRr08WErYznSHxubSLP6OS/4rJ1SSxEGvdaZ7ffZGFh8uZm1VC/39KTrnTmCedx0KZSKWyxK+LcFUqnh7oLBTQFWKhO6dSpUiKFPkuqTghZtwOSSeYvuc8B4tBYsVvolWVkKuqlBrEjFyspoVPRZWQmrBltXnpfr+jeu9t6U8OdP34YmVXFnV6gD2LLLkZ9zRbxhqx+skGZPg8xq3YHlQGm1ET3Iqa4BaqDmtJmAm3w20pjmpPVaQ9hHWAcHuqI8ypDLeEUFtqgiypDLSkNMSO0nApr2VPcYQRxZGtKI2wpCKiA+WhAnQWlIZZcjvCntsxnbgVa8+tWBuKo20pj7SjXGq6hlpTEWpFRbgl5VFWlMW0oyS2PSUxHSgPt1aluirCTLgVYcyN8HaUSMmv6M7UhHeCsPaUR1pxI9xcRcdWBXekWuq5hptQHGZOaURHyqMcKA23pyTcnrLIrpSGd+dGRB+SJ7dn2WsDKTh2hNu3b3H91m1u3LzFzZvXuXnzhpq+dlPm3eTmDW2ePJD+l9qNGzeo2yShsNwM5XXq1CmltMycNZuxM2Yy1dODdWkHVMH72NxsffmsNKJy01Q9V5UoWKo/SOksqQSRla6SDMv8dVJ2S/XpxGama0Xvc7OIlRJa2VqS4XVS0zVdIFDgShIFS83YNAQe10nLSEOtI9vJ0rYfk5NBZNYh1aKy04gyrJ+TqbYdn5tJ/GGpO3uIqIwDxGQfZF1uOusOZ6gWmyv7cog4fS9QKE3WiZX9kmXZacRlpSm4iz7wOUs3JPN6oD9zY6IJ//gjUiQ9Sk42s9cGKaAr1CcWll/N9zLQyQPU0OpCXe0jQInhooZXq8LjMv+ngE7ArIW3G6083Wjr6U5LLwE6N5r6udHU24WW7s4qmbCRtxutvV1p6eNOc5UYWNZxp4mvG8393Gjp60FLbze1/FEfd5r5uNHU34NGvp408HejaYCbqkjR0N+DBn6eNPbRgK7p9Al0GDmM+sTCtWfurp2oOw4//PBDFi9azPrEVD59fw9FZ05TcPoU0eFRBAeG4eLqQeqmTSRs2MbQRf78PfhTOiTkYyUBDzqJRC3CKqkAh9Qz9NlyWjWHlNPYJBVimXweS4lyVaXC/l2gK8JSJwmH5XvyVFJiiXA11hVim5zP0LfPE/RtGZvyy9hypoTtp0p443Qp20+XsPVkMTtO3+LTsyXkl1dTWlNNVY3odfVixS8N3j830EkeuhW9WNjxr+xd0I5bMX9n66smOPVpTKZXD26tc6Ay1IiakEepDG6r4EvqplYJvIXI/NbUBEpvQnWYEdUhluBvDQGWlAdZKGirCmlPdbApVZGPUhbZgrIwE8qDbKkMtqMs2JjyUGPKJEo20oLbERaURJkp+CuR+SHmlIWaUxlqSkVIW8rDjKiIMKIs1IRymR8i39lWpU0pizCjNNiC8hAbysItqQoxpyZIPifbN6YizJKqQGuqA62oDjSjStaVGrSGdYNlniXVYTbcjmjHxmkWvPKYGT6rFhIU6I+PfwC+fn74+3njH+CHX8BafNYG4bc2gIAAHwIC/AgIkOl7u4nzuqFJVKthWpzbo6KiEFVOoly9vb2ZP38BaelZeAaHMdXDg9iDB4lWJbKyiMrOJOpwBuGHDxF5OF3BlJTyMpTPipXaqAJfh7OJzspQ9VHVMn291Wgxj+ZmEilQl5upAFDBXlaGNp2TSVS2VkZMgzptvoCi1FqVbUn5sOicDPU98l13NoHFdbkCb7JeGtHZh1QflS0QeJCYHIFAbV5k5kEFjwKj0VmHiM3RegHBWFEks8S0K2CaRvShL0hITyM5K4P4jAySs7OYuXYtUx1XUnjOkIfu3gY6uXHWVUXuhLvqKs2ELw9ZmZbXj4DO9/tKEa293GjlrYFYY3935ePWXEDP35NmorCJOuflQktPqRohapu+tJe3Vu6rhVSMEKDzduVRL03FayKmVX93ZdJt4utMc28XGvu60dDbnabeHrT2Ex+6ibR/dThfHK7PQ/dLD8M/83IZZ/Jj1DAm5Yd5eno6/9yyHV83D1JTEtm1awdzZ83D290fF2cPgkJCiU3dwHT/BIan5GIXdxKrpCKsdAJt57BKEXArwCrxDNaqDqxUjxBTq/i6FfwA6Ay56f6lP50qKSYmXUlOLNu4oLZnIWlMkk5jmXyWNikXVOBEl+STPL3xNH/ffJqBG08xUKY35dF/0xkGbjjJSylHcfzoJAeulXND/AXlB1Y90P3iEP0DgU4zEirm/kGliBvU+tCF9eXAqq4s7HQ/n8y3pjh6AFtHmuDc92EyvDpwPdqOimBTagJNqAiVOqwduBVsQ0WoNdXhFlSHGVMeZsrtCDOuR5pSEmpPTXAHqoMsuS3mWYGlwHaw1pSqECNKw4woFyAMaU9VcCcFhtXhRlSFmlEcakGpKHHBJpQGtVJAWBnantIQaypCzKgMNqc8yJKKIBOqAk2pCWpHdXA7KkIsKQ01U5+tlnUDjbkV2paySDMqwmwUPFYFChQacTusLVVBJhBoRsVaM26GijpoRXWIKaw1piLARMHljUgrNk43Y1gPUzxXLmCtvx9evr74+Prg7eWBt7cnnj7euPv44unjibe3m5onEHOvNwE3Hx+f2maAOkdHR1555RXWrVunwG7KlCl8/vl+dYH4hIQxzd2DhEOiXuUQnZ1FRHY64blphB/NIPJoBjGHRZkTcMoiUmBO1VnNIvZwDlFZmarJ56JzsonIzlQtMieT8Ox0IjIPqdqv63KzNOUvO4OIrDT1HTEyT4BQ4FApb6K+ZSqYE4ATWFS9HvAE8qS2q/TSZFlkpoBbugaBAo8CkVKi7EgOUTkZhIuyl5upyngJMEpNWGnyPdJkv6RWrJQWSzico5U1y0wnISMdXW4OKYdzmK6vFGEo/SXZou5lhU4Gxp0PUQPUqV78VPUmWcnBJ687ga6x3xoaSvkvf61kl5haGwa40tBfX4PVx5Umfm7qvQRQCJAJ2DX3c1EpTyRKtomsG+BKM38XZaqVuq1N/CR6VpoLTVX9VklT4kRrVQ5MlDqBRA9a+3vQZMZklbbksyP1Ua7qJN3F/xmArqysjEOHDql26eIlNm3ezCLHxQRHhOK4zIktyTv4cNdeDh1MJ2n7myzVvcmoN77CNvGEBmrxeSrBr6QukfquUsbLNPkixonnMI4vxDyhACudJAgWwNODXWKeMpdqgRIFWvSrvkqEAfaklwAIUxXVel6VA9MA8QyWOomuPU+bDdcwSr2ITcJp7OOOYxf/He3iTmAbfwbr+EIsEwqxTcjHITKbyW8eZf/VMkolI121VPaRMA/960euHnVnGKYNK//v9H8M0En2Z9WE5OTOKU78MoEyH7rOfQ2vl9pyLuxpvljVXfnQ7V1owa3YAWx51YQ1fR7hiFcniqPtqQqxoFrUthA7SkI7UBJiS1mwJRWinoWYUhpmTnGkFbelhdhSESwQaEFJhCklYeZUBFkrwKsSIAuRZkFlqJ0CrfIQUdCMqAwxVWpZmZhYg82pDjOjSoFcO8pDrFWeu8oQgTkbKkMtlRJYJSpfiD3ymfJQMe9aKvNsZag5yiyslD9r9V3VQWK6NaE4wlR9lyh0lUEWlEbYUBJuqc0LNqMy1IKyUAuuh1mTMqktjmP7c+7UMSoqyrlVfIvi4luUlhRTWlJKcanWSkqLKSm9hfSlpaX3fJOSXsXFxaq0l0zLzU+Sw4qJdd68eQwZMoTJkyfz1ltv1ZpfPdYGMd3NnfhDB4nNySYqW9S3DCJz0ok8nEFYziEilbKVSVSmKGvZROdmK7iLyMxQECcgF5ObQ4z0OVovoBcj62WLQqdv2Vmsy5HPCoyJ2VXgSsyzosplKtCKFpWuDrQZIK5WAdQreAYVT5YbltXtBfJEBRSlULYnzaAmKqjTf07BnX6ZfF7ANU5aptStzVQ1XmcFBjJ5mSP5Z7XSX3Lh/i8AnQHa7nwkGIKM1HzDvetHPnRraOQv0OWKgFhj3zU0knJgAmoK2txo5LuGhgJpkoRYgEwiVH3XqAjZxv4u6vMNfZ1pKPN8nTWAU1Aon3Omia8LTVV1iDWqtmszZbL1Qnop/SVRru0lD93heqC78xzebe8NJldJki2VbuTH6pbNmwkLDyMhKYHDR4+yMWULcaGJpEQncSTnKO/vT8PrjQ+ZvC2dnjFpdIz/ho5xx+kUdwKHhOM4JBzDIf47OuhOYZOUh4WAnC4PG52odqKsnUDUtH6b8+i3rYCOG89gkXxGgZ6oe5ZSPza5QKUmMUmRXqJcJTGxmFtFoRN/PKk8UYBE1honS+TreVWazDopH8ukM3qFUHz6zmKZeBarxCLax37D+F3fKaArEz+6Gr0PnYHVVLCEUoLq+I4L8NXNYHe3neH/fH//AKCTMyKujgJ1eqATk4XBbFF8C7d54/F+yZhzof3Zv+oxFnSWShHmXI/rzyapudqnEV95dKE8sj3VIQJXZlSEWFMeaku58mmzpCLUQrXyUDGtWtY2UcykiX+cLKsIsVLrKSALlc/Vbdo2ZFtqO+qz+nkyXbuuzJPtWlERItvUvuP75fL9skzbL/W9+m1qn9O2VSYmVrXfhs+ba7AYaq4AVQNOzd9u/URjVo97juvnDGlLNCD+z4fEvbkFST0xfvx4unfvrhLFCvTJq7KyCs/AYKa5ubHu0H6lZAnQCVxFCdDlSpPpTKKzBIhEZROFLJuo3B82BXUCdNlai9X38l6m67afnve98iaQ9kutLrzJtGH9uvMN835rL+bl2Kws4nKzSMrJYmaAP1OWOVJ47nztAFH31jo31toF/wsTdS83/bQodLNW62u5eq6kqd7k2szXVZvWvxeFTVrTOr2s08JXgzq1vn5ZYwmgkKaUOZfaz6iAC1+BRFfNn04CIfw8aOrrRTNfT5r5uqvSXy2mjqfTCDG51gPdvTAsRaUTsLt+/bpKkp6ekUZOdiYXL16gqqqG84XnOZyexVdZOVy/eo3CKzfYf+oCcYeO4/TRtyzeV8jCvedYsuccS/YVsWRvHsv25TH147P02XIKi8STWCTkqQAGiySBumM8uyWPaXuvM+PAbZ7aWYh1yikVLCGmW1HxTFPyMU4twDg1H5NUAbxCJKmwldSV1Z1XdV+VcqfKiRUqPz6bxLPKLCvrKohMLMQmsUA18d+zjTvOuF0n+OJqGWVy4lTt6Gqq9WlMNLVc3lcr3U6zF4hSbgA6gbu6F+m9cPZ/+W/47wOd9hSgSkGdeBYL34ljsSan3rp9A/e5Y/B+qQ1nw5/5HugWmXI9/hk2jdGA7kuPLpRFdtSCDpSCJj5nEqBQF7TunmkFnWr/BTAN+y2mWK0pqFSg+D3QrXrtOa4WFamzLGWOJTGjGsOGcawPfdUbx355NNzDa0h+NEkUGx8fr1RK+VPlplBZUYlnYBDT3FwV0Gl+b5oPXfR/AHR14e3XTmug+MsgZ4CzuuD2ewOdwFxsVrYe6DJ/HujUgNMPtHt4/PzoTzNcY2ogaUvrAp2RHugE2kR5E3OrUtP0ICfzDa2Zfh0BulqoMwCfgrYfAp0CQf188ZmTAIkmCug89UAnUCdA54YCuuGvcKC+UsSPTuHdNEMDmO/N/Hfuu1yBknNOeu0lU3Ln1yJGC8qqOVZczdcl1XxTUs23xTUcLanmSHEVX5ZXsetKNSPfyccy7htMJXAi5TLGKecxScrj7zsusjyrHOevqxj87nlskk9irpNEwRcwTzqHWUo+ZilnME05o/znLHWFWCtAk6jZQqXmyTqmyXmYJ+Ups6+ocOJnp/LdqXJhmt+epS4f06QCrOOO8fru46RdFX1OhJ8yqiinAnnSVVOpQE5gTkt9IjVhtaoSmuXghw9CwzG59/s/DOjkJKnHgDbuqJE8NBKyXHwFj3kj8Hy5JQWRz7B/dS8Wdf4LexYacyP+KTaOMca5X0OOeHahJLqj8nkTPzmluIXVhSEDFN0d/a8BOgE9MbtKvVhR6OqB7tdfoBLhevLkSRXlK5+SX7nykl+89UD3Y4isB7pfGFs/A3SzndbQdsxI6oEO6tOW/MIY+g2LDaZ/6eWeZfCnk6eo2LsE5iTtR5kAjkSFVpVRXVms8tFVlldSXqFP1KuHPtGxxCtN1C/53JESmPbOKezjjmKRqAU1mCSdwzSpkIE7LrMypwLPYzUMfe8sdrpjWCSexUx3GdOki1qpLwl6SNJMsdaJRdgkFmKroC4fq6TTWCSfxixF2hnMk/XpUJIkErYIS1Vh4qzyvTNNycNY0pzEf8v4t4+TeVX2sAaqSqipKaG6pozqmnL1V2uOW/r6r5r1VeM4PQKQEEsAACAASURBVFMomv0Nx/heWPUPAjr57aCV3lV5rERYqhG+rqa4+BKuc1/B9eU2nIocyKdOj7G48/3sXWjEzfi+bBpjxJq+GtAVx3TSg5wAnbmKFP1e3bo7QM6wv78Z6CbUA91vuQDlRmh4iQ+K4YaomVzrFTqD6mfo64HOMFp+pv9+OGkPkR8EReiBzk8zkdYrdO8pNVyOZN3r8GeObP3snzkC8iPU4Ecnx1E1iXwVwKvRFLrSmhpKqsX+Vc7N6xf44tOPeWvbNt7a+ibZaTmUFUuWtxoqqispV0l8tYF84ibM230M++g0LBK+U6ZUiYgVP7cBW/OZs+cii/Zf5IXt39Ih8RusEgsx013CJFmrBGGlO6PSk0jeOivdWawTzyqos0nUpywRVS/llKbkSSUJMcuqdaUvwDT1LCaphcpka5zyPdCJQifwiVjwJB+dSj6suWtpxCDYoLLq63s9sSq16GcO5D08+w8COoE5rbyHes6q86GdgeLbl1g98xVWDjblm6ih7HV6isUO97NvgRG34vqxZbQRLn30QBf9PdBVhJkpfzMDIN1tfT3Q/XeuMrkJyk1RgE6y4kpfr9DVK3S/efT9C6AzGlsPdHI86xW63zyq/uUHaiHO8ONU+uoqcQRGiE64RioGiflRnq/p6V+wasUStm5KZecbb7B18xbOFxWpMn2fHTrA/sxDXDx/gWsXrvP2we8YvyGN9nHpmCed0KJYE/NppzvFizuKWJZezIqcYl7cdZqOOqkoka8SB5skn1WBEFLyy1xMp0niG3dO70NXhLVOSypsmXwKi+RTSBUJUwmQkNJi+qAK6U1TZDsSIZuPiVSWiD/OmHfy+ORGpUo+LBgqYCcQJ2qkeEDLPJnWXI2kykSluqeryhLK/ajuRfovD+09s/APADrRRgXmKtSgU4dcL5fKdFnpLQJWzWNiH2N2O73AO6ueY3GXB/h4vim31z3JtlFGuD7RgCPunSkRoFNBBGYqtYjkdtMCD+4udU7g87cA3e1Qe1InGNWbXP+Dy1BujvKqB7ofw5yodOv0PnTrcrJIypU8dAFMWbqc79OWaMKUCmzSnCf+g7NxF3607rNCP21IW/IDoFNBCy7fB0Xofenq+tPV+9Ddhef/D9plA9RpX689SzX1Ssoa6nlGv28ZGeksWjSf6JhIPj+wn2+++5azZ8+yYdNmAiLC8AkNJCU5hV3b32PK8hAGBu3CITkXczGNJguYCZCd4rH1pxj8z0Ke25FPt00naJd8Sstbpw+IMFkvQFaEafJZ1cRUKylKFNxJfjvxm5PIWNUkT12hqiBhrtKiiF9dPiYpRWq+hUwnFmGdUMhLO88Td7qcj65WsPdyBfsvV3LgYgX7L1Ww55I2L+taORfLRY+spIJyyqhUUzUK/+pepH/QCfsvf+1/H+hUbKu4MmpujOqQ6weiROmI3ftYZhoe00ay6HlbvEd0ZmbHB/lwYTturevP1pFGuPdpwJcCdFGdVGSpStIbYk71PQ50lWFWVErlinqg+90uk6qq6nqF7iciau8Euln1QPfDMVf3WXEH0NX60InJtR7oeO+9epPrDwfP7/VOzK6SbFgC4jSLg/Ibk/FYA8W3Svjss/1EREWxwmUN0YmJfLh3D46rnfAIXItLgC+r1rgSEZ7EfN8UXtHtxy4xB/PUAszWiyn1AmZJhVrOOElrknwKk2RR0M6qWq3iM2eWfBKTVAmIECATP7giTJIKMUk6i0lSEWaSoLhWiRPfOVHyJBhCyoIVKMXOLCVP+c9ZSNSsVKdIOE873SW6S0WJ7ccYvT2XUdu/ZNS2bxi9RfqvGbbtGCM2HWbVe0c5eOkW16mhhGpVOkzQrqZG9Ly6F+nvdcz/3Nv5A4BODrPYwMsV1Gk/K/S/LPQ/OKisofCrw8S5zGNUT1P+YfoA7yzpxvWEQWwZZYbr449oQKcUOkkHIjBnQXWwJZWSg642SvTumf5XCp0kLtbSsNQJiqj3oftdrqx6oPt1Cl090N0x3Oo+K+oAnaQtaTN6OG0lyrWuD12dqFZDdKuhr1fo7ji29W9/1REQdVwiPkWdKhcXJiXRaRxTU1lD3ol8jh75mosXrvDmzreZOHWaSkC/cPESgiKjWbdhA1t37CZ163u4pe7h9X9+TbuEI5gnF2GkO4eJ5JFLvqDSjIhvnEnqeVqlXqJN8hXMdOexkLx1qScxSz2lrzghpcMkpclpFakqZlRR7QTgLCQAQsqK6c2yAnRaEmJR7KRpOe3E584q4QJWSVdppyui87ojOMRmYh//FTYJx7GN/w67hONYJZzBLvpLRmw+zAdnb3BLH9xRrqzQkgZNjLP/e6//OtDJvU8LhxCgK6/ViDUpuZrqSjkZyjDO9bOniPdZwUv2jfnnsie4lDiE5BFmOPduiKQtEYVOy+9mgeSRqw6WxL93D8TVBc9/BXTlIWa1+elqo1zrge53uVrrga4e6P6tgfQTQFes8tA50frVV+qBrt6H7t8aVr/lQzIEv5dGxG9Ob+qSx2dVDelpGYQEh/HG9h3oElPw8fTmg/feITUpkYT4OGLiE9jz6X7e3ZdBwBv7Gb81l04xmdjEfod1Qh7W607SYd23OMR+hV3sUawTvsM4qQCTpEtaFQjJK5cqFSBO0j45n54bCumzpYCuGyR/nZarzkyZXgX+pKSY+M1JuhJR8zQTq0o4rHzqBPbysVFlyC5irruKVdJF7BNPYpd8Sil4xsnnVXJi8dEzSrqCxbo8hm45zkdnb6mIXfEfVOlsy7/Pa/tbjue9sO5/Hegk9EEMruJDp1waxXlRH+VaXV2mwqxFtdNnleBw2icMfcKcxPmPc1b3CsmjzVnV+2Fy3R24HeNAaZgNZeKDJubI2uS9dx/U/Sugqwg1U1UsBAClEkVJeHvWTzSp96H7Ha7AeqCrB7p/axj9DNDNXOVEyxFDaeOxQivfZchDV6/QqcNs8F39t455/Yd+cAQMPnPyrFTFSuRZqhBPol4ruXz9KofS0/l4zx727d3H8W++obT4NkX5+Rzcv599+/aQn3+Gcxev8MXJ8/ju/Yppb33FlF15TH47j8m7TzNt1ymmvvUdE3Z/x6j3C+m3NQ+7+DPYJBRhrpMghjwsU07Te+tlxu4rY+ahCoa8cxWHpFPY6PJVzVgLqRqhV+mkaoSocdIsdFJXVvPVk0AI82SJlBUQFGXvCubJl7FV2ziLceplZQKWGrNSa9Y4+QoWcfm8svVYLdCJDlSlIkMqoKre5PqDwfL/9UYDOmE4yTsnMSpVCugkQqWmppSa6gqqqqtRkA2cyT/BlFefZc7ANnzh9zxJr9uzuu/D5Hg6cDPGgeJwa1UeqyzcSiUWFsVO4K6u+qVNSwmu/2PvveOzKrZ38b9+93c/935tHD0WSEISil1A5CgWrMeComLDrqCox6McQZSa0ENNoaS/JXRRioUqXQSBdEpIIb0SQkjPW5/7eWb2vNkJQcEjIYT95jOZ2bNnz8xeM3vPs9eatZY8x/PC8T09M4i0PG7tGjuvOWudCjjSXZgMSjTqqUt5jVDxWcTBTYCOxpHZf+lZwiE8T3jDJkCdbKMhrCeWvtsZY958AhVFhWKoqNVEZRMlwhaZXHTEtkQtcaEG9RKul4Buyrx5GDY5EJH792BRcjwW0Fer8NuqeYpIOYiFyQdFHvPPxVPEuRoT1pdrT4aFuYcuKiFR+Je1JMfDI3Jt4SlCbFNRop5LeB6cd9dbAXT1jTYQ0P3tpUG4fspXuEYDccJsiQHoBIkNQHfeM+3sF3AOqgVVSLUUu0QqCNAIr7DVRu1PasPK1VZcIp9b7WK3DQ0uJ7Jq6pBY2YCk03Yknm5EQrUdB0/b8dtpG/ZW2/FDlQuf7ipB78jD6B5Fu3NUfqBXiBz0X1WOD3Y34qt4O15bX45esenoHpsNP3Ll6NJLcOikkWFqslLTldf7megirBidBccuF9SGpdJEZ2s5upjL4M89eNYydI4jV7AA3WOy0M2UjS6WUnSNzsaLK4/g55IqYUuPYmdaqHO7ad5E6L+enXYd9Eybc+hIRwkv+J+TTPNuIHIJSKR7DwJtwcdz1GL/7h8wdugzGDe4F0Y95IMv//G/kTjtTpyOvAM1C7qiYb436DarMdQfDWHd0BBGN2AaqBNAiqDMHw2hPMfgi4YwHy3msT8aCeyEKzDNhVco62DgdX66OmV+o2iDgM5HuB5zhXaBK7Sz8LvqCKMrMF/hM9YZ6ivEwfZ5PlIcHCxdg1FEbAv2FuXIWVSgkW020h9tCP3E9oA91F8DeNTg7SLaagztiWXvdsGYNx7HyaICMTXd4jONqtsUaGsYWahu88j4nY0CdqcTk0Lm4f0pgYg48CsWpiQgLCkBC+hrNekAwpMPYFHyASxI2Y/5KfsF4JP+WumPtXlQ+Z64hbsvPXhrmZbuwtqR66+EBMTEJyImMR7W5IP4ZO5MDPvyS+SXSl+u8hnWHmY14c5G5I6YTwJoty9eXTTUapOuv6595XncOPVrCeiUOy8D0El6Efwbv7+OAiSnev4EbQWfymMWTPqKkM3xNDlYYgS4vrrccDntcLlscDhssLmcQm5GVgv5WyoQGtEIcT6AyQdKcFd0CrrG5oAeIfzNhegWm4f7vynFF/E1mJVehw+2VaBPVDq6xRwXSg6+sfQYQfBGECe1XGmQ2NtSJsSwFMESGFLrledp/sSLihOa0WFvKltYiuFryUcPUxa6mY+L/Xc+MTkY9E06tpRUCwPJ3EPo1OzzNWNs/HXUbvc1XRRAd+5U4UzltGpAeuJehHz1EQZ2vxaf9PlfiJ9xFyqj7kL1/C6wz6dTewIkPxBoNXh8onJvneavNYSi2W4C9DUKP65dBIAjCGQgR80R4gVHiLe8RuOkkXPWGErw54PGUHLKugpwVx9G8Ehwx+u84QzuAicBXWgXYQ+P+XaeDyHHzR+OMLbhJ8TCCjg6gtkW2/SCI5gxOXCS69cY0hUNoi1fCO4jxco8H8L+3Ixl73r9LqATH2wCMBMknzvFL7eSBHSTgyWHLvq3vYhITsB8cuiSEhCZeBBRiQcQmUggtx8LBLhLOAPItQR2nmOdL1fl3/V34yTWHX/OYVGixjVscY3Kb1mXMhr8h3EizZYkSkCXREAXj0/mzsKw0aMMQKceEO2ZUosjsxWg+/srL+CmqWMEoFM+Wqn4oJQgWsaGUoQiqhFfSAookyeMlYFi+rQ+evQotm7dis2bNyMpKcnjTUcT74iIKzG9OE/eW4o7Yg+jiyUf3mb6Xs1HT0sB+q4swLs7i/HVvmK8taEEfcyZ8BecNHqdKIGvmYEiWNqjI2ijWROKYgulzTv6dGVaH5inglCoKEA3Sw78LNnCZp13TB6eW3kcW0pqhKyP65wQFvChvEzXvPYN6Ii2XQ64HeQ8OXEi9yhmfj4En/T/P9g/426cjuqD+oXecATfBOdcgqNusIWQM0fgQ26WDAIoEfAJThgBE+3WdRbcLmewL5zBVKigpmwXT/BcG9oF9tDOsId1hi2sMxrDvFEf5ot6inrD/EW6IcQXNgKtEF/UEyAuvAX1C+/A6QV34dT8XqgIuxMnw25Hxfw7ULngDlQvuA11C28T5WwLugtRMZU5nPN84BIarTegMezvqJ//dzQs6IKG+b4SiIb4wx5CwHqLAej+ojcf7dBNnzcPHwUGwrJ3L6ITE7FQA2LR8fGIiT+A6ASCugMITzqIcAG6mnPmPACuJcfufAFd4rnVq9oj6GytP2fL/10w2aKvkQlJwpersEOXEo+PBaA7C4fucnyBaguGiLR0ncahu/6VF9FZALoAGIBusmG25C96V/231egBnRJ9Z2ZmYubMmTCbzVi3bh3MJhOYV19fh/SjaTiUlIrKimpU1znxW/YpjPgxA7dFHxEcsq5xRfCnIoMlF/euKcFHCdUYf7Qab+04hTviMuFtOY4b4vJxA33CUjnCmgcfaya6MlBDlnboFGD7vVhoxkrfr/Rc4WfJFXbrvGPy8dzKLPxcUiPYPgagA9o5oKNU1g03NV+1l+aKyOl454FrsHPaAJyKHYDasB6wz+sC5zyCNCkOtYdQzOkFZ8hNcITeCEdoZ9hCu6AxzAt2jcslzZx4SSAX7AW3AHS8RnHpvOEIpbkQFbrAHsY6KN71RsN8H9QzhHVFTagvasJuRvWiPihfeD+Oz74X+8bfhdX/7o6Yt2/AgleuwYJXr0HMW9dh+fAu+OEzP+weeysSJ/dC1tx+KFv0ACoX9kV9WE/hwqxx/g1oXHAtGudfK0Akxb6NoT2EGLaBbc3vjiXvdcbXvyNyNTh05/b6czmcCJozD58EBMKqAF1CEsITk4Rx3Zj4g4hOIKdO7p1jfEFCguSKRSWw3YsfIhKTsIgANSURppQEfDx3NoaNHo0CbQ8dH0cPmPEcnBvNO0Qp7X3koQGt19ts+GT8BNzw2mDBobs6yAB0kycbgK49zXfFmWPM3+HDhzFy5EjExMTg2LFjAsydOHECmzZtwrw5czBnRhC+XbEGW7bvx4cT5+PxmevQx5QOX2uRcA9GpYVusTnoszQXT/xQgGc2FODBNcXoZqFYlIAuF9fHFePGxdwHVwDvOAK6DHQV/l3PHdB1sRShi4XmTEpEu53jiiE5dFnY6gF03K6lKYi0J6K3YV/aOaBzw+10wOV0wCH0kYHtm9fgzcduQeDzXZEw/WGcnN8fdfNvhW0Bxa0Ui2qgLpT70yQIIxCjyLR+PsWY/rCF+MMR7KeJOLsIManQJBXiVXLD/CRHzLOPrhscvCbUywMQZXly6m5GzcLeKA3rj4NT7sHyT27BzFd98dVzvvji+dsx5vX7MPatBzHmzQcx/q0HMO6Nfvhq8K0Y+Yw3xj/nhVmv+iP2wzuxbcK9yJxHcNcHpyNuQe1CHzTO7wxnqDec83zhnNcN9mCKeb1QtdAXce/fYAC6v+BBcTidmDZvHoYHBsK8by8ik7Q9dCkENAmISDyIyMR4RCYmIJx74qgskJiA6ISmQAUC/THTQqkgUZZl+T8M4hoCuWQRouOToQ/Mb3ncWl7LMp5jdf3ZYranO0dAuzApEQtT4hErAN0cDPtyNAqLKXiRaE6CGb2c4y8YkEulitYAXSMB3UTcOORldJk2FtcYgA4GoGtfE5pAjoH+rMmlq6mpwfr16zF9+nQRVq5ciQMHDmDK1CkIC5kHS/QiBE2fjpBFJrz99Uy8ErED/SwUpxbCn/vaYgqEV4eesbnoHpMJn4hjIOeMgK+rlRqw+fBeTK3UUuHuy9uSCx8aJNbMlzQTuZ6NS6ftqaPf2K6WUviaqTRRAp/oPDz/TQa2llRLDp3me0p6em1fdG+r3rRvQEeNFZcDTpcNTrdLbHisqa7EhpVmfPXyQ5g0sBt+Hv0PFITdj1Pht6NqkR/q5ncVwM4uFBO4f45KBv5oCOmB+tDuqKdSRCj3tfkIjpstrAtsYV5C65V74lRonM9r/GAL7gZ7SE/Yg3vCGXoTXKF/gz30JjSGdUf9grtRHnw/Eifcg2XDbsaU5/0w5rW+mDd+KNYtX4hjiXtxIi8Lp0rzUVGSj7LCbOSmpyJl7zbs+H4ZViyajuCvhmL8O09izMu9MO0Vb1g+9se+Kb1REHY3qhfeKvbduYJ9BAfREdwFjaE3oWpBVyx+/0YD0P0FT0mj04VJIXMxbFIAon/bg/DkgwhJPoiwlAQsSD6IBUncp8Y9dYlYlETOXaIIEQmJUIF5Ki1ilkmQ5RZp5RmrwPIqrWJZrwSNqj7WIeuV7UYkJDU/TpTHqpy6LiKJ+eoarQ7Rx6Y8WbbpmO2oPKblPScgIiUeJu6hmzMbH4wioJNKEUK8IehPZCPsDv0Fo3EJVdEKoFOuv256/RUD0Bl26NrdZNaLXNk5Arvy8nJkZGTg+PHjYg/dp59+KkSwI78YiTkzZ2CpOQrLly+DecVqjI9YiX+vSUO/2GPwiy2AL/22mkvgbS6Hv6UM3anoEF2KzjHl8DGdEBqq3Uw58DNzb1wpupqpGFGIrrH0IFF+5h663wF0wruE5QT8qBlrpi/YYnSNaR3QSbNo7Y78bdKhdg3otKVCqF7TLIeLZjm4ktgacHjPNsz+1xsY8YgXzMO64VDwvSiJ6o2qhf5CHEqzJI0h5ML1gG1uT9iCb0VjyM1Ca7VRiFGvhy3sBkhAR/Ml5MpJpQqh/BAmTYVQW9XJvXnzuH/tRtjm34C6hT0FZ/DI1AFY8f4dmPSEL6a+9iBWzBmHQ/t+xunTJeJb4Q9H0OFAbWU5jh+Ox+ZVJiwI/ARfvtoPXzx+PaLf9kLKtN6oXHQ36hf0RCONCwdTfHyT0NRdSpHrm4+dVcvVELn+IfVFgXqnAwEhczF82iRY9+8V4sXI1EREpiYgMjUe0SnxiElOQExyImKSkxCdnISolCREMU5O1mKV1h8nITIlWQtMq2MVq3OM1XnWnYio5AREJTNWQeWzHebJ42jPeVVOu07UwbIt62E5lcdY1aeuT0RkciJYb0xSAkzJibCkJmFZahI+mzsHw7/8CkVFekCn1OsMQMfJpAAdOXRUijBEroUGh+7cXkNtUoqATnHo1B66I0eOIDw8HN988w3Wrl2LcePGYdmyZVi0aBHmzZ4Dc0QEfvpxE37cuhdBi9fjP2uOoH9kCnpEpAvPDb7mHPiY8+BnykXP6Dx0C89H1+hS+JlOoKe5GLcIxYlCISrtZirEbaYC3GwqRA9ruQCE9ByhuHTSx2shvDW/rl2FSZRCYa5EGiYmaCwSxoeFuZSoHAxakY5tLTh0BHT0Ino5/to9oCMwkeCEi0cj4KqX9tZcTpRmpWNFaCA+HNAZX/7zamwLuBsnI+5H7aLeqA29BbawnrCHdIMztBuE8gP3zwlt0pvgCrleKEbYQ6il6gf7PD+tjDec86mxej2cYX+HPfQGNMy9UShUNC68DVXh9yAn9CF8/0VvfH7/1fjP03fiu9DJyE36Dfaa08JsCCcSe+sWRpPJZaRyh1tYseZEEyZZPBNOg63ORlRXnEBa4j6snD8FI1/og3/d93+xeJg3ssP6ozK8N2rC/OFeSM3Z7lj21o0Y8wYBHZXJ5dcWXE1mSwxAd26Pc4PTjinBczB09JeI3bQRsbt2InznDkTs3oHwndsRxbBjJ6JF2IWInbsQvnM3wnf+ootVnj6/ZZ46VrG6ntcw7xeE79qFcLbvCTsQvouBeb8Xq3Pq2pbH8vqInTtxZtihy2NaHsfu3o3I7dsQuXM7TL/swEeTA/HhiC9QXKQXueoAndrkem5kv/RLac+viLS0AejksCqwUFhYaAC6djTTFaBjTGUwxlVVVdi/f7/YM0ct17179wquXUFBAbZv244tG7YgPTMbWSUnsfNIAYK3ZeHNxYl4fukhPLcyFQNXHcaTK4/i2ZVH8eLyNDy/Kh/3LSsSxoe7xeYLTl6X2EJ4mQpwx5JCvLC5Gu/sacCzm2tx+5JSdDXR16vUZm0N0NG/K40J+1kK4BeTg+4RGehOkyiLC+AXnY3nV1LkqilFaD6ohMhVeybbEfnbpCuXBKATqsg0jOhuEBZx3JrEnBSy11Vhz/dxGPfOYxj5eGcse78HDk97AGXzH0b1gr6oDaXmaxc4w26CM/RGuIJvgjuki1SCCPaBM9gPToK5uX5wzaW2qxdcITfAPq8T7AuuQ+PCLqhb4IfqBXcgb96D2BP4CEJf647hD9+IwE+ex75ta2Crr/QMlgBvdhfcNhpM5j4FOgrmw+MU0412gWgrx+GSHEeH2B9oFzb3VCUuWyOOHPgVwWM+wfDH/DD1xS7YPqEvihbcjxpqyQbfiuXveWPsW/9ERbG0Q8cvLwPQKQqee0wj1sFhoXjkmYEY/N77GDT0Azz7/gd49oNheO6DoRg0jOFDPD+UYTgGDf0Ig4Z+fGHCsOGiLbY3aNgHraRVXstYX77lOR7r8oZ+KO5xkLifD8CY9ywC29WOnyMdhg7Fsx8Px3OffIj7nhuIT0eNxskTFYK44pkUzoYUqLvM3qDa7YpISxuATj53BqA79/fPxSipuHQEdQz82e12EfT94TmbjeaJBSsFdVSiqLBja0Ed1hfWY31RLb4vqsNPxXXYUlyPDQX1WFVmx+cHqnCnOR1+sbnwNpfiBksZOlvz0WdFLobtqsLXyTa8sa0Sdy7OOwPQ0b+rl45DR2PCBHQ9rIW4Z0URnlhbigdWFaC7JRt+kRl4fiXt0NUIO3RkoxDMcY1Vc1B/P5dDul0DOg4AFw7x8e8ip4vAxy5Er9xTJ86xkMuGomOJWDZ3Asa92A+Bz/hj2Ud3IX5yPxTPvxs1EbeifqEvGuZ3QUMIzZDQTZg/bPT7SsPDjOf5wjGP3DofoRFbP78LqsP9cTLiThQv+gcOTuqNmHdux1dP3oqAt5/A+qWhKC8+Bifq4YBTOElmn4QvWocbbnoJJotbW/TkNBN2uwnp4HA7RLC76QSN+wMJWJsDu6rKSuz6aS0mDhuEkU/5wjrsVhyZ2R9lEY/APLQnxr/zFCpLpaeIloaFDQ7duT6+LqSkJGPpshUwxS1BtGUJzEtXInbpMsQuXarFyxG7hGEFzEuWn3OwLF6O8w3mxcvRamC7+nMtj/Xnfiet+sO6mFaxSqtj8+JlMC1bgcjlyxGxYhkily7Fjt170FjfKAjLx1JwoeXDqT2k50rzDlBOA3Ei0tIGoJPjqhZTg0PXvuY5x4VgTgE5lWa+GjP2WJaTk5rrl81NzxMUZDrQ6JZGhms1Y8MEeQy0Fss4D0BwVg36mA+ha0wuuljLcf3iE+hszcW9K7Iw4tdqzDjmwAe/nEbvJbnoGpsvOHQUoZJDJwDd4iLhSYJ55N7RgPEdS4rw6q46jEh14t19jbh9SS78IzMFh64J0PGdJO9Ffz/taxQubG/aOaAjKKIYUYoS5cSTniTIWXFRjOkk0OPq4kZD9WmkfBEqYgAAIABJREFU7tuB+RM/xWcDb8X4p6/H0qFdsW/8LcifexcqF94lFA1qF/ZEfXgP1C/qivqFXqgL80J9qI+wIVc/vwdqF92Cyoi7ULDoH9g//R5Yhvph3BPXYexL/8A3C6chL+0gYKsWixj5bnY+JLS6TVa29sC4aG5Fdkszdsh7IdfOrnHSCEwdUtmDXxUEqA5y8xyCe2djXbzeBeSnH8HyeZPw+RM3Y/LAzvg54FEsHNYX4955xgPoBOqlixfNU4QB6M7twXEJLqr8OBDzycE5xReftKQu5pxKC5+JnH+Su/pHsdvlxPkFOacFs5Vt/YVBOQ05p5iTh1PJ6YbN5UKD24VGKiWJjyq5Z4CPnJxjYpYbgM7YQ+d54NRiagA6D0naTYJgjkCOY6Q4da0dK7DncjlhczpQVJSPhP2/4Jftu3A4NR3V1YR0hHHNf+TfRx6vQz9zKvwI6MzluNFaDh9rLv6x+Ag+3FiA0XvK8dqmUtxFP7CayJXgjWCuS1whvBYXobO1QHiOIKCjVmufFSUYus+GL5Md+HeiHX2/KYB/eDoGLc/ElpJa4fqLPVGAronb07x/Hf2onQM6Lht0PEKuAIdKcuyEuEfbl+Zyaosg1xm5DuFURTHid/6AJXNGIvD1ezDq0WsR9OzVWDqsM7aP64nEoNuRHnon8hf1Qllkb5RH3Y2yiL4oXXQvChc9gPTQ+7B13G2IGeqLCQM7Y8KLvbFyxihk7N+KhtoyTfTLhb9p0RULpXA9Qm6bDKq/suMaOnPRrx4DgR25cvyikIsnF1ACAIeL30MO4ZeOiyZ/DafKsX/jd5jw7jMY+kg3vDWgO/7z9guoLCuWBUQlTYCOtCBXUFCFHTF+rVKA+xw1Zzitnj8zk6UldSXruPmx5MTqQY4q2zIWs0MDQjzX9FPDpWKe0adbHqtzZ4ubaj6PFCvTuqWSon7OVX5Iaae1z5ZWengebV2KRTViK5rwFsih+1gzW6KUIq5qY9dfVwZNw9UiTMb1syah07C3cfvgF/FrSmqbUdkAdG1G6vNuSAE5xiqtB3Qt89lAcUkZYqKjEbkgBKuWrUB0uAlJiYeEpKns1Amk5+bidHUtaAIqp7YB8xJPoF/sYfhGk/tWjpuo4WrJRf8VufhkTw3Gpdrwxs5a3LmUfl4LwH1ydPslOHQEdHEEdwR09DJBd2CFuG1pAQZurMA7v9biha0VuM2aie6RxzBoxTFsLlYiV4kSyFgxAN15T422uICvSwa1GJ69TVWymXaLqx75xw7iW/MsTPj4WXw86GZ88PgN+OypazHhpZsQ8l53RH94G0wf3Y6Yj25D9Ed3InTobQh42RcfPXYDBt5+JUYOeQKZ+3YCDnq4448sa3LX+IWjcQjFW12eVf3QZelO6M+2mHTqlAf9yRrEQ0fkyEkKoCA3CwFfj0JPX28MeWkwTp4oF/luwalsnU7yStkN4/9/SwFCmD/+U2Dv3GPZLzUN/ur4vO9adUB3oX4etXJaV7LjJtV9K1qIWDsgoPtowkTc+PrLuHHqGFwVFCDcfdG11x+5/lJlOrUAgFcGBeCKoAD8z8wAXDlT1kfXYcyXYRKumjEJVwVNxhUzp+KKmdNwlQbo/j57Eq754G3cZgC6jjsh2+DO0tKOYfTo0YiLs+BEaSkOpRxCTk6eMEocHhGOWbPnYO2675Fy+DAmR8Rh4Jy16BN1WPhu9bEWo7PwCJGPu1YUY9DPNXj713o8vbEStyyRhoWF71ZzvvAa4R3HvHxhv87LnAsvcx68rQR2eaBGrf9ihuPoZs5C95hjGLQqDZs9e+goNaBg2PMt2gbUaV9NtHMO3fkTyyP2JFvZAwTtqDpViKPx2/HjkvmImj4Cs0e9ickfvYiv33wKo159FCNfG4AvhjyMscOew7Qv3saYj17HMwP6Ydibr2Pblp1obJBvbYp4CeTUVw1Z2ARdF/Kn2N9si7/ComIEBc3E+HHjUVF+UjZNJMtutNKVVrIuZHeNug0KdFgKqEdMH6tnTgC68RNxw5CXcOPUryXg0sBcWwI6cumumTEZ182ehKs/kBy6PQaHrsPOyQt9Y7W1tcKkyYygIERERGDjxg3IzMxASEiI8DIxb948TAwIQNzylXjyvc/wyOSV+EfsMXS3kENH7xDFAqz5mXPRMzYTt8RmoofpOLqackS+Fw0HWwvhbS2AF68hl06kGRcLg8RdLIXoYi7ETXH5Yj8e6+oWk4Fnvz2GTSU1mshVbYeRK/+Fpkt7rL9DATrBLqb2qKa9I8Sxwk6IjvQOO5y1VagtL8GJvGzkpaUjJ+0octIOIyftELLTUrFqmRVD33kDU6YEYnrQTLz74ceIW/4tauvrRUWe+rW9CBcS0LFu/SZWdScVJyuQmZ6BxvoGASglh6755lZV1ogNChgU+GsooAdyKq0AHV1/fTR+Av7+6ou4YeoYwVG70gB0hi/Xv2bqXZRauP7U1dUhNzdXcOS2bNmCKVOmIDg4GF988QUmTpyI7777DouXLMHKdRvw3sQQfLr6CB6Iy0C3mCzh61UqNhRIv6+xOegac1yKWcmVs+QLEOcxWUIRa5wUwXqbC+BFI8LmAnjTOLGJZbkvL1vYvfOPysTAVRnY5NlDx83Ocr/92ZgbF4WIbdhohwJ0Yj8aOWZUmCAnTexJE3oCQnFCKE943sKtUdmNdWtX4/333kZIyGyUlhbiVFUFwqPD8fKQVxARFYGKCmm2gVwzFS4koGMvWb8KalOr6D05hQ7erxTf8r4vdF9ao5qRZ1DgcqGAen3oYz2gGz5uPK575QXcQA4dRaMGoDMA3SX+cGRmZiIqKgrff/89du7cKUAcuXNz5swRhoitVgvWrFmHTbv349PZZoz+KQuPmg/htohU3BabgZvJkYvJws0xWegZTbdhOcKFFwEbAZ0P98tZi0DFCD9LPnxjjsM/JksCQpaPPY7usdm4NfY4epoz0c3EOrPhF56GZ1cew+ZmgK5RA3WaxOoSp/35dr9jATrevQA59P8qwQ1tvtldbjhE7JLmReCEnYoHbjucRPRUwa6rxmKzCW8NeQ2miAjUVJ720LK+vg6rV63EkFdeFm5RSko0a/lsjqqIF/hHkKbn0nnSThccdocAdOQasi8GoLvAg2FUf1lTQA/kVFoBunqbDQR0f3v5eVw/hYCO+97k/jlD5EpqyY/Ty3oCXUI3rxgWp0+fFm7BCOpiYmKwatUq4SqMQI8eJmJjY7Bz5y4czy/FN9sTsGBXHt6yHsDA2P140nQQT5gS8IQlGU+YkvCoORkPLUlH77hc+JmypUiW4lZy5sz5uHVxAR5aW46BG0/jhU2VeHHDKby0+TRe3liJ1zadxIuby/H85goM3HAa91iz8MKKo9jiUYogh84GCGsPrW8/uoTI/6e62gEBHTVGObCSqyU0ToXBQYI5ao82wokGOFAHF+rgdjegrDQfUeELMOSll2CJjEVdZY0kJrGeppntsruwdvVaDBkyBLNmzRIsaIKntgB0CqixPQ9gI3AVXEjJjVR98ZznHagVR75L/9QEMS4yKGBQoIkC+kdKpT2ArtGG4WPH4W8vDcINU77GVbMCcMVFB3TvCC3XPSkpTTdxgVPqHXQ2syXq/AXuhlH9X0ABjhUDmQiVlZUiNDZqtijdbjBNbxOMnQ4n6u1OHDnZiLWHy7DiUClWpp3E8rRTWHr0FJYeOYmlxyoRnVGH//x6CncvzYY3lR7iigSg8zfnoM/SXLyxsw4jk+wYn9KICYn1CGBIqMOkxBpMSKnD2CON+DyhAU9+k4PXVqRgW3GVsIUhdFzdNObPPv8FN38JVtHxAJ02CFIPUSpGUO+FgSZ83WiEC/UCzNFEYnFxNmYHTcWdt96C5wcOwnLrcuRm5UsgJ5w9SNZtaekJfPvtd3jnnXfQq1cvjBkzBtnZ2U0Aqz0OvlpxLtPJ3R6HxOjTpU0B/SOl0npA9yEB3csEdF+1Dw7dhxqgS247QKdGmO6juN9q48aNzT58DUCnKHTpxop7p+5AuLkUvtZlDn060VJrjRuoAlDpBqrdAOVeNIW/IqcajyzLgJcpV4hbvcz5QrR6z+IsDNtRgSmHqjDn8CkEp55EcFKZCCGJJZhz6ARmplVi7MFKPLfyGN5YHo+dxac9gI6+IqS3iFb1A1V3O2zc4QCdtAOmgFwL8xLCPg0NEdMMiAtupw1HUhMxJ2gqRv9nBMaO/gofvD8UK5evhMNG1hy1Zhi7sX3XFrzx5mv49NNPMWrUKAQGBuLAgQPNXlTtZpaolUYft5vOGR0xKHDpUkD/SKn0GYDulecFh06YFbnYHDoD0F26k62d9pyAXEmNFLCjtKixthq5x9JwOOUQ8vIL0NhI8SefEv7IGCFjxQmaJF6fW4l/LkuDd2yO5NCZ89Et9jjusRzDkJ/yMHp3AQJ2ZmHqrkwRpuzMwNSdGZi4Ox1j9mRjxI4iPL0kGW+uOIBdxac1QRprpyRO2snUGr6sog4G6Ajg9GBOh9LV25db3hiI6Rxu2GrrUX+6CvU1NcjNOo5pkyYjzmSCrZEarRTdSqPGGzaswceffICDBw6gvr4e3FdQXV3dPjl06l718WU1rY2bNShwYSigf6RUWg/ohFIEtVy5h4624gxAZ3DoLsxUvKi1KlCngF1DQwPWrl6DeXOCMTd4IYJDF2Lf3v2ij8R09XWNoI9yPivk3K09XoMnlx2Fb0yWdP1lLoR/bA56WzPx9vaTmJBUganxxZh2sAhTDxRh0v5CTD1YiMDEIoxPKsWoAxV4ZmUaXieHrsQAdGoydDxAJ7hwrewf096+yvWRBHVu5b9I0ON0RSVCZs/FUmsc7No+ATilQeFNP/2IL0Z8joz0DEU7D3fuYogQ1GLCuNlPf0KfblbIODAoYFDgz1BA/0iptB7QfTRuPP4+ZLDUcg2aaAA6Q+T6Z6ZZu76G650+sLM0o/X1mPGYPGMufks+gg1bdyAhKQVlJyqw+eddWLpsNbZt3Yni0pNYteMgPrVsw4CYg+gRmyGUIbwtxfAxFeJmay4Gb6/CF4fq8XVqDb5KqsWo5HqMTG7Al8n1+OJQHUYcqsPH8fV49JtsvLw8Cdt1e+j0Itd2TcQL1LkOBuhaADnxxlWvXT33ji6HKU51wOlygP48+TtRVorZs4NANezGRu4C0Lh5ADb88BP+8/kIHD16VGR7NE0vkmZp013Jbnr+60/o054CRsKggEGBP0sB/SOl0s0A3fgJuIGeIqbRDt1EXDXrImu5GiLXPzvUxnVnoYACc4o7x2Nbow3ffrcagVOnwbx0CX7eugUlRQX4ft06jBgxGtOmzcRXX47GD+s34uOJM/HYV/PxaOxB3Bx7DL7mPHhZS+FlKYOvpRA3m7PR25qFu01p6GvJxJ3mHNxpzUMvaw7uWpyN2+KycIf5OG4OP4QXVhzC9pIauYdOKETQH/rlabKEw3WZAjpum1QO1psAXXl5GWbOagHo+NamzP/HDRgxYgTS0iSg8+wdaAOzJbIHzf+rxUTrXtNJ/Ql9uqmEkTIoYFDgT1JA/0ipdDNAN46A7iXQl2vbmC0JBP3FXhU0CVfMnCJcf0lPEVNw3ezJuFoAusHYYyhF/MkRNy5rSYHWAJ3D4UBpWSlSDx/Cpi0/IygoCDFRkZg+ZTKGDx0KU1QkQoPnYd2GLfhqbiT+bdqMZ5alwd+Uia4WAroieFlL4GMpEh4kaHvOPzoL/qZs+MbmwTe2AL4xufCOzcNN9D4Rm4/u4WkYvPwodhTXyj103BvvlCbL1DPZsu8d/bjjAbo/HDH5GhbqEjrWMS8rLy8XJkksFgtsNluzmtavX4/PP/8caWlpIp+TWn2hNCtoHBgUMCjQYSmgQJw+VotHPX25CkCncehmBbaB2ZIAj8/YK2bSn+s0XBk0HdfMmGoAug47Cy/ujekBnd1uF+tgUVERli9bjj2//Iqc7ALMC16AadOCMG/OHIwdNQKbf1yNLVs2Y2/yUYwJNmH8it14dkUGusZkoas5B77mXBlMefAVIVeL6cM1H91MeegWK82c3Cj8wxaiZ/ghvLokBbuKazRA5wZcTjicLjTz6X5xydWmrV+GgK6JvmpiMubPAHRNtDFSBgUMCpxJAT2QU2kD0J1JJ+YYZktap8ulnqvWTbXtiMe0Rbdi2XLMnTUXCxdGYm7IAuzZdwDpaekwRS7C3KCpWLpkMY4cz8eSn3YibH0iXl12GL1i0tDblO4JvWKZzkRvU4YWmM5E39g03GtKxt2WVNxpPYq7rEdwb9ReDF3xG3aVVKFOmIx1wg4n6oVxMp1C5KVO8PPovwHoNC4daWYAuvOYOUZRgwKXIQUUiNPHBqBrfSIYgK51unSEXII4te2I4laX242GujoUFRQgL68QJ05WwkYD/wCqKitQXJiLqspK1DU6UV7nQFJpHcyJpZh94ATmHCjHXBFOYvaBk5i7vwJzDlRg7oGmOPhAOUL3l2DegVLMOliGWfFlmPdbPpYnFyKrxib20DndTjDY3TRdYgC6jjDPzuse1JcGY/4MQHde5DMKGxS47CigB3IqbQC61qeBAehap0tHyFVrpwJ1jAmhXNzDRsknIECVdDPOIwnueO98bmhkuNQGFNubhyIe2wDGKrBMiR04YQNKdfnMO2UDbMKsLBt1iT10bqHkeHkqRhgcOoND1xHeL8Y9GBRoEwooEKePDUDXOukNQNc6XS71XAXmGKt95PQUQYsRTodNuAmj/3SbS/pRd0lUh5rTp1FWUoKqqlrY3Rrg06Ae4Z5TA4GMVSCnjWk+b2f9qYu1doQvV2FD9qxXdNgTBqA7D0D32WefGUoRHfZRMG7MoMAfU0AP5FRarTaGUkRz+hmArjk9OsqRHtCptODOuehH1Q6ni/4adIDN5cKhlFQsNpsQExEBU3QsEuITBfAjTZy09UoDseJHG3cuOB3SU5PKl+0QNNrgctLYv4R8dCPQ6JIiVoJIOzVd6eZTeHjSqryMossa0LUc5z8SuRqAriXFjGODApcXBRSI08cGoGt9DhiArnW6dNxcPhU0CSY5agqi1dXXY8H8BRg/dix+2b4dP637Hrt37BB2Xw8c+A0/fr8Wu3ZuR3FhAX7b9yt+/H4d1v/0Aw6nJgtgl5mehoMH9yP1aAp+2vQ9vv/hO6SlpSIrKw3rflyH3ft/Q8LhI9i8fSd+3rYd6cfShMeojkvns9+ZAeh0tDEAnY4YRtKggEGBMyigFit9bAC6M8gkMgxA1zpdLpdcPiP82Wx2rP5uDcaPG4/vVn6DPbt2oSA3D7t27sKUKVOwaOEiBAYEYsXyFcJH+tTJUxEbG4vYmBgUFOQLe3bh4Qsxf1EYZs6egZkzpmHqpABELVqITz/5BJs2bYHJZEFAwCQsX7wMB3bvAxyqda0Tl0lkADrdQBuATkcMI2lQwKDAGRTQAzmVNgDdGWQSGQaga50uHTXX8zyIG+QReXRyn93JkxU4cCAea9asxayZMxEbHYOQ4FC8+fobmD1rNiaOnyjyAgMCsH3rNhw+lIr5YaFYHGfG9GlTsWzpEnwx6j8Y/fVoTJk8FePoZixgMgInBqKkuAS7du7E+LHjMW3yNOz6eadeB6OjkrvV+zIAnY4sBqDTEcNIGhQwKHAGBdSipY8NQHcGmUSGAehap0tHzFXPA3ewiedBuN+S6gzVVVXY/csvSEqmb9eT+GbVd/jii5GYMH4iPv/3CGzZtAU/b9mGvXt+xfSp05AQH4/6ujpYzCa8/NJgzJ41EwcP7MPYsaMRFRWFLZu3YevPuxEdacasWXNRU12F/IJsbN22BePHT8D48ZPQ0CjdeXZEWv/ePRmATkcdA9DpiGEkDQoYFDiDAmrh0scGoDuDTCLDAHSt06Uj5qrnoQnQuSC1Td2oranBt99+h+DQ+Vi95geER0Rj6fJvsGPHbkSERyM2xgKrdQn27z+IpUuXIS3tmCDR7t2/4OOPP8GWLT+jsaEBq1etQPiCBYhYFI3167fhh+83YtnS5aitqcTuXVsRt9iEReHhiDEvRn0jlSouv58B6HRjbgA6HTGMpEEBgwJnUEAtXPrYAHRnkElkGICudbp01Fz1TDRx6AjqXKCGKj1JZGRk4tChI8jMzERVdQ1ozqS0tAypqYeRlZWN6uoacVxfXy+u4XFOTq7IJ81qqiqRnpaGQ6mHUV5+ChUVp0V5u70RlZUnceRIKo4cOYKKytMdlcR/eF8GoNOR6I8AneHLVUcsI2lQ4DKkgFq09LEB6FqfCAaga50ul0Wu5wGhGRIenN9P2bfzXHWWOprMpnhKigR9tV+OPwPQ6UbdAHQ6YhhJgwIGBc6ggGedUluFWEJbOww7dM3JZQC65vS4XI+kFwkIYKfAHfNUUKBMnVN0Uvk81qf1x+oaxs1A4FkAoKq7o8YGoNONrAHodMQwkgYFDAqcQQED0J1BkrNmGIDurKS5rE4oMKYHXy3zFLj7I8Ko61iuZdrpdHq4gaqtP6qvo503AJ1uRA1ApyOGkTQoYFDgDAoYgO4Mkpw1wwB0ZyXNZXdCzz1TaQXIWsZnI46+HMu0PNZfx3OX488AdLpRNwCdjhhG0qCAQYEzKGAAujNIctYMA9CdlTSX3QkF4njjKq0HZPr02YjTskxrx/q6z1ZPR86/rAFdywlxvoCu5fUdeaIY92ZQwKCAZmJL2zanwJ3aQ1fbaMNH4yfixtdfxg1Tv8aVQRNx1axAXD1ThqtmBqK1oM4z7hQUiGuCmspfGRSAK4IC8D8zA3DlzADP9cxX4aogmX/FzMm4YuY0XBk0HdfMmIrrZk/G1R++g9sHD8ae5JQ2Hz4D0LU5ydtlgy3XSXWsOsvj/+anrlf1quP/ps5L9VoD0LmbtHAMQHepTmOj3wYF2oYCCsTp4zMA3Rsv48ZpY3AVAZgB6LBx40bBlVEjdDkvuIoGRmxQ4EJQwAB0BqC7EPPKqNOgQIekgB7IqXQzQDdBcugI6AQHTePOkfvWGneOeQaHrkNOFeOmDAq0OQUMQGcAujafdEaDBgUuVQooEKePFaCro8h1wkRcP+Ql3Dh1jBCRXqkDbAagk6NucOgu1dlv9Lu9U8AAdH8RoNPL7/VpvuzFFoEWcVMeT0iNHRYULzstZpn/cntBe59/Rv8MClxSFNADOZX2ADqbDcPHjcd1r76IG6YQ0AWKoDhwBqCTQ20Auktqyl+yndWvpWptbS1Pnbtkb1TX8TYHdOolKAlL1yDSprMHvIiEdBlCtyEiwA36iHNqwMftdoJXeeoSm5Sb9sLp7s+TZHu/F1iwvPwkZs2aDYvFisbGRnGt6CeADRs2YMSIEUhLS/Pk6zVqWqvb5XbB6XbC5XaeETflqTIusLy8RqWdcEHdqwtuqKC/F7pWIXVIKwkAJV10FGKG8TMoYFDgv6ZA83eOZlNY++oih+7DsePwt5cH4frJow1AV1CAKVOmXKQ9dBwp+V5sPmZ8L/I9KtcPMSHEmqM0XVharkstFhhNI4YvWenOSisp8bxoRL6AVd1iWqjGz3HmqeKMtQY9L/Vm3VT16S7QJWWfdFXoOum5d9GGuEheqb9ecBJUg6qtixlrnVN9FP0T4+gUKyRHVPa5aexcNDYsDA5rsTpuJZZj5tLmDOeNnB/N13WtCa2pi0mOs7Xd5oCOJHOQXAKsOQACHgB2N+DkWDjpVJclmCsyRN+Z0+RuV4Itlvgrf5WnKjFnzlwsjlsCm62pNbaxZfPPGDlyFDLS03VNcnr93o/n2cvW4jPzdK8YrVLm6K/XaKI9rpxsLpcNbncD3IxdfNGo1xinOKnmlLPw97ppnDMoYFDgnCjAp7ZlkM84QE8Rw8eOw7UvP4/rp3wlFCIMketFAHRigLgoc52we96+8tOYx3bt01gbcq5F6tUqQGCjdCzPPL5Ctdeo5Cg4AJddfEQ74IZNgwDienIcXGyFIEN77XrqPafpJavR5piYaWKdJILQwIRu/rXMZJuqu2y2+URV600TmGWOBwTBpcEjeZmHmSIKnVvfL2gpAS7JyNDoKuhihwM21MMOO5k8Lifgcoh1UJFdDJ1bN4S64eQKr2jGWeEAsQiv4PxwCbzhdtnhctnhcLvh4NrK5VTDjBf0fv9k5e0A0EnIIojFwXJyQBywu5xocDrhsNvhdDjQ6HShwemGk4DPVi1ih9MFl9MFp4idcDuccDtdcDtcTTHTWnA5nGgKvNYNl4PBJSZBRXkFgueEwmqKQ11tPVxOJ5x2J2iBesOPmzByxJc4dvQY3C63zHc44LLLOt1Ot2yT7WtB9Y39awqsTx2rtIpdcDpaBO0eyQ0U/XE6xT07nG7YRT18pRDQ2T2ATk5mBeg4+/7k7DAuMyhgUKAZBfgotQwGoGtGIs/BRTNbIgaI/7hka4COWEtIg2wChnHBFqCHvRUcN55nIEyjc3iCNk1AxFcoMZ+LaxWZEDzngEMs+lJ6pAd0lKq0DaDTOqZNSAVOCEnOBHS8Ua4JOkDnoVPTiiH6rdFEIhfPcF7EBDsq+y7HiIe8dzucsMMGpwBcXCPtLjdOO92oBGRw62KmzxIqADCcBlDjBqq0tJ2Azt0oAKODEjSCxnaM6C4KoOOkkUSR3CNOJ8GdE0DJhp937MLksBhMmB+HyaExmBYchcmhFkwJs2JO8EKEzZuHWaGRmB4Wixk8H2bC9DATZohjE2aEnmMIMyEozIyg+TKMnzEfjw96E0+//D7GzQjDpDkRYF7A7HAMef9z3PPQQIycOAszF1rlNQssmBFmxgzWo9UhYwuCFlgQNH8JZixYghnzlyBowZLmx+LcYk+eKMtyYbK8uEZLB4UuwQymQ+MwPSwO00PjMCMkFt9v3IY6W6P28iGg4xtIfckZgO4ivoGMpjsoBbS1sxmoMwBd64N90QCd6A5HiuuLw8PVkeIzyaETIjZtMAly+Ce5W0440Ci4NVynxCuVnBkRC3llAAAgAElEQVRyeciloYBP1Ek4x2skQ0IgKIE2ZF0CGEkcoqZH60TS5aq5xfWQafmfwEV7r2s58hzPNwd0Yh2VufJ6VaEWi3tWAlfPOSaaAJ2nbcUK4+l28JNjRADH7UjawGgcObFNiWwNN5BeUY8VKYWITixCTFIxYlJKYUopQ2xKKWJVnFyC2GQeMy5BTHIpolJOIiq1ErEpp2BJLIcpoQxrjp5EXpUNbFWMtgD+klZqhNoBaZp1oc0BnZhH4p+cqJw3YhIR9cKN2rpaDB3xFf53zwfR6eH38bdH3sffHn4Xf3vsA5Fm/v/X5Vb8rf9gXPvoe+j0yLu45tH3cc2jQ9GJ4ZH30ekRFTOtAvNUvpZ++D10EnUPxbWPD8O1jw3DdY8OxbWPDcXVzH90KK55+B0RX/fI+/j7gHfx98c/xLWPf4jrRPwBrn38A1zzyFAROj06DPrwt8c+QqfHPoI+ZrplkGWG68oOl2Uel9df8/BwiDDgQ1zzyEfoNOAD/N+ej+DFtz/BiapqQTcheiW7X72BxM4C7XXTTh7KZjPPODAocAlSQLy6dAurfLT47jJEri2H82IBuqYx4hpDEanCLIQFFKcR5EmQJJEP4Zfc+sOFm0s4uT4ClImbklwtHvM8AZ0Q7Xl2OGsTQsNebE6Idz2g6K95AZ9Ri+dGeS+SgyXhpVxLW46HpzhPiIVXA4Qezh3vjXm6Cd6ykot0TCjtQqMYFQHoxJARZVMCx61HkrO2Pr0UL8VsQ7+Fv6BvZBLujk5G3+iUVkKqlpeKu6NT0TsmBX1iD6Nv7BH8IyIJ/5j/G95amoSdhTWo13i9gi5qLp0xGBeJMC2abXNAJ9rXJrqYU/I7SrIy4UJ1bQ3eGRmAHi+NwrPzd+PpqEQ8Gh6PR6MS8Vj4b/B9PwidnvkXBsz8CU9Gx+ORiHg8FJmEB6KSMSAqGQ9HJuHhSBUzrULLvGQ8EpWIh6MSMCDioIgfjkrEI9FJeDQmCQ9FHMCAyHgM4HnGEQl4LCYFAyISZYhMwkPh8aJ+fd6AyCStjHYdrz2ncBADItkmA9O66yIS8GA4A/uThMcj4nHn0CC89q/xOFHdIL65KOcXAn6hOcJZRzDHIPcdtBh349CggEGBP0EB/Vqn0hIxGICuJTkvPqDTxBVqEaYESOOqce2RnAT2WnLyyPoh0HMK5TQF+Lihnh/K3JZD3CTBUxNK1FZ2bTKwKWINCQG1hkVjLalzlmM1qZpVq3hrrI9pHeYSB03ATN8veZUsy4s816lrhNiSHEXShaVZD0XKusJn6WZbZ3PfoxsNLQAdiS0333NbVS2A1VkVeCRmP3rEHIWfORe+pjz4mhi3lua5PPgxmPPhZyqAn6kY3WIL0H3hMQxaloEtRQ2oEwxBgni5T49z4HyGtC1p1faAjpQQE0lOTAG0OUHJPoUTVXV1ePOr6fAZEoDHIlPxYFwB+phy0M9SgAfictBleASuGDwRfef/hvvicnG3ORe9zEW4y1KMXpZC9LaeLRSgt7VFsOSjlyUPvSy56CPO5aO3VebdHceyeehlzZOxOVec620uQC9TPnqZC9CHbVkKwDzGvVQw83weeluy0dty/NyDNQu9GSwM6jrWkaPVlYM+cfn4hyUbPT6aj1f/HYiSmgb5AUoxAOXW4pnnC0pu81QvGD7Dxs+ggEGB/44CnkVRt6jKh84AdC0pe9EAHfGIUg5jWiz6bgHIuOOYqhLMUiw4IULlfju+P9WCJFEZnC4n7G4HXC6HPCfXdXE9360CYGmWGoj1mt63qgECJFmyJX1aPdaBKTXXFOQSH+nCagJ36TV1VZ4nGON7n1w2ioUJ0SSsFCuthtGkAIcHErxRXCnVAEgT5sv+CtByHt1u9V7+0kz2kmud5KTKRU8gLcEthdMhAN13WafxUNxh+Fvz4RNXBG9rMbwtjAvhbSmGt7UIXpZCeJm12FIEH3MR/ExF8DWVwMd8Ar7WE/CNOI5nlmdiS1G9mC9wNQIuti+E7qL5v/T2/qLK2gWg48QVEwkO1DQ04I0xs+H15jQ8FHUU/cyF6B1TgL6mQtxvyYHX8GhcMTgAvUN+Qz9zngBXd5hLIYKpCHeYCnGHuQh3mFWs0jxuLRTgDjNDPu4w5eMOS752LPNuN+XJcyxjkdffrtrQjpvaa97mneZcnHvIOXtZUx7uNOfhLoJJaxH6mnLR/aOFePmzABTXNoitv06h3aNt9hAPttwQLL++/qLZYlRjUOAyp4BaZPWxAehanxTtAdBx35v80HVTOie4LeS42ATQk6jc6XbA7rYLhTmBlJhNbOcC6l0O1EGeFxU4JRhsdAM2rQyV1SRnTypIiPVM8MMIuzwqCq0TqWWuAFXSWoEChxKWUUxMZQy74CASmFbZgVr2QwBUAlZqeZKTqAd08mrRHQ3ICnEzlQtd1A51CZGioAnxEZXrnHI/NrvSbn4CgNoEaGW/JG0IWXmv8l64h25NRiUGxKWhq6UQ3nHF6GwtRhdry7hE5DGfwctSjK7mfHGNl7UUPnGl8InKxtMrs7C5qF7QF24b4JSA0rNvst0Qp6kjbQ/oBO+XXweSbcmBEfNG49CdrqvHkNFB6DxkEh6KOIz7zHm4x5SH+yx5eMh0DD7Dw/E/g75G37m7ca/5OO6OzUFvgj5yzEy56GXKQS/BtWOsD+TktXacjV5mhuMt4ixx3Fvkq3Py+t6inpb16evOEf2425Qj+sc+/ulgykVfUz7uNuWhrzkffS2FuDc2Fz0/XIBXPg9EqQJ0QizAma7eVErDS74cmobcSBkUMCjwZymgB3IqbQC61ql5sQCd0mQgmLOJ1V9y5xpcbhTZHMitt6PGIfMoSrW7HLC5HbC5XChrcCG73o6TdicI2hrcTtTDAYfLIawMVNqcyKu1o7jBiTqh+UrwJ7li0mCJ5A6KZU7sazvP5V8AF4IwBVpkLISiwkQVtWuBslob9hzNwfFTNQKk8m0vxMFCSkNOnVAfkEoEcoUVCy0hptgn55DgqAFATlUD4vPKUFRTBwfBkQB7cl9a6yPbxrmCGJpkT2ODktbUV6bCAjVd4W4Ux99nnMKj5qPoZs6Hr7UQPpaCcwj58DHnwjuuADcuLkHnxSXwis7GkyuPY5MCdGyXFiaEcox64tuYDufQ3EUFdGLSa4BOilxdqKytw5ujp8Pv9Qn456KDeMiUjv6WLDxgTscT5kPw/XAernl+FO4P3Y2HrJm4z5wlRJD3mTPR35SGey1puNd87DyCKq9idW3LY5V/jrEpHfeaskS4L7Ypvs+UBR6rvP5Ma3ksf1/scc+xKGficQ7uNWejvykb91ly8ZApC7cPD8OQzwJQUl0vvlbkHg+COfHEelT2xdRjnvEzKGBQ4L+mgHi81DtLi9Xr3bBD15y8Fw/QSfEjzUxQvKo4TSV1dizenYgFP+zAkYJyzbICTVFQaAlUO51YnXQMk37YjvXpuTjFzfZCqkfkJkVt+/KLMfeH7fh2/xGUNsgFXuytIodP7ETTkJjgWfB6jUPWnDS/cyRa1DhQmlRYTDqyBmlzVMAXFNbasGzbAfyaWYgqATz5La990Gt74+R+QdkD0aAmwKGYlffDXw2AbemFWLR+D1KLT4jeCmmZqON3utmWp9RDJ0kjHjfeFcEceWa0RgeXTdiy/SmjQuCE7tw/Zy1AV0s+fC3kvp0ZfLQ8X3Me/GNz4GfJhbc1H13j8uAbdQwDVxzDlqI6yaEjPZwOYfifHwoScrclEc6trYsA6NTbUHLp2E0xXpxkcKOqvh5vjgzE9Y+/j14jrbhl7Br0HPc9uo9ZgzvGrsT1z4/EFQPewc3/MaHn+B/gP+4H+I//Ed3HrUXPsd+ixziG1egx7jst1qdVnop5jmGNFtbq0szXH7OMqktd/3vxGvQYuw49xn2PHmO/PzM+I+8H9Bj3A3qMVbF2napj3DpBhx7jf8AtY1fD+/kvMeRf43CillOaDzPp6SGmDtDxa+3cJoNRyqCAQYHfp4DnEVOPmijOJ9DYQ9eSchcN0HHLiTAGywVfA0UA8usdmPPjrxhjXocDOaXCUCxtyznJYaMI0+mGeV8KhlrWYkVKFioEO4sVEEwJ2IBt2fn4j2UNwrfGI6+OII8TgeJQ8os07VkNeAgxrAbpWtLm7MfsC7lOUnwrOWrsQxOg4D0V2Z2I252MH5PTUe50odYF2LV2xYIg9sZxx5cHZop1QOjMaVtyWHeFC1idnIOQDQdxpKJG3A+N1BOktqd1g1hVBHGP5IjaKAhHo2ZVkAwhitF/zKjAY5ZD6GbOg6+1CD7cI/cHoau5EN1ic3FzbC66mbPRw5KJnhEpeGH5IWwtrNVErgSNjUIHmqMuPwHOPooX68xFAXQSX3Bk5BMjXpIC0AE1jY14+4tx+F89B+BvT3yGTgPHodPjX6PT0+Nw7dOj8H/vGoT/3/cBdHrkE3R6ejyufkqGa576Gp2e+hKdnh6NTk9/9QdBX4bXjUGnp8eg01NjZZpxs2OeY5mW9erraXmOxzx/roHleZ8qaNfznp4chU5PjkSnp0aJe7zmn//B/7nzObw6fBRO0gCyAHR8APUcOn6BkRGv01q6WLPMaNegQAehgAHozn0gLxqgE3vJbODeOHLo+CZkKAew6mgRovYcQ2Y1TWBwzxg9ALhhd7tF2V35pzB3exp2F1YJ7pVgzBDQCQ8QQFplLRbuOYo16WUodkoPR8KbgJPGiCnGJPCSXDohntNUE86VapL30wToPCCGgM7hhNPlFiLWYjew7kgRVuw/jLz6RpFH4/zEatTYkMoO5OZJG2pKyUG6w+KaQOMsbhQ5XViWlI3ovVnIalQcTYowuRdPrtTn2vcLVY694BrHMRRdEoob1HileRnprYNkp4h8XeYpPGw9LLRWu3oAHUWvZw9UmvAyUXmiDF7WIvjG5cIv6jAGrkjDpqI68VEg1lbuLRSc2PMUo18owrRS70UEdGqY5NcRJy5/p+vq8N7ICfB59mM8OPUHPDB7J+6fuRMPztyOJ2Zsgv/gsbj2wXfxwPiVeGj2btwbtBP3ztiF+4O24oGgzegf9DP6B209j7AN/YPONZxPvVvRf+aW8w+i/1vQP6jltZvRf9YW9J/1Mx6cuRG3vD4Wr37yNcpO0Q4dvxIl+1/SUYFlPgI6oCdLGv8NChgU+JMU4GuqZVCsDEPk2pyoFw3QcXXnnjfhrokcOPJy3DgF4OfCU1idVIjSemmGhJ6C+JYUSg4AUsqqYd2bhZQTdQLgER9xHx7FsvwV1TmxNLEAG/OqBUCky0pqwDqFVQEJhDyATuO1nY94Tswt7btcvcUFr0N4H2I7EsCcBLlRJzB7wz7sLa4UGp6ii+yCnUaQpQMrJyEPNTQd5DKS0Ud6sBA5XG6k1zsQ9msmFqfmo0QDTYI7R9Mc8pabD+pFOFLPm4aTtTWNvDlN45QFqMACYE3WKTxMLVdLHrrGFcJH7KOTYI6KEgwS3BUIzVcCuC7WItwUV4Ib407gRmsZvBYXwCsmDU99k45NRQ0C0JEW3NYkAbG00HERSPGHTbY9oNNGR0acMRqg07paXVePd0cFwnfIBAyIOooH4gpxnyUf91vz8YQ5C35DF+GagWNwf+g+PGjNw33mfPQ3FeJecx76WXLQz/wngrqOsQqsR6VV/Gfq/quuseSinzkX/UgLy3H0/GQBBv9rAipO0/oOf2Sta0uLYKnzNaVNPPFkkuLGz6CAQYH/hgLa66sZqFOiKQHoxo2/7H25Ci1KAIWFhZg8eTI2btzoAUT/De3P+VoCIi7A4oXohsspfX3SrdPO3DL8+FsGKqqpGQk47NyDJUES5RmpJSexdHc8DpVUSu1Rgj2hNSpbL6m3Y2X8cfx8vEK4keIb1kHXlAI8sk6HtPwhJJYuOCmKPR9kJJdEsVeOb3TtFgRrSm7/p508qd26IikPH1o2Y8nhIpzk/jjeAN3Q0jumBujc7jrAWQvYHWLbnHR3yX5SbOjGroIafLEuGYsPFwjXV7xLRTvBoWsvy4b24MmI/0kZBgnm2GmuhGtohy4uFd0sufCNkwCOIlVfXRAasJYCeFsK0SWuGDeJWAI8cut84vLhFXMMT36Thp+L6oSci9rD5HqS9gTL7QTryvvX/W93gK6mrg7vjAqE92sTcV9UGvpZitDHlIe7LXl40JQF76ERuPKZsbgneB/utdKcST7uji1Cb1M+7qIZE2EDjnbgOmiwFOIecw78P16Ewf+aqAE6agz/HqDTngbdwBtJgwIGBc6fAupJ0scGoGtOx4sN6AiyyMmilFJKLKRZWvrn3Jl/AuuSslHSSLfukqtTJ3wQSFB3qPwUvo0/hCPllR5xLb1GEPxwzEsdTqw9lIudBZXC7ycXdnK66kWb3HtGLVEJMngNQZhkWTSnUatHbIAVCkRFfhNrJbdR5rEm9pm4jeB0VfopvGH9BUF7s5FD8S/3AjrsYk8guYo2sdOrAW53vRA/E+SRQye8Kzilq6xvD53Eh98cwDcZZYKDyb1heuDCLrWLn3rgPGwKjcjsnDinMyxsTUU3oRShATpLIXy10NVcAB+z5NxRJEubdN5WgjulRFEEb0sevGLT8eQ36dhSrAE6Yd+PHFIp9jUAnZoV2sDIiGSR053H/OkBXX/aobMUCnMkfSy5eNCcCZ9h4bhy4Dj0Dd6Hf1jyhDmPPrGF6GWinbZc9KZB344cLAXoZ85Gt48X4qVPAwxAp80bIzIo0BYU0F5fcg3R1hID0DWn/EUHdMLbgxvV9O1Z6cThKiCpGvi1Blie1whzWi22VgAHqoHfqtzYV+3GfqZrgLXFdoQfOYUfSh3iOL4aOFgFJFQBTG+rBEzpNViZ14h9VcChKhdSTzXiaHUjqski4/4urvpO+ZEtN9Cr1a05nVo7It6ipwqpv8lN+JpXAsElpPkUmlkBuNFmc1k93lsej1Hrj+JQnVSAoCiVhpIJMhnUDkKmqUxBQMhVl12scADhe3Ix/JsD2FTMPYMErfVwuxpoqAU2YZy4tV5ehDz14J0joKOWqx9BnFkvZi1EV4pgCeBo1sRSAF96iLDkw89KjxG56GrKR1drAbyiM/DENxnYVKzs0HEkuIeOChnnPp5tTal2zaEjoLvHLMFaH2seHjRnSUD33Hj0DdmHfvTiYGIoFNy5OzX7cJcroBObRjmDzhC56p6Gtp5hRnsGBToQBdSTpI8NQNd8gNWCd9FErhpf7EilAxPXH8a736bgze/T8NLaY3juu+N44dtcvPZtHt76NgtDVqVhyOpjeGV1Ol5acxwD1+Tise9y8Ny6PLy6NhdvrMnG66uz8MZ3WXh9TQ5eXJ2DZ1dn48XVx/HGmgwMW52KYSv2IXBjElLLqyQfj0oZTmq8kj9HfdVzAwAsRfGv1NwkpJJ7xAQ9WafDLmzhNTrdKHECP5924ZMfs/HeqjRsLLOjGMAJtxtlbjdK3ECpGyh3Q4hjy9xAsQsodQFlLjfKuF+wyo4JG9IwfN0hbDzRiDKXAw6KaN11UotU2NFrPrYX7Ug9cOcB6LppYlbumfOyykBunBf311ny0M2SL82VxBxHT1MWesZkoHtMNvwt+fCOzsBjK9OxUVOKEEBO2LvTPH+0U1DX/gGdpQB3xdLtVi4esGTB54MIXDVoPO4O2Yd7COjIjYstwJ2mXNxhzun4XLoWHLpTVdw5oL4G5deXAegu2mvHaLiDU0CtK/pYrdfGHjo5+O0B0FF0uL/CjcFx8ei24Df4xabANzoVPpHH4B+Vg27hOei5MAO3RKSjR/gRdAs/DL+Io2Ih94rNhndkJvwjjuHmiDTcEnEEN0ccRY+IY/CLTEfX2Gx0jc1Bt6gM3BqRirvm78Vry+Kxu6RaKFiI96+TGq/ki50rnJO0Y78lV4+wTtPR5WQjx8/hEs4qCutc+OZQCcb9UoJnvstH/7gMDNtaikkHT2Ja/ElMiT+NwIPVCDxYhWkHKjBjfxmmHyjDtANlmJdQhtijp2E6WoXg+DIM+z4Db/yQiznJp7DqUC4yyk+D9vsomhVas+3leVYP3DkCuh7mXHRvAei6WAvR2ZqPztY8dLXmw9+ci24x2bjDkocB3xXin+uKcO+yfPQ0ZcKPe+hWZQjDwuRsKkAn3MSdz57INqZfOwZ0E9A/8gj6EtDRA4SFgC4TPh9G4MpB49CHgC5OAbpC3EkXXZYc3GXp4GJXDdB1/3ghXv53IE5V02mLdPticOja+OkxmrvsKKDWFX18JqB7ATdM+RpXzQzElTMDcbUWeNxaUOcZdwoKxDVB8hpxfVAArggKwP/MDMCVMwM8118ZFAAVrgqS+VfMnIwrZk7DlUHTcc2Mqbhu9mRc/eE7uH3wYOxJTrngY0UgpwIbo5brpEmTsGHDBo9ShDp/vjG1TNU1rJtp9WNanZfnaNDCgV9Pu/H88jQB1HxN2dpG+XzhEsrbWiI8CPjHFQgn7n6Ca5MvzFZ40VNAXJEQyfmb89DDTG4OuTrk7hSii7UUneNOoIu1RBit7Rl1FC99eww7TyjxHDUiyGuT1sqaeqp6/Hsx94Yp7QbpzYEbASl0oS1gikyTK+z4YvVBPLBoD26LPoKbY47irugU3BOZiH9EJeLuqFTcFXUYvaJS0DcqHv2iDqJfVAL6RSfh8cWpGL69DP/aUoBRO4rw+b5qvL6lAv/eVoKxP6ViS9ZJ1EuJsW4P4u/1t43OqQfuPAGdnyZyJYeucxxDAbpY84RnCN/Y44Ij9+iP5fjskAOfJ9vx+o5a3L34OLpHHcJTK49ic6FmWNjNsbTDJWwOnt+IthGFRDPtDtDV1jcILVfv1yagf8QR3E2H91R20AO655oDul6mQuHr9E5LrhC9dlSRax9LPvoQ0JmyQUD3ymeBOFXDzbN8kZK5L/eHGhy6tnyEjLYuJwqodUUftwR0170iAZ0AXJcxoMvPz0dgYCDWr1/vAVzCK4MOnCmQdi6xk66XtGtbm3OibhrUdTlBRYedVcDA5ZnwX5SF7rE0Hiv3R3VeUoQblxah85J8eMUViD1TdBPlHVcEr8XF8F5cDK/FRWKvFb0M+HOvlTofVwwvawm6xJXhRgvTBegek4HB32Z6AJ00CUzunFRUO78N9NyrJWxkaMoRYhedVO5wSUC3/5Qd//7xEAatzcJzm4rwxOpcvPhjPt7YWIRBq3Lx7Le5eGlDEZ5Zm4OnVqdj8MYCPPtDKe6Ly8EDcZn4YFc1RuwsQ8D+k5iYVI9//VKD0ftqMHrLcazLqkS1UChxSjt07QW7qAfufACd2CMnzZQ0B3T58I3Lh68pBz1NeXhxVy3GZwMjExvxwa8NeGBFDnpGJOGp5YewRTMsTD4rLfo5hXmw8+O6tjZXL1Reuwd05ND9EaDz7KEzAJ1cW4w9dBfqeTHqvcwpoNYVfWwAOjkp9KCMOeTQBQQECA4dwRh/LcvIK8/tPwGbqqO2thabN2/Gr7/+ihMnTng4gKomyi22VAL/XJGFrjH58LGUwdtSCi8CsbhS4bOzyxIel8PHUo6uVsmVI6ij9iP9enpbC+FrLUZ3cuLiWJZliuFjKYGP9QQ6x5WBYrzu0Rl4iYCuTHLoqI0qdV/JVVSatqpnvx8LhQVBpyZaUfJCJQZWy/RvFY34bGMaRiTVITDPgeG7TiLwUAMWFABfbD+JsfsqEXsSCEipxb9/KcXUbCc+T3LhkSWFeMSSiVF7GxCW5kLk0TrM+n/svQd4XcXVNvo/9z73e+73J9RAAknoJTQXLDfAhADJn+S7CQFMy/clgRB672AbW25Ycu+2bJ0i2RgbYxtsMO4NA+62JKtLR+dIR73r6PT23udds0c6btgGbClmHz2j2Xv27Clr1qx595qy9jVjQn5M3JvrS7C8tAFebuyI+REVe6/fXN7T9lR3uBMEdNwUcfURgK4Kv8zkWjoCukpcQcsQFhcGfdyEZ/aH8Or+MP66sRX9F5TgJksu/rQkD+sq9DQ6Ny9H1XQ0y9JNf90e0PWzu2Wd3OEaOq6hO2JThN0l4M/U0FHlz65vfEnI9EQ35sJu2jnMYpkUOJwCelxJ9E1Ap6iktW8aeGkN3YYNGw4n43e+r6qqwu9//3vccMMNePTRRzFz5kxs27YNlZVuBEMhmZrcLIAuF5fMy8Uv7GWicbvcXoUrrBW4Mr0cV6e7cVV6Ha5Mr8fllipcwiMt+MzC3Y4u2Ql5uZVxqnCZtRq/sFfjl5YKXDmvHFfPd+FyHo1hKcF1sw/gkcV52F6rjriguS05rphrrbhtVcwbnEiV1VposUohp3KoI0Q4ecsjWIjq6O1sjuLRZTn4w1In7lvbjLuXOHDfp9X4nw0t+N2CQgxeXoZXd7fiv9dU4I9LC/Dgxhb85pNG3JBWgl/bHHh5ix8jvm7ChN21mJrdjpE7PUje5cFLnxfgI0cj2mkwLB5EJMoNHd3kpztcx6gmBFKFk2eHHlsiu1wz3KC9Vm6E4OHBnCK/hMBcTIFxqr0CV1rLcY3ViQGLXLj7wwoMWODEDZYiXDMvF/+1OB/r3V5jXSSbkYf30wpHN6HJUYrR/QGdzY0+3Pigjy3hGro/D0XSFAXoeEadHFtiKwenXKnNMwGdCeiOwutmkEmB70wBPa4k+nrU05sifqhTrhrQaW0cNXSvv/46Ro8eLYcLr1+/XrRqa9euFZ8atpNxfI+HFBMgLly4UMDc//pf/wt055xzDnr27In//u+/ImVcCj77fAM+zqnE3z7chYG2nRiwMAcDMnIxMCMfgzLycKf9IO6y5eIOqwO3W1241V6C/gsKMTAzH7fbc3FrRh5uWVCAWzOL5LisWzId6Pd+KQZmFuMOexFut+bhlsw83JKRhd9YduP5ZdnYX9cugEsdIMJdrsYZckRhJ/rTi+U6AJ06goRAgjtnOeW3uyWOfyw9iJun70PPOYW4cW4efjUnF9fN4+aNHNw0Nwu95+Ugybb6woUAACAASURBVJKHm+bk4Pq0Alw1vxDXpBXg9owyPLXRg6dWO/Hy2hKM3t2GV9fV4M1NtXjp8yKscLUKoKN1jUjHOX4nWvhTGE93uBMBdHKwsFOmVS/LqMClcogwTXsRzNXi0oxaXJZRjct4dAltvsrmiBJcb3HgWosL12a4cfm8Ivx+SRE2VPkNQEdtK48tiar1m90U1P1bADoBaAR01hLZ5Xo4oEviOXQGoOtlN44ykTPpuEHCcHK8CQ8eVk4dd3Js8HdUYMg0jgCMCXkc8czIywhnmurw48Twb34/Mb9jr6Gjet5cQ3cKxYmZtEkBoYAeVxJ9E9Ap5uB0KkEdff44FTplyhT861//wssvv4xXX31VfF6/8sorcs+wE3GM/9prr8l79J944gn84he/EDCnQR39//zP/0RS794Y9tYQrN+Tjc/K6rCoqBYZRfWwFzbAVtwozlJch/mF9bAVtWBhURsyi5okfEFxAz4oqsfC4npkFDdgYUkjFhU1w1rcjLnFTeIvLG5CRlEj0osbMa+oXtL+1NGIam9ANkPE4sqOrNCBYO4kBn/OqciOSnlPrcKjvVKeTQdj52xeaxRDPi/GgwsKMPh9J+79wIX/WuLC75e68Mfl5fivj9T9fR9V4y8fVuJPS8rx56VluGdpMR5a4cLzW5rx4kY3Xl5fijc3lOPt9ZUYts6JEWsLsLnKAx6kDK5XJKg8ibIrLjhF/3WHO0lAd2lGhWxkuYTT5HS2alxhrxZNrJxDx7WRAuy467UKV9hUvEvTy/DbxcVYV+1XliJkGZPauUyrEcaJ1aeost8+2e4P6BLW0N3Gg4WPoaEjUOopu1yd6GN1IslShiRrGW620TnVAcTG4cOMxzh9uHtWLEoQqBFYOdHbxo0VFehpp+UJ5fSzJJtL3qFVij42N262upBkd4rrYytDb6ZndYnVij7yLnfdOjvS7WGvwI0ZFbjJzvTL0UfKVYbeNoc45p8I4I56rY8teXo2Bj8/Es0e2VR9AoDu2zOJ+aZJAZMCigJ6XDEwixrvjEGPGrpnhr6Lix65HxePfQdnjx+Bs36AmyI0r1BTR1BXUlKCoqIiFBcXi6+veX+iTr9D3+FwYOvWrejVq5cAuv/4j//AFVdcgXvuuQcTJkzA5o0bUVZSghafTw7gbTcsK/AwXh7yRJuu2d4w1lS2whGIQT9vgTqwl3FoiYH39Plefqsf28pbUOaPdjxrAkCbqvq9MEGX7ILklKVaPycMchKg6BD+4u5WsTRhgGSa64rH0BiJ40u3D/O3lmHSxnK8t7kao7bUYPjmKrxLn25TNUZursPoLfUYubkaIzdVYNTmcoza7MaYbW6M3epE6rYypG4sxsQNRcjY5RYzYBWBGCLMN2ZMLZ5E2XW7nxJfE+ZEAF3GQVxto4auHJdwZys3r3CtZEaNHFVyraUU184vxrU8c85ahcssNbjaWolr57tkKv1KayUunefA7xY7xJYrD4+RJUxxAjrDGgjbuhv+uj2gS9zlSrX4pRrQGWvoZMrVOFi4R4YTdARr/Sxl6GMtQ68jAB2PNyEwI8gj+KrEzVY3+ljKxcRYb5oQs7rR01aFXtYqcAdtH2sF+lpcAhCT0svQd74DAzjvbnOiL0GjtQy97QSUfLcCvS3luDnd1QkweY6epQI32dy4IUM5AtAkixN9pZwEdASeBJVH0wImhHUAujkY/PzoEwR03ZDzzCKZFPh3pkDiQGdcE9A9O/RdXPzXBwxAl/yDAnSnsznr6urw9NNP48EHHxQQt2XLFrEdS7uq+scVYGFj779qIu5QoPWFKLLqffggyw13C48I0T8O0rIFwZg6VQoqKqoKqlqweq8Djkbunz36T2/4OPrTkw1lLoc6KoZCUTHXirYosLe4Guuzy7E6txqrcqqwMtuNVQer8Ul2JVbmVGJVTjVWHHBjZU6VPJc4OZVYke3CxznlWJlTgU/5fpYTu53NYjmCx6JEYnGoHcWk18mW+xTFZzmMsqiV4d+8hu5XPIcukztcq3GJrRaX22tw3QI3blniwu+WlOD3iwvw28VFuONDNwYtrcWvF1fgrsVl+M2H5bhlSRV+Nb8If1hSjHVVfrGwQWDNWTABdjTvZgI6o6GNhlGeYtiEtsI3HVtyfEDnQg/jsOG+FqUZU1o7ArgK9CZQs7tBTRlNhSVZKtCHgM3iRpJFmREjuFO7Zgn0KnGzpRJ9LRXol16OflYX+qWX4IbxX6Hn+G0YND8XA+wOmUa90V6FG+2V6MVNHJyatagjVDjN2je9AknpPE+vCjfZ6Wj9wo2+6XxmAMkTAXMEeyagO0USw0zWpMBJUMAYXOQN49oEdCdBv5OMqtfn6encYDCI/Px82UkbDieCMmPg56xhnIfj8mR/ZdBe7T4N8TQx7Gv0wb6/Ak4PtxwYWIGDNA97i6nlKwraKZunObVt+ORABQqbA7LhomP7KlW1Cefv6fKdZPWOEv1QMMdp2Jhx2C/Lxaecm6E2sS0aR1skAk8shpZIDG3hGDz0ozE0h6NojcbQGuGzKFoZJx5HSzSK5mgMTZEYmoLqnSBndWmEnibMDDp0m6nFjkZiW/Hm2IDurowc/Ipr4XhUja0GV1iq5ADhQUvdePIrL4bua0PynhqM2FODYfsa8c6+VgzZ14Z39rfh9f1+/GNbG/rb8/CnRQexocor7c0cZaaVhE/I+igN16VBZ5iGjoCuAr25kYKaNluFgDdqzgjcelurRPPWQwAVgVwFkozp2b5WB5LEcarWaUyHcuqWWjQH+qU70N/qQv+0XPR9bw1+N3ktbk1djdvnH0SfjApcn1GD6+1V6JnhRpJNgbSeNh65Uom+6ZUGoCOYpPZPgUaG90mvQm8by6WOZzE1dF3aH8zMTQqcGAUo4fXPuDYBnSbI9+9r7Zdeo0c/8aefiy8GUYmzOG2otExiXlWgQESA0K6mADJyalDqi8gaKZlCZzvKpgQeT6GO9yVUJGjaX+/FR7k1yG4Lyv0h+X2PgE6KIBXjVSKo4/rEOCKRKMorq7H7wEHszc5FSZkT7V4v4rLgTdNEpcJdmWpfLHfLUsPE5yrdaKzz4GPjpLuOZ4iFgGgQoCZKq8USid0V152EOS6guzMjB9dYXaDprytt1bjKXolr00tw51InXtnZjJSsOkzdV47p+5yYur8Ck/dXYfKBakw4UINxB5vwys5G/CYzC/cu2I/Nle0C6Eg57jQma3WQsSvocJw8z0BAxw0HBHQKOFEb18vOKVNq4Qj2uH6NgIpxXOhFDVuHK0MvO6dPHcp1rG1T06p9bS4MnLkPj8zbhoU51Xjauh63jPsMA+fni2ZOgKKNU7NOWV9HIEnHfDllyzV36vBjXlMjSE1hJXrYKsF3CUBNQHccjjUfmxToDhTgAKN/xrUJ6DRBvn9fAyhOBepr7Wtwx3sBfBx1Y9xcYKxdNywfyHQiYmiLx7GhrB7TvyjA/nqfmlJTOEe0c5xWIxQKGaDOEwe2Ohsxa1setlW2yJo7nffR/O9S+wTc0gmwCOwMYNre3g6rNQMvv/Y2Rox8DyNHj8XSpUvhbedKv0N/srlC1vIpoBcOBVGcn4Py4nzECdgQQTgSQCzaOU3NFAgO41pLl8jnhyZ/eu8SCHM8DR0B3dV2Fy7PrMQvbRW43F6Ba62luGt5Od7OasP0ohbMy2uANbcO1twGpOc2wprfiPn5jZhd1IJ39zXhD+/n4P6F+7DZ3S6An9pdgnxqfWV95Omt/QnndkYBOk6vqg0P1MhpQOeSI08G2itwq82F/rYy9LU7McDuQv8MF3pnlKFnhhM9M8vRa4EbvTMr0DujXIBdH2544BRuphu9M9zoZyvHoGk78OTcz1HQ1Ip9tV48OW89bp2wAQPT8jHAWooBVodav2dxoleGA0kZZbjFXoZbbA4MsJegT2YxkuzF6G8rxUBbGfrZy9E7o0KminudyLSrOeV6wsxtRjQpcMookDjQGdcC6IYkrqH7YW2KOGW0lumuzt2zzCcRSOl7rb0TFQo1bdQusW14IG88jrAB0JrCESz+KgtvWFdi9YEyeHVbihqG66PUSXJ6Zo1Tlx/vLcLLaR9hya5CtElFCRiP7r4LHVgUXZyOwndo6uJobmrCnDlzsXTpchQVleCjZR9j+IjRKCouhdNZgaXLPsbyFStRXFomYdu/3IHmllbs3r0P69ZvxOiRyZg+ZRKcjlJ8tX07Fi9Zgi3btsPlrsbqtRuw5KMVKCotQ4S2Y79LRb7vdxMIcyKA7iq7C5dmVOHntgo5nuQqSwluW1KG53Z4kLyvDeN212PCzhpM3FmH8TvqMHFXLcbvrsPoPc14fksD7rBlY/D7WdhsTLlSw0nbHwR2csbgMaiTyBPfNwlOJL0zCNBRG8ZdpWXoy92nFnVECMOSLA70n52L/tP349a0XNxmK8QtaXlImr4Pt8zNwa3zC3DzrBxcN3EXbpi0BwPn5uEOSxFunZ2DXpN24YYJu9B7Wg4GzS/Fb6dtx/MzlsFRWy/IfburBc9lfo07J23B7TN2YeDM/bhlfjH6W5zon16Am6ftQu8JX6LHuM24MXUzek77CrfMz8Ytc7LQM/VL9Jy4E0lzDyLJVore1OyZmyJOhG/NOCYFupYCiaOdcU1A9/SQYfjpQ/fhojFvi+3VH5It19PVIBw0D/8lhqmzwkJqmpHHqMSiYg6MR3/Qcb3Z1jwn7Bv2YF9ZHQLcBEDNC7V/PBokFpK1ZFxPxrQC0Rh2Oqpg2bAbX5XVgMYWCR61Y95qE0FnmAaXeoA/vLzHuk/ALUYUhhBp0sXR0tyI2bNmwmqxYOvmrci0L8D0qTOxZ9ceTBw/EaNHjcHkiZMxd04a7FY7kocno6SoGKkp4zFq1Fi8/fZQTJ48FUuWLMOQoSMwZtwEDBk+Gmm2TDzw17/hxVffRGFJmZxBd6wydkl4AmGOD+gO4mprOa6y1+DKjFrQnuvVllLcvbIWbxZGkFoRxhRnANPL/JhR5sc0hx9Ty3yY7PRjvCskFjh+/X4J/vJBHjYatlzZjh1r6EQDfHQq6Pam3xW/Mw7Q9RZAx3VvPI/OBWrZ+qYV4LJXPsKFj6Wh/8St+L39IG5M/hwX/s809Bu+HP1HrcKFj8/F/354Cn700CRc9owFv5+8FbeNXIVzHp6Asx6Zggv/ZcHVb63EXeM+xyszlqG8tkHaq6zZh7FLv8IdQzJx42t2XPXGUvSflYNBNidum7kXlzxjw48HT8DZD0/C2X+bhqvf/gj9J2zG5S8tws8en4+fPj4fv3x5EXpP2w0ei2ICuq7oBmaeJgVOkgKJ8tq41oDuh3qw8ElS8NRFl7VjQcTkIFhq6TiByqnaMKLxMILxGJpDcdT4ovCGuXM0hnA0gohMPwZk/VgHWCO4i4bQHIqgMsCNBNT0qaldAkDG485aDejo6+tEUHeilU3ALQmvUBPIHZZxtLU2Y9qUKXj7zbcwdvQY/Ouxf2Ll8hXYv3sPXn3pZWzfug27d+7EyOHDMWXiZAwfOgyOomKMHTUaqeNSMXPGHCz5cDnGT5iCRx97EunWTKROmIIZs+fg/vsfxMKFixCV6Wo1tZhQiK69TCDMNwK6kib8xs41dOW41laLq6w1uNpWjWt4BuzCcvx2ZSX+9KkT964qxX2rSnDfqlL8hdefOnDvZw786VMHfrPciRvTC/D/LSmWg4U5VS8z3hpXG1P6RyOICehEhdmpZv72u1wTNXQK0HGNXP8MJwak5eLCv8/E/3XHK7h5+FL8cd7XuODvU/H/3PYcej8/A5f9/T2cc98w9B+2BL1fs+Hce95Bj6enof9r8/DTB4ej3zuL0POdxTjnwVT86p/T8NKsVdhZUI0lKzdh2oJVuP3vb6HPP8fghmem4YLHZqDf9P24K9OFOyZvx08Gp+Lyv83AHSM+w20jV+OO8RtxwxtLcO79Kej3xlLcNuwT3PTq++g74Qv0k3PwjrOOzpxyPVo/MsNMCpxeCpiA7vTS+yRyI3iLxoMIRUIIhcIIBf2IRPyI8wwxKPDm8YXg52ZOWW4XAzcJRLkZIBZAPOIXUKYWv3PXa1hmY6iZ42ozDtoC2gxAp++1Voa+BoQa1J1o8RNwy6GvGBofTrnOm5uGDevWo7ioGJMmTYbVasO+vfsxbNi7+HTVp1j92ed4552hsNkyMHx4MjZv2oJXXn4VKSnjMX36DNjtmRg/fgJefukVbN64CevXrcXqT1fhkQcGY+WKj1S+PE+PO12PMbV4aOFOw10CYQ4BdGw/LjGMRUH7vctLmiBr6CxOXGVz4wqaeuPmCNp1tTpxZboD11hKcV06nUPOouN5dNemFeP6+UW4bn4RfmV14pr5DvzX4jKsdytzbrK1lRtP4pySP/axJWx77U4DVY7I4ozT0HHKlTtckyy0AVsh6+RumZuNi59Mw//9u1dxw0tpuHXUUvzvPw3Fj/7wBi5/dBzOuuctXP+aDYPt+3Hv/J244ukZ+PE9b+Hqp6fg4sfG47czNuOP1t248oV0/Oz+d/F/3piLJ1MW4d4XUvHa9OX4zVOjcdP/DEWP56bgJ49NRdK0XbjDVoK7p3yBC+4dg18+OBE3v/IBery+BLenbsKto9fg/Hvfw8UPTkCflzJx1+hV+O2cvXImHTdtfKOWzgR0RzCxGWBS4LRTwAR0p53kJ5ohd3bmF+bAarVj9ox5SJs1Cx8uykSl24nG5npUVldi/frN2L83Ty23o41OAS+cng0JOOCuWGliDuIEe4A6vkJsZFNVo34asBHgNTU1obGxsUNDpwd2+t/1xx2uTMbjacenn34m6+cIOLNzcjFnbjqyc/KxfsNmjEuZiPETJuOz1WtRUFiMqdNmYeKkaXjr7WH4cOlyfL5mDaZPn4aPP16BGdOnYszIEbCnp+HLrZswcujb2LphrZzLEY8EEf932uWKuAJ0pc24M/MgrrG7cEVGhdjvvdTmwi9pm9dO2648m65KrEZcaqvDJbZGXGJrwuXptbhajjdx4xprFa5Mcwqg21gZkLVzPP2PHwRxBMSps0uObNXvs82PTP34IWcUoOthd4KOZ7zdzEOB7ZXol1mOgbMP4JdPzcP59w/H1U9MwGWPp+Div47GL//nPVz6j3E4+y/voteQpbjPnoN7LQdw1XPz8OP7huGa52biZ49Nxp2ztuMPtgO46sU0XPzgu7j4/mG45IFk3Df2Y/x90moMemEqej05Dj1fnI4L/jkVA+bsxd3vO3Dn9G244MGxOO+e0bj8KQt+/owNvceux12zd6HviE9xzTMWXPTIePz8f8Yjadx6U0N3fH41Y5gU6B4USByjjWtzyrV7NA1L8fHK5Xj15TdhSVuARRkLsebTT7Br51cYN34cFixaiNmz07DAvhh79+6Fy1UK7gBtqK1F1t692Lt7L6obWlDqcmPP7l3Iy9mPIkcZsgsKcGD3l6iqKAPPvquursHu3buxf/9+VFVV4cMPP8SCBQvQ3ExbFLSepaZkvy2gI1tpx2lQrukLhyOor2+Ez8dT6IBQMIzyiiq0tLYhFI6ipLQMpQ4ngsGQOuKkolJtmHBVoLm5DU1NjSgtLUZrazNqa6qQtX8vKpxlaG9rhavMgZbGRjmXgxov7ubsNj9NCKEJb/SWFTUdSmTO42WWFTfidusB0cRdkV6Gy9MduMJShkvTS3FZugOXWctwqcVpOBcusVbgknQ3LkuvwJXp5bhqfpm4K2YU4L8WFmGT2yc5USvHjRHKTq8+DuZI6piA7iSmXG8TSxFpEFuuh1iKcMvhvrQA0YNz5VZaeahGL3sl+mdWYMCcbFz0VBp+/o+JuOTv4/Aff3gVN700D9c8NRXXPz0TFz44Fj95OBWDxnyOW0etxk8eeA+XPTYZN704D+c/NBZ9R65EzxGf4LyHRuFXT07Bdc+n4Uf3jESfNxaj9wvpOOcPr6HnCzNw3Yuz8aNHxuLGcevQf9ZODBy/Dj/57/G49F+zcVvqRvRP2YR+k7fhptGrcf2QZRj03hrc8JIVZ983HFe9/RH60vSX/UQ1dDT9Ncq0FHFknzJDTAqcegpwTNE/49oEdJogXe3HsWz5Mrw7dBRWf7Ie2zd9gcLcg9iyeRPufeB+TJw6GVOmTsO4MeMxa/YsTJs+Gbt27ECmLQPz5s5FcvJIpNs/wOiUyXjiiaewaEEmxk2YiNRJkzB7xkTMnD4Ju3btQkZGBqZNm4Zhw4YhLS0NI0aMQHJyMmjFgj897fptqaExjPYJ6qip4y8SVbt+aaKLqjt9RInKS72hzp1jiHqHPsvUCRNVbP43kpUAmYaWMP1eZ7wuu1JVkuz1lKva/MI6qWlwTomvdzbjb4uz8buFxfjdojL89oMy/HZRKe5eVIK7FxXj7g+KcPfiQvx2cSHuXlKIuxbny/3diwvwO7oPCvD7DwrwfzIP4pkVBdhZ44Noa7kJRp2G00Grw8Fb4v23BfHflb7dT0Pn8+PRN0bi0offxa1peegrtlxd6G13YZDYcp2Hs/88DElTv0b/TGVbNfEQYZ7n1tNWLQf6cuqyv92JfnNz8fPXP8Klr32AK19diHMenYqksZ/i+jcWoN+wD9F3yGKc++AY/Pj+UTjnoXH4+WNTcFfKZ+g3dDF+dF8yzn1kHM797/G4+F/Tccf4Nbhz4kZc9Phs/PiBFJz9wDhc9Pcp+M24NejxzmL85+CxOO+fM/HTZy244Z2luOifM3H2w6n4+TPzcdFT83D1G4vR490VuPCfM3HhYzNw3n9PwsWPT0efCdtEQ8dp4hObcj1ZW67dqHN+V6413zcp0NUUSOxOxjUB3TNDaMt1MC4e847scv0h2XLt6iZJzH/Fxyvw3LPPY9KEqZg3Zx5o3/Xrr77Cc88/j6UfLcXctDQsev8DFBQWYtSokRg7Zgz++dg/BaARlI0aPRbPPv8ixowZi4L8fLw7fATsGXZs27oJTz31BEaPGo3nnnsOkydPxpAhQzB27FjMmTMHixYtAq1Y8EcN3eEDux70E8t6rGuNYTp8Y30W42v2U+BG3+kn6o2OvGXKV8XpCDssU3lqJCMYMSGPw6J2ya2mG30FSmnRIqKcgK04gnGgwhPEtrJmfFbaipVl7fjE2Y6PHR584mjDJ2UerCxrwyfONnzs9OATca1yv9LVhlXOFqx2tuLzsmasLW3ClxUtqPZFEKIFjagC01RaaqcBO31drsRydgWhuh2g8/kDeCwB0PUTjZU6S26QrRSXPZEI6JRFBw3oehqHBtM6Aw/uVTZdaeWhCD2m7UfvaXvQb+Y+JE3fhdvm7EX/qV9j0Mw9uHt+NgZM/hLXDF2Fa9/9FLdM3YE/2PIxaMZu3DhqHX41/DP0em8jBs3Zh99YD+JO60EMnLEL141ah+tHrcOAqTtx1/wc3DJzN64bsx7XjFqDa0etQd+J29FvwnZcN+JzXD/ic/xq+GokpWzFHbP2qvDhq3H9iDUYOHUHbp+fLwcS01SYCei6oiuYeZoUOAkKGIOfvGFcE9CZtlxPgoanMCrXiM2ePQsVbjdaWloQDoXEVNizzz6LxR8sxrx587BhwwZ5lpKSgldffRUPPfSQaN1WrVqJNWvWIDl5BBYvXiwatzFjxmDlypXIysrCY489hpdffhlPPPGExOfBvhs3boTFYpH43PWqB/jDQZ0e8E9h1b+XpBPZ+3tJ8DskooFTZxJG6bh7mWbaojyWJoZQTIE6buWgjQtq7Og4Oa19bouh4wYKHUaf9+2Gz/iMQ1geEPu53PFLjWvcAHNq4wOnpPW0Osum27or2/iMAXS0DkGD972txtEfPLKEZr2sTvS1lqEfz6KzOuQwXx7ye4u1BAPSS+S8ONpoHWh349YFVbglsxID7BVit3WArQIDM9wYkOHGwEw3+mfSlqoDN9tK0S+jDAMXlGNgRrkcVtzP6kBfe5loDfsvLEf/BS5Jf5DNhVstZbjF4sDtdhduszpxS7pDjjXhM7rb5MBjnkF3MseWmBq6zg5uXpkUOM0USBzxTEB3mol//OzWrl2L4cOHIzMzU9a2EaDt2LEDo0ePxqxZswR8ffHFF7KRgZo1q9Uq2ja73S7vbN26VaZRCeI4hUpN3GeffYaDBw8K+LPZbJg5cyboE8gx7U8++USAIuPrQV1pkzrLq8M7Q8yr41GANAyFw3BXVuNAVhaysg6g0l2OUCigTLWJ5lJpLQnmeK6gL8hdy0qrxvTZRbn+MC+/QIC9zlNAmrEij+8SxFHTR0DHe7EHfNghy2p6W3V63Z70taaO1131O+MA3c2GHVaCOZ5DpxzPpKsQrZ3yaXKLmrAK9KLNV1qVMHxupOhlc6MHDya2usV1hFnLxeZqD6ZFLaB2NCNmV9O8ko5NpdHb4kavdGVHto/NjSR7NW62uNHbUoE+xrvii53Z40y1as1dxy5XE9B1Vacx8zUp0DHnRVKYgK7bMUR5eTlWrFiB999/XxzBVlFREQoLC2X9GzVt3Mjg8/kEpFVWVsLlcmH9+vVYt26dXOfl5cHhcEicffv2wel0oqGhAQSCbrdbnhE48p2amhpUV1djz549EkcP8HqQ1wTSAEDfm/6JUcDT3o6MzAWYMGES5s2bj1kzZmLzhg0I+LwIBHyodFeivqEJgWAUu/dnY/GSpWhqrEd7WzOqKlxobqqD39uGuXNmYsqk8aiscKLd0yKwzdvehqrKKtRU1yIUCIOW0Fpa2lBVVY3W1laxB+xjHtWVqKmrRjgSgt/vR319vTjyELVzWkN3YjU6NbHOWEBHYMdpV05f0kZqL1sVelgI3KrQK7MWN1q51s6Nm+3l6JtBMOVCL0uZstZAc1w8E47g0LhmOn1sFUiyVaKPtRJJ1kr0pc/jUdLd6JPulrAkWxX60tlrcLO9CjfbqnCzvVJ23MpUsK3zmkBRHMNYFg3avsk3Ad2p6QlmqiYFToYCiR/hJqA7GcqdtmFukAAAIABJREFUlrgcXLmWjQOv1+sVUMadqfxxSjRxWpTXGniFQtwdSt3MofEYxjQZLzE+82C4/jEPPtfATaern+twfW/6J0aB1rY2zJo9F8uWfSxg+9OVq5AyZiz2796FHV9vR/q8+bCkW7Fjx26kpk7EvfcNxs5dO7Fp6ybMS58nm1+yDmbhvZSxuG/wfRg/aTwWLFqA8spyfL3ja1jnp8MyZx7279qD/OxcWOfNR4bNjvXr1qG8woX1G9Zi7rw5sNgsyMrOwqaNmzB9+nQsXLhQPhACgYCxtu/E6nOqYp1hgE4Bsz7cLSpOgzlOx1JrVoWe9mr04DW1ZXautSvDzdZSJNldSLITwDnFT8owrExkMFw9S+LUra1cXJKFU7nOjvv+YuuV598x3CWO2sEkO7WDTLMcfW3UzHFalWkTbPJ5hRGHINKccj1VjG6ma1Lge6XANwE6booY+w7OHp8Mc1PE90r1E06MQOp4P4IrDcZ4fbTf0cKPF8bnzP9oZeCzo71/tLzNsE4KENClW2z4+utdEthQV4+pkybhw0WL8NXWLVi7+nNMSB2PGdNnYf58i+xOLnE4sX3HLqzfvBVDRyRj6ozZGD5yNF589TV8uXMXRo9LwUcrPsGXX+/Elk1bMHfGTMyYMhWWtHl4+bnnse7zNTiwbz9Wf7ZadjIvX7Fc7OhOmzZddjS/8sor2LJli2h9+dHQHdr1jAF0nCblpgiuozu2pks9l7V2huaOmxBO3DnR21Z2wo7Aso+VBx2XgWCQLvFeh9P/pvVzHesCpW4Vsh7wqqdmYfBzI9HcxiWd3LbNE3KUxT+auqGBac4FiZhK2OXU2UXMK5MCJgW+NQUSx3/j+tBjS97COakjcM74ZJybqtw5qck4mtPP6Z+fkozzUjrjn50yAmeljMCPU0fIrln9PsO1OydlhKR7VuoonJU6FmenvIfzxo3BhRNG4dwn/4Gb7r8fX2Zlf+uqducXNUDSPsuqr7vDAHs47XTZDg8377+ZAjzbLy1tPr76aodEdJY5BcDZLVbMmjYdM6dOw1tvvImxo8fi/QUL8dYb76Ck2AlLOo+iseDF51/GW68PwbvDRmLKpGkIBSOwWRdgxrTZmDsnHWlz5gtoe/vtt7Ft6zakzU3DlMlT8dGSZZg+dQb++vBfkT7Pgjmz0vD+gg9kPSU300ydOlWm3D0ej5RLt29X8d4ZB+g4jcop1k6QpjRiSmNHUOVQzsbNDS5ZL0cweGKuHD3trkOcnH13WBjj9LK5RONGrduJOWoVjw5GTUD3zZ3dfGpS4LRTwAR0p53kR8swcQDVg2hi2NHe6cowXbauLMO/Y95cyzZr1hxkZCzAl9u/FPNnE8dPwIply/HIgw8j+d3hSB4+QmzcWtMteOHZF7Dk/Q/x/NMvYMqEKXj79bfxzBPP4OUXXsZrL7+GrZu2YmLKRMyYOgPPP/sCxo1Lxehx4/D4U0/h409WYs3adZgxczbefONtTBg/GS+98DIsaTYssL2P7Vu/xI6vdmDFiuXg7mcCO67H5E+3r+bF003rMw/Q2amFM1zH+jceb6I1ZQ70tZaKo8aM6+w6wd83XXNTBZ0B/owNEwSQCkSqDRQEhspSxYmCRB3v2JsiTEB3uruFmZ9JgeNQwAR0xyHQ6XmcOIDqQTQx7PSU4sRz0WU78TfMmKQA16itXv0ZZs6YjjlzZsNmtcp0aG1NLSzpFkybOg2LF30g6942b9qMObNnY8VHy2CzWDBn5iysWL4cs2fNQtqcuZgxbRrmzp6NpUs+RFFBAT5cshjTZ83C+0s+xOx58/DhsmVYtHgJ5s1Px4oVK1GYX4I1q9dj7sw0ZFoXIDcnD7t37Zad0XPnzpXjb0wNnUwIcp1DTKYFtXz89ufQGVOu9nL0ouvQdqn1dALobJzaLENSgtPhx/W5Ds5Sgb6WSvSxcO3d0R2fMU6SEYcbIU7MmYDOFF0mBf5tKKAFFgtsXJtTrqe/9TRA0r40h7FOjWHd7ZdYzu5Wtu5UnsPpFItF0d7eJubKamuq0d7ertYoxiEbXnhUDEEVnc/nR3NLM1rbWsTV1dUgEPShublRwhsa61FdXQVPe5ssVWpv96CmrhbtXi/aPB5xDY2NspO5vd0rZ8+Fg2FUV9Wgsb4RkXBEXG1tLbg7mhtvuBaTTpe7q3ivSzR07GfsajSirAGdXsLq9QcMSxHDcGtaLo48WHg+zv7zu4aliISDhXn0iKyL65ziVFOYasr10GlPtQFBbULQGyiO7/eRs+14YLGaGj1csyf5yYHG5ehrVS7JWo4TcZKmke7hU6+mhq47iRqzLCYFOkGc0MIEdF3GEokDqB5EE8O6rGDHyFiX7RiPzWCDAppOiW1qrBDXMY668eRkIXyMJtR4arD8FCrR6IRBYl4sxjXpOg4tRRy5sUUDOiOhLvNOP6ATjRyN3JJsJFJMjN+qjeJAuz+IR98YhcseHoZBaTmyi1QdP1KBQbYyXPaEBWf/aQSSpu5Ef+5E5dEiFj0VSqCWCMz0+jm1po3r2qi5O9RPfHbs68PBH/PpdZg7NG91qDEPNj4R13FunrELVm2SULtejwnonk/+xk0RpK9iQ82oXcZnZsYmBc4sCnTKdyX/efJ8MISnhwzDhQ/ei4tGvyWbGLjTVW960BsaDvf1c3NTxMmzSOLAnzj46/CTT/HUvtFdy3Vqa33yqWs6JbYptXS0DEEXiYRFuxYztLHRWEwOAY7GtRkugi7DTJfhczBUZrviUEBO3cu1ADseS6PziCAei0gE5ifhcdpzpRZO59FpKeJYu5pPvubf7Y3TDujiiCCKoMA6LRMJ5nhCEEGeJxDGo2+MxeUPDcOv52ZhAAGaWH9wY5DVicuesOKsPyejz5TdGJBBLZgLfXlQrxz2SwBEQKf9w8Fd4rOTjcP4ie8kXut0jxZ2tDIcLywxPWX9ogPU2SvRz+rEVU/PwuDnR6C5jUZL+AFx5C5XTmYrzacJ6L5bNzHfNilwGAW08GKwcX0ooHtb7UI1drgSrB0O5PS9CegOo+1J3CYO/ImD/0kkcVqj6vKe1kzNzE6MAnqY7PATO/nRk9A8d/Snpz/0tAM6GtSIaUBnEI56JIby1y6A7j1c8dAw3D43W8xq3WxzoLfdiVvtpbj0yfk46553cfO0r9EvkxsdHKKl4yHAvWSNHMGQ3i3KdWl6bdqxfB2X/neJc/i7ienpax1H3yf6GjDS1+GMr6xaiGULKw8frkY/iysB0HmVrtMEdKe/95g5/nApkCjrjWsT0J1+dtAASfssQXcbZBOpkljOxHDz2qTA90GBLgB0BG5UZdLaraGWixPOqdO2vf4wHnt9HK54aDgGzc0RQCegzUb7pyW47Mk0nPXnYcYaOg3olIkvnhGn7beeyDRn94vDY1WOnKLtY+G0skutxbO5McBShqufmmlo6ExA9310BDMNkwInRQET0J0UuU5VZA2QtM98TEB3qqhtptvdKdA1gE4OvjXAXJQT25xwNQCdL4JHX0/BpQ8l49a5uRhgo9UFJ5JsTtxudeCyJ+bj7D8NR98pnWvouPu0j2ivuGGh8xBffZjvv7vfx1IGuiRanrBVYKClFFc/NQODn+OUqwnounsnM8t3BlLABHTdolE1kNM+C2UCum7RNGYhuoACXQLoZGUXtXPEcNGYAejUtgivP4J/vJGCXz4yEgPT8tBP1q2VdUy5XvJkOn58z3D0nrYLfTKNDQ7WCvSyu9EzowK9eH2mOUs5elrK0ctK82XVsm6wcw2dCei6oN+YWf7QKWACum7BARrIaZ+FMgFdt2gasxBdQIHTDui4Xk7tTNEaukMBXbsvhL+9/h5+8XAyBs7LQ5KdYK4UN2c6cNsCrqGbi7P/8i5unrEDfRY40cteJrtWaZ2hR4YTPe205lBxZjmbGz3kAONKsUWbZCvHVU/Pxv3PDUeToaHjLpswbQiKRFOmv8xNEV3Qo8wsfxgUMAFdt2hnDeS0z0KZgK5bNI1ZiC6gQBcAOq6W4/ZftWUYMcIOrqFTGro2XwB/e2MsLn0kGbekHURfOQS4FNwYcZu1CJf8ay7Ouedd9J32Nfpn8qBgh+yC5S5QbopQ7sgjRQ4/YuTf596FXmL9wjgwOcONfnYnrn5mNga/MALNHu5yVYagI1yWyIHGsOVqArou6FFmlj8MCpiArlu0swZy2mehTEDXLZrGLEQXUKCLAJ1xDp2AD+76jyJKEAKgzefHP14fjcseGopbZx9AP24I4OG8tkoMSi/DJY9b8eM/JaPP5F0YYK9QGwXSaZmBJrd4qLDzjHO9rE70trBu5ehtr5CNIlc/o44t0Ro6HlsSNgFdF3QhM8sfJAVMQNctml0DOe2zUCag6xZNYxaiCyhw2gGdaJNEI6cO/pPD/gjpeOIfAK/Xj8dfTcZVg9/EnXP24BYbN0S4kZRRhTsyKnDZP9Nxzp9GoP+03RiYWS4HD/e3uNGPlhlsLvSxlyPJXt7hJ14f/oz3Rws7/B0dR4fr+2P5Ol6iz+vD74/1PsP1M06vEtD2sbnRl3SwV2GgzYVrn50jU64NzR6KMDnwMBwzNXRd0IfMLH+IFDABXbdodQ3ktM9CmYCuWzSNWYguoEAXALoo4ghJpxNrGpx6NZbTsf7tnnY8/tJQXD/4Nfxh9k7caSuS40puyyjF7+1FuPofU3DhH1/Fr6dswZ32fNxuycUd8/Px63Re52FQegF+nV6E29OLxE+8HmSEJfo6XmIY30m819c6XN9rn2nQJd7ra/r6uX7/6HkWYlB6IX6drnz9PuPeYSnGr60luMNSgl9bS3FXeiFufHo6HnghGfXNbQLoorEIIlxDJ1pPcw1dF/QlM8sfEgVMQNctWlsDOe2zUCag6xZNYxaiCyjQBYCOa+WCSpVknEMngM6wleb3ePH0S0Nw0W0P41dPzcQ1z8/HVc/OwTUvzEOv52bjF3c+jvN6/RE3/WM0erw0Bzc+Pws3PjcbNz43Czc+P0PdPz8bN/7bOZZ/ZoLrrEOPF+agxwtzcdPzc3Ajr5+dhZ/99kkMfnoIGlv1LldOWxumvsw1dF3Qlcwsf1AUMAFdt2huDeS0z0KZgK5bNI1ZiC6gQBcAOu5qNQ4WFm2S0tCJfIwDQX8QloxFePDJ13HvC6Nx78tjcO+LI3HvS6Pw4EvJePip1/HQP1/Ag8+9g8EvJWPwiyMw+MWRGPwir4cb9wz7d3Qsv3ad5X/gxWSp+wMvGWEvDMcDT7+JafMWoN3rF7bhGjoCOjVxrQhLeKfGHYPQXcBgZpYmBc5ICqiOpaqmP0bFlutQXPjgX/CzMW/h3NQRYu7r3JRknJMyQkyBaXNfib6Y/kpJxnkpyTjf8LWpsLNTRuCslBH4ceoIsQ2r32O4dkyb4WeljsJZqWNxdsp7OG/cGFw4YRTOffIfuOn++/FlVvaZ2QyGLc/DAV3ifXeqeHctV3eikVmWb0+BLgB0LGyiNFSFJ6OLgdtoDJ72dtQ1NKC6th619Q2orW80XAPqGxpR38j7BtTW6eeMc+a6uoZGJDrWlfceTzsiERoO5i5XRT/S0fyZFDApcIopcEg3U59RyvTXUPz0ob/gotFv4dzxBHIKqJ17HECnwZwJ6E6u3TRA0j7f1tfdURbqsp1cLc3YJgVOjAJdBOiOLBwZncDE/J0cBbSAUKAu1q2nG06uZmZskwLdmALHAHTPDBmGix65DxeNfhvnUENnArpT2oha/mmfmelr+t3tp8vW3cpllufMoEC3AnSa2bVPkHK0Tqmf/5D9RACn6aTpcWawplkLkwLdmAKHYIVODd2zQ4fh4r8OxsVjTEB3OlpPyzztM099Tb+7/XTZulu5zPKcGRToVoCOwCQaVVOIZHzeH+2nO8UP2dcgTvuaXvTNn0kBkwKnmAKHdDMN6IIgoPv5XwfjIg3oUs0p11PZEoePAcwrMexU5v1t0tZl+zbvmu+YFDgeBboVoNNgRDO96fOsvm92GtBpX9PweA1vPjcpYFLgO1DgGIDumSFDRUNnArrvQNuTePVw+chXE8NOIqnTElWX7bRkZmbyg6NAtwF0pLwGI4m+7gCmf2xgp2mnafSD42KzwiYFTjcFjgXohnIN3f3dQ0M3cRTOM3e5nm7O+Mb8TBn9jeQxH35HCnQrQHcyddEdQ/t8V1+faf7J0MWMa1LApMBpoMCxAN2QYfjpQ/d1rqHTU66pyXK0iD52JNHnESWnZJfrDwDQsaUT5b2+Pw0c8K2y0GX9Vi+bL5kUOA4FzjhAd5z6mo9NCpgUMCnw3SlwDED39DtDccED6tgS2eVqArrvTuvjpKBBEn3+tH+c17rksS5rl2RuZnrGU6BLAJ1mau1/Gyrrd7XPNHht/kwKmBQwKXDKKXCIqOncFPHUO0NwwQP3yDl0WgtH7Zs+KFiHJfqmhu67tZYeA7T81/53S/XUvK3LempSN1P9oVOgCwEdAVinO9mG0B1D+3y/O3fkk62fGd+kgEmBbkyBowA6XyCIp4fQUsQ9xpRrwsHC5pTrKWtMPQZo+a/9U5bhd0hYl/U7JGG+alLgmBQ4/YCOuzZjUcTjYQAhxONBxLUpMLEgoQxWaaNVxyq57hjaZ7zEjnyIvE1IpDOcV/rOuNa38oQlMM7BS3isohgBHekefm8kLcGqPjGVmoBYo5odNs/02/Q7AjsidWRyjItD3z5apOPHSMz3yBRUuRLDqZFQqX5T2onPVBqd7yWmptPqDGNsHdcI1Yl1hOuvARYlIb4RLxY3UtDv6XAxh2ZwlxF2WJSO4hwRLkVJCJUvEgayddWfylXXhHH5O6wuHdTryMqId2xPp/TNMVSshBJ2cPih7+kYh4Ye/e5YcY+sE9/XsbWv0tR32j80pyNDGcL0O9M79I0Tu9Pp0j/eT8c9Wryjvq9fkIfqxi+AbhguePAvuHjsOzg3dThoIeL70NDR/BdNfWnNnjb7pX2Gn506EmeljsE5KWPF9NfPJozG+U8+ihsHH2b6S0wEinTr5I+E+vCS1Beu1jxuPFceeZ0xoqqF2BUT2+qwe/1MR+K9zriz30jokQlJKVT/6mibjgRV9Fg8BjqaP2RI4jjQ8c5RLxSPHfpIl8goT8fDhEwTentHqHGhvIQ0DgmnCfO4uERaHJ5GR5YnfNGRwiFv6FDx+U9nekisb75RaShu0H3y+CkdknNHrjr0m3M8sac6LfpH++nnx36meeooKeiXD+PjI9LS8Y54wAD9kLzQeXfUqN9j4OkHdBxpwz74Wh1obcpGNFKBeLQNsVgEcZqwiocRQwBR+tJR0WHWSnVa3gPRmOocUYmjOgnD2ZlpBks9ZxzV0dUzIBo33hVQGUEsHkEcYQUyaWI2xgaIIYowIvEgIrGI5EdZwXcj0iGjxnl5BKfMM4o4IojxvagqrxQgrMBrNB5ECAEEEZU0EAFAPBtWJrvCsTjCLJdglChAsBtnmdRzylSpJ8tG7mCeUn9Vv1g8JPWgsOBzqSuZiLSJxRAhPSh+NYMacWIsa5T0iiq6x6NKfDIe0zecppnkLc/CAshJO9Y6yPIbNBd6SJrMk+ExhONRRAwaEbzHhaZxRSsBXozJwui6xSQOC8A8RTyyLBG2Mz8AmD/PK4xIGIQuxodBNI54lPSMIYiYtFeclSfNWU5EEUAEERaUYRFFA96zLqSVqoNqR4aF4hGxk0veEJ5EGLFYWPJRZeJziSnhim4sO+nJjxcyljCXwV9xyZ+8FGExWDdWn7SQNjTe1Sbd4qr9+FyEg/A4+4pqb+YD0kX6ENNjvVXdo5LGoW0Zk7Zg/2K7qzzJX1HhA4YZ/Umead5gfp1llH7KOnf0UYWr+S5tCqt+YvAiyxcThhc+jWoasz4G30vTi/k6gx9JX1JPl0WeqbIKHYx3WSi2N/uK0Fvqps6ylP5K+upyM45UwigXcxAaREE6Mf4hdQTbjy1ImaHkiv6AZJ7sw/EIeS3Cno1gIIhn3knG+Q89hJ+NGYILU4bi/HHDcL6AOgK7EWLflb64VOXzuY5ziJ86QgAhbcImOkmHaaUk4+zxI3HWePrDFYBMTca540bj/PdG4xfjxuCCJx/Hrx64H9uzs9SwYcirEMIij0LCS0b/YH+IKnoFEVfyKhZRAtPoK0JToUoQiPvZKUVOUN4yioAqtneUNKVUNMJJ2Kh0NqGzyGfKDOkjIUoRSVVkALsKWVr6NXssnytZIMcz8WVpLNUu0m8lDhUEahxh+6i2TORlBfbUEU9Mj2+Svw05K1KIsiEs8lZkj8havsdxgn2Z5SJ/UaYZvEXKSmYqHenXlCZCB0VT5sGRLUSeE1qocPJ3yHhGuUP609eyV/KTfm7IJf1MZLeSAdJfY2FEozGhGxOgzBQZIPKf6ak6qPGucwARmSZyzRgX2QeMPKRvikhmK1K+kr6qHCS/sh2u5EJHmQVQs8eElIxkWiKHSS+2t0FrXQTWWcbozvNndZ1JDCXn4yIfZWwXm+VRqNYwhgwpr4qr4qh2Yfso+ac6ti6jyCcZCTiOKLnMOku+0tlVO8iQJPKDfEw+Is/oBlC0lvGeyQt/yoXRBiwP6aVkLNuCvH6qf6cf0LHBg82oKf8SxfkrEAzkAmgWgR+LUDgEAHgRjwWUkJYGJxOFEYtGhKCkqdBVgIMS0sKwCfeaKdRXm2otBWCMhhNQEATBljQq8yHfGoyvhIga9NSAoQZPMoMcfqyQmzGQsFwUYBHEolHE6cIxJfCjZOAgIvEAIhQgujOLpON7ERlI2UFYJ+EqClERpBysKBuV4JNhnR3KwAfS8YRhVB1kUBPaKMGlAKExEAsfqjoIbXiv5KvRaYKIksYU8OS7DloYQsOguQha1k8EOQGqBqNGR5X3Y0IHdoAIBZ/hpEMQSEc4SEQRI21EWBkdRUYFLazZYVgW1XYi6FguXXkO3BSyBi3IH3SCEiMKYBFIsnx8VwB0lOI7hBDbg+CHgJuDsrQR24E8ZghFviMgleEhJcRlkBCYqgCntCHbjfWgqNbx+K4CpQKeFLOqjwbSzgApLBtpwsFBlUGNCyKEDP4i4FYDmxbKjBsCpExGe7LBmL/QVAkxAWiGcBX+lfqoNCjUBZDJQd4a1LMNWLawAnbkOSG9+lhhP5JxlAOJ9BED6EneagCWQU3aPIKw0NQI54tsG7YX6yx9QEYk4XemrXhDCUvR4AtAoxDsFKKqj5FeDCPdZVRR7cu2ofwgaODHYMQA3MZgxb4ibRLpbF+pU5xAgoKX7SVROupHWqj2U3kxXwplcay39PUIQvygImf5g3j2nRE4/6EH8LOxb+OilOH4yThq6biGTmvqFBBTYck4jwDMAGdHi3OegDrGMQ4o1ukwzZRRODdlNM5NGYnzmFfKcJw/jumPxjkpo/HzlNG44KnHcO0D9+Cr7H2HADqCllAsIh9cIncMXiZQIv+F5EOMNCHCU7KMMoF0VHwbBGIEdOxzccFqwi+Mz77FPhjlR4XCXuwjjKvAEBAx5Br7MD/gCehkYCcrd/QrBe75sSQfAcJHfDGiymSAnwjBo/BtSLU/+UNlYPQ1BXBUPzPajX2OZZJ213zHfCirOS7wuZIdIs/Z3yhrhY/YBxlXFYM8rW4UgfhRGDbqqhAt68H+Q7mk5J7IJOlL6kOKH1PkQdJS+ivZ2OizcsFnxAuGvFMf9UoGigxlf5N3VCTSlTJO2orV49ipy8Ty6r4j/UHJEabDthe6CK0NPazQyBiTpO+rPsl6q37Dcit6dvRLClbmJ22kxi9+aJKGQkSjHlJH6eMsXwLNRa7ww5kf7UxfAT8yh1IkKKAk0YROnfVjG4U5xIiMSMhT6KB5WMkv4W9pU9KdfMMPtU6kTllFmpCO9OWLmglLmZQskjFT5LjRfgpJIhZl+VknsofigTMP0MlA2oL21mI0NexHJOwGou0AKx/ywNPsQHurA/Fwm4LZ0lhBAO0K6EUDqvMYjQj4AfjUACdWJjiwBYA4gaEvQXNBAUThQ00B0/MhHvchHguqzs9n8Mp7DCMCIGhB3KvyFvRDZlcNT40I4FEuFlIDE4EKv1r5DgddYeYY4mEfEGkzwpUmhQ0diwakDEAbgID63BBhRqETBKQerA87hxKUEkZBygFcdz6C0yjpQBeUAZ8CTUAC3zVQD9PRg2A8QlBAIUpH8Gykxw4utKCwZhlYJ9XJKcS0EBchJ52YPE7aqfaRd9jGUQpXtoEfcV1epiOdgfUhrb2GkCdNo4iRRkyHZRKBwvgK/Kk2Y1phxNmZWE4pu25XhimgI7SL+1QbI6AApHQyo83iLVJnCgoFGkkDloV86JeOS3mngFN7R7jqnKQB+cigHduA4J00jJMP+JxlIl8ZHZqCIsz4Bm/wY4W9XPiLvEreaDdAMgcHIw2jfhQMqg0YTl5vBuItiEXZZnxEAR1CPMK6kr80QGH9WBa+o9pSaEcAGmU8xeeqzGqglP7AviN1MGgvQlh9fAjSFy0Iy8L0WbaQ0deM9hGhqwY9aUsjb/KwCHCpd5uiK8tKvpSvWYM+5GHSjqCW7SCom7zhMXiVwps8Q74j/YJAhDxn9E3pN+y3TI+8psMNWpA3Isw3hCjBmHxEGrwjgx6BHGnIdmKfIj38iEb4URZGRLRJTL9V2o1p8BfyhfDsO0Nx/iN/xoVj38RPxo3Eue+NwjkpI8URgOlr7R8SljpSQJp+dg7vUw97J1WlxTgK0I3B+eNGCZD7ybgROG9cMn6UOhL/b+oI/GxSMs595q+48aE/YG/2jk5AJ32BvEO+MGSJgFPyEeUM+2abgH5pLxnkSEfyN51qLxmwyXNR9jXSiP2CPEPH9MlfpI0haygT2U7Mg2Fxr3qX6fFdSZ/vhhEPh2UGQ7qJdEa2s6eDj5mOyFiWRz7+g4iF2Qd0/2H70HG8MMrM9FlfceQF8jC7rNGvhL84LqgPdPKg9APmK2VVH3ySnvAMy806sW9HB0ZvAAAbMUlEQVSx7kY9ZezxA5GAIFfKNtWfOB75lGzU/VboqWSh6gPsU/zoNWht0FyBMWP8MvqcxKecYSOx3iIvSCPVFjI+SN6kQ7tRHsod0ohpMZ7Rf0h/1ltoxTDKYa8xc8amZR3Y39gfDIWLahzpk4i3iuxU/ZsaLqZPWmvaq485RXPyHWnB9gobPMG8KSNJQ4MX2Ef5YSbjKsvH9IwxXfotectoo4jfoL9Gimr8F3km6VH2sA4sj1aA6A8D0o7hHAMCiJOPOP6wDiIHSQ9jHNZgjuHCF6STIY/YZsQypJGMU/yIJC3YPupD4swDdCJgyRB+acB4KAKEyN1hhPxOHMxajMKDyxENVCkiyMDdCp8/Dz7vQcSj9YpAQthW+Lz58HqyEQ/XSYNSs4d4M4KeAvhbsxCLNhtTdCR8E8K+Uvg9BxGJ1BqAjg0VRDhcAq9vOyIhl8Ho1IRFEA6VwevZi0iQ6bPjcvDwIxZxwdu+A+FQLhAj+KRWK4JouBp+Tx5CfrcAA349xqMtiPlLEWg4gLDXgXi83ZhS5qBah5CH4YWKIZlOOIhYqA7etoMIeAuASLMIN/W524xQIAt+Xw5isRYllMj4sRYE/UXweXIQi9aqjkKmjPsR8LnQ3laMaLhZMTWZK8L4hfAyfqReAREpqxfRaDl87bsQC7ENCJQIGsIIhyrR7slCJFQjHZ/04cAai9TC17oHIX8pEDOEbsyLWLgGgfZ8hPxFQKxegWdqUkIN8LXkIOgtBiJeRbsotSvl8Hv3IOgrQlxAPjsNO3QIAV8RAoEsxGPNCoBTgEU8CAaK4PcWIxYmGGNHJS3aEfaWItCajVikUgZmIol43INosAj+5j2IhSqkk8oXc6wNYV8R/E1ZiIerZdCmdi8ea0XUW4hA0wFEglWICeilUPAjEnLDS1r46xAPMowDgRfRcBXaWw8g6K2QgY0yD5EwooFa+DwHEQzkA/FGCWM4Io3wt2Uj2J6DeLTVAGcEkVUI+AoQaC9BLNKqBAQHyUg9fK174W/fI3ylvvTZzl6E/A60tx1ENFqnBmaR0T4EfXkIePciznAKKfapSBDRUDXaPQXCsyJ8jYEtHKqApy1X6ixCXwShD5GgG+2tBQgFVfsL6I77EQ074W/fiUio2OBhDhgE6I1ob9svbYcoP3L0NHUzAt59CPvI2x4FAOIEg7XwtObA7y1CPNakAIF8Fbcg5M9GQPp/QwdoiEcbEGjPg789H/Fos5ILBAvRNgR9BfB69iHGvqOFc8SPMPnF/xXioQoFgOWjKIBwsAqBlnzEghWIx9oMgMk6VyDQko1oyIl4zKM+KKSdK+FvPYiot1x9QMYgGrqnh72F8/72R/xk3Bs4N/U9nDPuPQFe56WMwvftzk4ZhR9NGI0fjR+Fs41pWU6//ufEZPzHxHdxweQhOP+ZwbjpL4Ow48vPZXASrQoH53Abol4HApSREbf0EWohREMbYN/5EtFQpaId40d9iAYr4SdfsO8QFEUIlH2IhZ3wtuxCyO8SkCgfYdR8Rmrgaz+IMOVCtK0D6MXC5IsDCHizpY8pbQf7G9uzAH4P+3OLknnE9FEf/N4cBNr2Ix72GB/6ZO5GBPzsI4WIUbaFCQYoqzwI+/NFzotsI7AQcNGKsN8BnycXMSoSRFZRzocQCjjh8+wz+gL5l+C2FZFQIdo9XyMcYjuTfwn+AogGa+D35CISKBHZpoERZaG/LQdhfwkQaVJjkmiM6xBqyUaYvBprUVOP/PAJ1yLYfADhtlzheWrORTMcbUDQk49gG2Vhm+I7ypgIx4tC+DvC1YcM8w8Fs+H3fi3yWAAv5XY4iCBp0X4AsWCToh2BbLQJkUCp0CIa0rRQgIQ87/ccQDRcYozT/KAPitxva9mPUKBQxlKllYwhFq6Gr30HQqEyBRYFVBNgU74cQCjAcH5EURZyVqQaAe9uBP15SoaFCOCpiWuBt7UI3tZCNeZRHgkQ8iDgLZa+zvqzLTnOx+IN8PsK4fcUIB5iP2f5+YHSgFDwIPztuxENNyiZKjMdpJFD8UW4WSkAmD61maFy+Fv2IxKqRDzGDw3yktfg+XxEBRc0dShWomGOkcQFlHl6DPMjEimBz7sfIX+F4AHFRz4gUIVwa+mpxnPogilXDqwEMsbAQtAvoDoAEqmmaiPqq7YKoyOkkG0sWody16dwlC5DJOgwEHxMBqTSkpXIz1uMcJBMwwGdyLwB1aWfoSx3MYK+CrX2Qb6mK9BQvh5FWQvgaSuQVSKi4oAPDQ1rkZs3GS1Nu1X6/IiMhtHU+DWKcu3wNuUrzZ4IBo80Zk72bNTVrlbMzY+FaBSe1lzk5yxBTdVOWVsT5hcBGhBq3gPHvvdR79qEeLyBqwpk3V04UAZ3wWLUOVYjHiHoJKr3I+QtQWH+YjhKliEWrAQoVClLQjWodC6Bo2QxQiKU9JdhPcqdn6EgdyFC/gL1tSZftm2ocG1B3sEV8HnKDCYjyKxBpftz5OW+D197sej3ZZoCbWhr+wq5WTPgaTygwLbULYSmhl3IP2hHS/0B9eVC4YYwAq05KM3OQGPVdqW1kK8aD4LtRSjNWYZ611ogXi4dhfT2tZUgZ+9CuErWqgGdPBCLIBjMQWGBFeVlnyFGYcivJkQQDbajpGgliosyEZXBRKngY8EGuMo+QUnhMvjb3UZ8ft02o9qxEc6sRQj5OKXvEwBNjYqnbhuK9tnhb96POPxcKYlYrAH1ZWtQvMsOf9NBRBBGSLRCDfBUbYZj7wK01h9QvEXAEA+grXkvCnJsaHTvheJTaik8aGnYh6z96ah2fQVwgJE5iAgC7aVwFH6EmirySzUQUl+msWAVCnMWo7x4OeIRCh8iwGZEQgdRnL8UZUWrEQ5WA2H11R0OuOEoWAJHQSYiBNwyfcJ2aENdzWbk5S2A31es5hUo3wJtcDtXoaggHeEgBXFQTSmEA2htzEJezodoa8lSWpkgv0g9aKzfiZysRWht3q++4Anq41401u3Agb0LUV+9x/iwIbN64GnbiZLiNDTVb1TaCrZnNIqQz4HsA/NQ4VyNOAWooY3ze50oyc9ErWsNYiKIGd+HsL8QhblL4CxZJSBDfZETLFfD7ViGkvwPEfKXKyEfDiMScKK0+CMU5S9FKFBuaBg4WLWgquwz5B2cD7/HoQYxGRy8qKtai4LCKQj6WGcNAPyoLd+Jkn0fwNuwA4g1KK1z3Iu2+r0oy/oA7Y3UcFELoQS9r+kgCnd+iBbnHkNDowDdMyPexMX/+AMuSXkDPx+fgovGjcNFKSNxUUryUd3Fxwg/VvzE8J+OT8ZPJtCNwE/HD8dF44fjp6nJuEDChuHySe/gsqcH47q7euHTJfMQ9dbK2mCZeQg1otX9BUqz7PC1czrWL2MP+2FrzXYU75sKT+NO44OKgqcdLXV7UJi9CC31pAUBOqfB/Ah49iB332zUurcqrYXIhSD83jwUHnwfte4N8iEm2r94UMBI9l4rXKXL5YNGFPyxMCKhUmlPR/FKRMI1iodFUVIHR8FClOUvQsTbqGY+2A5ww+X4GI685Qh5CUoICrmOuQ61FatRlPUBQu0cLwKybpvtWluxGbkH3oe3bZ8BSihigqit3I7crHS0tfADnWKNWpsGNDdtQFbWdDTUclzQGp4AWhpykX8gA601m1R/Fs1RAN7mXBTsz0StcwMQrUNcppMDiPhKUZW9BPWlnwHRWq7iFU1vxFME196FqCv4GIjVqul7TvkGylCRtwIVBez/TId93ItYsASVhR+jOHs5wsFapblnO6AVle4lKMifhQDlORUlxLzBdrjLP0VBth3+1nJDY0S5VIvm2q3Iy3ofbc37gBjBJ7WZ7Wis3IXCA3a0t3wlgE4tY/CiuX4fsvdnoLZmg5RVGCYUgfSFg/NQX/eFGswJkuCXD9isA2mocq9TgN4Y64NthSgpTEe5cxlikWrjoyGCiL8KRXkrUZi3ApBw9mV+TDTAWbwKZUUrECE4FA18ENGIC6XFy1GYuwxhf7XRPhz/K1FTvQJFB+fC3+aQMVW+C+MeVFdtQEnuIoRaOBYSL3Ctrh+N1V+g8ECmyETKOs54xaKtaGvKQuGBxWhr+ApArWjuSdi2pp3I2ZeGuuotSivHusW98Hi+RN5BK6rLt6mZOZH/TYg2f4WGwo9lCcCpRHWnH9AZX4FK5c5pR34JUdtC9XUrgDrlqKHhVBbXBkSb0NiwA3X1XyIaqVJaBq6bCNejpvpLuMu3iDaBmjZZNB9rQUv1DtS71klnUEtfWxCP1cBTuwfVjs/h9ztlrQTpzQG6pWUHXC529FyF3MmTkTDaWrNQXbkaoXanUscSNEap9SiEy/Ux2lq+li856W/RCPzeUrhdm9DcmCtrtbh8E/wiay9Cdck6tNbvEUGiNgnEEQ3VotG9Ca21X6uvW1GHB0Qb4i5fj+rKTYiGapSmjGNJqBFN9ZtRW7MJEWolRZ1M2jWivm47Kt1rEZEvJU4pKCZrqNuPCucXCHr5xc2vHoKJWjQ3foWKirUIBJyqI3Lcjvvgac9GueMj+FqKDCDJL9YQPM0HUe5cBW9LidLQcYAmJPI6UFu6Bp4mag09xhSsDyGfCzWlW9BWuwuIUkD7BFwHfW64itehtvJr9cUtHT2CcKQE1VVrUV+3EzFqbmRqjlPx7aiq3AK3ezVioVpjgOZY0yR0cFesR9CvtFKyziXahubavWhwbUY04JQ6cX0cp5H8LQdQWbIGQU+xTKeFufYm2oS2ml2oKVyDYJuDcE42QsRiTQg2HUBt8Xp4W4rVekvyazQEn6cQVRWr4GnKAwiERN3uh7etCGWOT9BcdwAI80uSX9ARhH1VqKvehtbmr9QXPbXS4ShioWq4nevRUPkFEGlVazDjLYiES6XONVU7EAk1GKAhjFiwDnWVW1BXuQ4xfq2ykUkneNHSvA/l5Z8jSHDDwSccRzTQjvrq7XCXr0Q46FSgV3B4QMpaUb4FvnZqUPkFzbR8aGs9CKdjHbyeIiU8GT/qQ1tLDhzk4aYCBWwYHmtHwH8QNdWfoL11r8Fb7NMxhP2VcJZ9jIa6r+V99s9olBqDSlS5PkNT9Q7EguznKv1IyIHK8g1q8IwagJ51i9Sh/v9v59x247rKOP4QSYSExAvQQBCIGy646AUScEWTHhBCBIqahhvueAOExHMgJJBQS9VC0nOSKg2kmSS0pW1SO46d8WHGnrHnvGfvPX/0+39rT8dW7KRV0qpoIu14z5p1/NZ3PszqG6rfflljjBvuYFzaG7q++rruLL+mMV5DeIvDdS3tNC+pvvKcRn087qA3nua+WpsXtbT054CFPY+kj2dqN97T6kevaLT9nggfkZMFLQy2P1Rz8VUNd97VZLITHpq8r1Hnpuo3X1evASyC1kaDkZ753W91+Aff1Vef+am+cuq0jpx6VodO/1KHTp/U4WdP+u8h/qb3w6fTe/W56pP6T8fMjKeNcUdOndQR3qvn1K905Jlf69Cpp3X42V/oa7/5uY788Ht65Pvf1Csv/klFtmVjxXHvbEe95jWtL51RNvzIQs1yGIOr/a7qN/+iXvs/4blzvmxP3fb7qi+ccbvDSjY+h8p7/9Xq4gva3rxuLzUhS0Kdo8FNrSz+U+3GpRQpwXLPNOrf1vLCGTXWLmiCJ874NbYXFL62vnZexXjdvIo7LfItra+c1cbSWRVDaAQUQBCvqrH2plYX31Deg0dGIUJebqrdvKjVW6+p6BNlQKEjctNWq1HT0scvR+SDCIdxaaTt5nUtL72gfvfmJ/hS7KjXuarFxb9qZ/uDUDBZtxypt7OglYUX7S1XsRnha41suC3feEnba9BC2/mBKHX5cFlbi6+rs37JnjiMxkIj5YPbWr9xVq2lc44+2cCkUGN4R5u3z2tz+aLy8VYquoJGl7W1cl71hXPK863I0cIjVvbUbLyqlZW/KR+shOyErrK+NpsXdOfWi8q6a3Fehx0b6ravaPnWKxpA/w6ZEj7uabv5vlY+/ocGRL6cjoMcHqjbvqFbH5/RdvuyjR57z7LcsrG+9Hdtt2uRdsIFaahhf0GLC89pq3lJKpJnlUh6f9m8c2PtteBh9sIVKrKG6isXVF85HzzSRlh4E1G44Xv2GtsQwwNc1/rqBdWXzysf4rm39m+HSav1puqLzyvrYvSiYpDv1lNr619au31GRRc5QroFpYp9dbauWS702h+5X3hKu3Y+1BfecNQNg8AFiBqrt/O+Fm88r1YT4zYZN2VPg8FV3Vl+Sa3m9Qghw3zKhsrOv9XFsHmY2pz0RXjoUDLQHPB0kAeFJYQigbuf2qpuMAVb8ySE0w9tua0ShQ9Xv93eXN5IBaGDcdtKFsycHBfcpRMIf7SmohxqROI+OXO4amnPVlVM2viWpsnYhLWK8R1NCG+BSBbc5DNshRWRE/eHIeEpQzj0jIyEfcLdziHIE2D+TRVZV3lJjg7cx1isYrRpzxOCIpLAEWSZJriFIU7vHaGEEkD4rqkib6gkt8seTeYiT4p5CLei4QFLKLejslxXieLknCwUGDCZMHBHRUa4lTMwB+fr2n1f5Kvec+ydoxcaZx0rTpMxiGq3oOchr5GQ8gTm6HAueUZYgn2V/abzHmEAVAgDccaXvbZhTpiavq4bLIYi7EI4xHcCrO0F6qgsNlWizHMucp/g9pO+inxNRQGTz5ICgLbaVVHeUZEHcVpwGx7kYHUjD9Me1XRvzo9oCc+eCNGWqaKN8H+2rckAN/wAn6ArXp0DCL4MWt6Tz1VZ75yNUFXOXIRCyZPj7nrK3U6IOeWUcbYsi7CQUwaq8EOEvgltT4bgcBSlRC5N1yHYUGy5Z/qi3AyMX5NxIwwME0/QU1nsGBbOjXLeEniXOdRSjBqakGfCXuC3xrGOivFWeIaN2+BLpiJvK88aKglv+f7pPzat5SP6k2tiqRr4W2w7vG7awSABL1GscvLO6hH29LpR+QZjLbK6ytFMKoHzCzdV5Bsxv5kzNIWyjGdiS+W4buMo8jAjFIc3pvQZKISgyAS8G0gOtRACTELb9DxSWTTDEEIBB7VJUqf+kDX6bWkU4ZaozOZeO5oMNx2idCjMeaBEGFrGyZK/hPmRnaOxfv/HP+g7P3pUxx7/iY49/jMdPf6Ujj5+3M830t/qM3/3tt3r8+zYYyce07cfe0zfOs78J/T1J57Q0RNP6ZHj5M09qWNPHtfRHz+qE08/pQ8/uOy8NUpcSJOwAT3umO9AR9AmpOP/8o7K0brph6R0F3ORi1pCOxuajOHDmMmwGHjJjsBH4wWpCv6GVJa2jdGS72zMUZwA7xzaM1syD7wRfDQ+EdKGh204bcJrwAbgYdmWyiH8IgoWUIhKdYOPDNsA355bV1Q6B7MdXmH4to0tu6ttQBYjlEjon/SMSA+YjLsqi3qEAK0gJSMt7xmHSeOAlZtvOx2j45DiBD48zVvFw73j9IrJAAUm8k5dLAW/HbakEWemCCSKjTAyzF+GLcPI9dLw7fHQPAEayUt+JYHEfOi/73nKUdvePwotgvcQ+mxFZMu5e9A5ZyPvb8Phb+a088QHGWiS7zi0HXKBdKIEI9qzTXE2eJGLmAiVOk2DfWJskeLCflgn0mtIAXIVLXdpQxa+zX3inU/zW3nrqxhvWFG37PQczDNUkbdCtjlfzpfveyIEX46RteQbQrisQerTdqSkOBUK3KbACt4DroKTIaOKCbIeHIePrIcRTpi3zGzklHlX5RDZ04lftzBSVvAGv/uhb1g2kGbUtTOmhJ87IgXfC8cKbQFT+BHFF30V0AJRiof87wvw0IVTwTRvjpD0DiwxAM5PligUocjpQBjz2JUWf60QAkCemA/CDGJGCUsuc1dtFqI0f4yCgZDA61dS2caPV8AUQILQ07yGiSCYnondgg6mg8KJgoFwS48VplQowTw2NSFqhC+fuUy+Dx2WoXiQ7LXxWOaxNusNsP/oj2KQkNmhWcILuMkRorQzJs1puIRFbKvZ1WIocyzKgsAnvXhctR4wTfOGiySOn/Q9j/HeOGyVxI9yHbCI++C+UhWSrWxgBKuy2Ih1aU9VQ8CPEVQFeX+uLsQTUp1n951ytczFXUVRBOtX+IMxMNCEwhcXsMQ9xrlhpAkEIXXSB5hAGBFxt7FfiC6YX9xriB3uIFU82faglXQBmCT9gC8MEgUApgmRswwL4g1AgY1CCc/DGN8DzCiUKvo659Mhodiit1sJXT74Cfh4PHPw4Lm2MmIMjjav7U2kkCGKIMK72nOabwocHyzRVHUH4GfgcHUvgUfBLKONvmlPhkfCVeDlM6Zz+z0po5zf9B05QsYjw6EaEx6xwK+4B+CMwuAQIXjkpG8UiziPYW3ekO7NPID+7CeMnLijCo7cP0+SCZ4G5Z0zc9dGJQuwsau3wYvKgANXOF7gjJXuxKvwtfjoRamlpdt6+/I7eqtW08XaNb115aou1GoP7Dk/M9fbtZouv1PTpSs1vVVjnWu6WLuut6/wXNOFK1d17splXf3gXQ2GFHAF7UVVXoK7WUN1l8ARoPCdmZVxLMywUE6CB/EOnQc8on81BhJl0soQ5P5DqDLC8KvwkTVMS+AW9wI/Sonx3Ls5OnIhzZ2KXrix+MGkoGfv1fjFtuEYRpzARXAB+uYx3iRa4D3dZYznM3RLGA46h89F/nCMBUcSaAwzxzOnBlLAtEIscCbOBr2YbxiPgp/A22k1nNhH1bcMbgd4XNxBu3/ahZ+QCTI2LaffuOKsvhsqx9McPiNzzp7PCf9Jhpn/hcyKC4w1fDgmMe0Hf+L83MEnPC/JkwSfoE3m4tz0g1cn2FW0bfqkjQdDKGSj157iXiVv6QP/iv5THlOdh/0lr/pUrnmOhLc4ACqxCT4YfoAiU44The+ZnzOCajkSF80gRQrNDuPnXtAMOI1xO/EF37+lfJIN7AXlsZIL3osnCR7j4YVTryqUf8j63BfkoTvwVEDlAfybmaa6c8860/4AVvkcp7jXxned8gHv615r3/9yn22m/UY9zDPf75n220PVvt/e98x/n932jDrgY7X+AV0e9FfTMxy09rTTXVZP3x3U5S6j9m/aZx975p9+nOk+8xpGxD6LVP2mc+zT70vV/H91mE8D+dmDz75/mjkO6MuUd5v2bm1MM9O+a+ie9gNWfMhfzWxk10r3aN91mF0DH+yH6TbusuDMd9PXmdV3td1luLvu6jQzeM/rfXbbM+qzffz8PXSfbZ/zUXMIzCEwh8AcAnMIzCEwh8AcAvtAYK7Q7QOYefMcAnMIzCEwh8AcAnMIzCHwZYHA/wA7R9ZkzhTD6wAAAABJRU5ErkJggg==;" vertex="1" parent="1">
          <mxGeometry x="90" y="50" width="697.77" height="400" as="geometry" />
        </mxCell>
      </root>
    </mxGraphModel>
  </diagram>
</mxfile>
